/* XPM */
static char *af4aeeceddd548abe0f9d4bd43331031NOxjQWabqu7Istbw[] = {
/* columns rows colors chars-per-pixel */
"30 34 8 1 ",
"  c None",
". c #141A0E",
"X c #341D0D",
"o c #6B7039",
"O c #AD6331",
"+ c #DF7126",
"@ c #8F974A",
"# c #DC8C55",
/* pixels */
"                              ",
"                              ",
"           ....               ",
"          .@@@@.              ",
"           ...oo.             ",
"             .oo.             ",
"           XX.@o.XXXXX        ",
"     XXXXXXO..@o..X#+OXX      ",
"    XO##OXO.o.@o.o.XXXOOX     ",
"   XO#+#+O.o@.@o.o..O##+OX    ",
"   X#+#+XXX..o@@o.XXX#++OX    ",
"  XO##+XO###O.oo.O##OX+++OX   ",
"  XO#+XO#####O..O####OX++OX   ",
"  X#+#O#+#+#+#+#+#+#+#X++OX   ",
"  X##X#+#+#+#+#+#+#+#+OX+OX   ",
"  X#+O##+#+#+#+++++++##O++OX  ",
"  X##O#+#+#+++++++++++#X++OX  ",
"  X#+O##++++++++++++++#O++OX  ",
"  XO+O#+++++++++++++++#OO+OX  ",
"   XOO#+++++++++++++++#O+OOX  ",
"   XOO#+++++++++++++++#OO+OX  ",
"   XOO#+++++++++++++++#O+OOX  ",
"    XOO#++++++++++++++OOOOX   ",
"    XOOO#++++++++++++O#O+OX   ",
"    XOO#O+++++++++++O+OOOOX   ",
"     XOO#O+O+++++O+O+OOO+OX   ",
"     XOOO+O+O+O+O+O+O#O+OOX   ",
"      XOOO+O+O+O+O+O#O+OOX    ",
"       XO#O+O+O+O+O+OOOXX     ",
"        XOOOOOOOOOOOOOX       ",
"         XOOOOOOOOOOOX        ",
"          XXXXXXXXXXX         ",
"                              ",
"                              "
};
