/* XPM */
static char *_55aaccdb57a4407a5febbd322213b19S39XprsoGQyJgGWu[] = {
/* columns rows colors chars-per-pixel */
"30 30 6 1 ",
"  c #967730",
". c #C7905A",
"X c #C79C6C",
"o c #D1A665",
"O c #D8AB77",
"+ c #E0BE72",
/* pixels */
"oOOoOOO.oOOooOXO++..OOOOo++...",
"OOo.oOOOo.O..OoXOOOo.OOO+OOo..",
"XOO.O.OO.O..OXOOOOOOOoOOoOO.XO",
"+o.O.O.OOOXXoooO...ooOOOooOoOo",
"O...O.XO+OO...o.OOOO+O+OOooO..",
"XO...OOo.oXoXOoOXoOOOOO.o.oooX",
"O....OoO.OXXOoO.oOO+OOOOOoOOX.",
"O.. ..ooOOXOXO.oooOOOOOO+OOOo.",
"O..  ..OoXOO.oOOoOoO..OOXOOOO.",
"X...  ..o.OOOOOOOOO+OoOO.OX+oo",
"oO.. ..O.o.OOOo.OO+oOOOO.OoOOO",
"O.... ..OO.OooOoOo.oOOO.Oo+XOO",
".Oo....O.o.OoO.OO+.oOo.OOoOOoO",
"oXoO....O.o.Oo.o..OooOoOoX.OO.",
"OoXOX.OX.+oO...OXooOO.O.oO.O+.",
"OOO+OooOX..OO.OooO+OoOXOO.OOoO",
"O.OOOO.OOO.O+OOOOX.OOoOOOOo+oo",
"o.oO.OOOOOOO.OOXOOoOooXoO++ooO",
"Ooo....ooOOO+OXXXOOOOXoX+OOooO",
"OoOo....+OO+Xo+XOoO.ooOOoooO.o",
"ooooO....XOXoOooXoOoOX.OoOO+O.",
"oOooO.....o+OooXoooooO+OoO.Ooo",
"OOOOO.. ...O+o.OXOXOoO+o.OOXoo",
"O.OOOO.. ..OoXO.o.XXXXXXOoooo.",
".o+OOo+......oooOOO.O.O+OoOo.O",
"ooOOO+.o.O....oOoOXoooOO+OOOo.",
"oOOo+oX.o.......Xooo.oOOOO.+OO",
".ooOoOo..o. . .....OO..oOO.OOO",
"+oooOooXo.O. . ......OOOXOOOO+",
"OX.O.OooO...... ..o+OOOXXO.O.O"
};
