/* XPM */
static char *_cd473c65b7540e4893af33776ea760f6QM3UlfKIBN8IdRV[] = {
/* columns rows colors chars-per-pixel */
"64 64 228 2 ",
"   c None",
".  c #010402",
"X  c #010403",
"o  c #020402",
"O  c #020403",
"+  c #020404",
"@  c #020504",
"#  c #030504",
"$  c #040605",
"%  c #040706",
"&  c #050707",
"*  c #070706",
"=  c #070907",
"-  c #060909",
";  c #07090A",
":  c #070A0A",
">  c #070A0C",
",  c #080A09",
"<  c #0A0A08",
"1  c #080A0A",
"2  c #090A0B",
"3  c #0A0C0B",
"4  c #0C0D0B",
"5  c #080C0C",
"6  c #090C0C",
"7  c #0B0E0D",
"8  c #0C0F0F",
"9  c #0E0F0E",
"0  c #15130D",
"q  c #17150F",
"w  c #0E1010",
"e  c #0D1012",
"r  c #0F1212",
"t  c #0E1213",
"y  c #101312",
"u  c #101213",
"i  c #111313",
"p  c #101413",
"a  c #121412",
"s  c #171712",
"d  c #111414",
"f  c #111617",
"g  c #121617",
"h  c #1A1610",
"j  c #161817",
"k  c #1C1A12",
"l  c #181917",
"z  c #1F1C14",
"x  c #131718",
"c  c #14191B",
"v  c #151A1D",
"b  c #1C1C19",
"n  c #1D1C19",
"m  c #191D1D",
"M  c #181D1F",
"N  c #1C1E1E",
"B  c #1D1F1E",
"V  c #1E1E1E",
"C  c #211D14",
"Z  c #231F15",
"A  c #232019",
"S  c #282319",
"D  c #2F2A1E",
"F  c #191D20",
"G  c #1B2023",
"H  c #1F2120",
"J  c #1B2025",
"K  c #1D2124",
"L  c #1E2324",
"P  c #1E2326",
"I  c #232323",
"U  c #252522",
"Y  c #232524",
"T  c #222627",
"R  c #272823",
"E  c #252827",
"W  c #262827",
"Q  c #212629",
"!  c #272A2B",
"~  c #23292C",
"^  c #2B2C29",
"/  c #2E2E2A",
"(  c #2D2D2D",
")  c #362F22",
"_  c #31312C",
"`  c #30302E",
"'  c #262D31",
"]  c #293033",
"[  c #2F3130",
"{  c #2B3337",
"}  c #2E3439",
"|  c #313231",
" . c #333431",
".. c #303335",
"X. c #343434",
"o. c #353535",
"O. c #383836",
"+. c #31373C",
"@. c #30383D",
"#. c #383A39",
"$. c #3A3B3A",
"%. c #3A3D3E",
"&. c #3D3F3F",
"*. c #463A29",
"=. c #49402E",
"-. c #42423F",
";. c #2F3641",
":. c #343A40",
">. c #3F4040",
",. c #394046",
"<. c #39454A",
"1. c #3F464A",
"2. c #3F4A51",
"3. c #444443",
"4. c #474846",
"5. c #4A4A49",
"6. c #494B4A",
"7. c #4E4E4E",
"8. c #434E54",
"9. c #434D59",
"0. c #4F5050",
"q. c #47515A",
"w. c #4A555F",
"e. c gray32",
"r. c #545554",
"t. c gray34",
"y. c #53595D",
"u. c #585A5A",
"i. c #5D5F5F",
"p. c #4B5864",
"a. c #5B5F60",
"s. c #505E69",
"d. c #536068",
"f. c #54616A",
"g. c #57656D",
"h. c #576474",
"j. c #586871",
"k. c #5C6C76",
"l. c #5F6F7B",
"z. c gray38",
"x. c #636464",
"c. c #646665",
"v. c #656666",
"b. c #6A6C6C",
"n. c #6F7070",
"m. c #68737A",
"M. c #717474",
"N. c #767777",
"B. c #797A7A",
"V. c #7C7D7D",
"C. c #627081",
"Z. c #667787",
"A. c #697A84",
"S. c #6C7F8B",
"D. c #788186",
"F. c #71848F",
"G. c #748893",
"H. c #758998",
"J. c #788D9A",
"K. c #7C8F9B",
"L. c #7B92A3",
"P. c #808281",
"I. c #838484",
"U. c #85898A",
"Y. c #8C8C8D",
"T. c #8E8F8E",
"R. c #868C90",
"E. c #869196",
"W. c #8D989F",
"Q. c #939494",
"!. c #979898",
"~. c #9A9B9B",
"^. c #8194A0",
"/. c #8697A1",
"(. c #8197A5",
"). c #899AA4",
"_. c #859BA9",
"`. c #869FAE",
"'. c #93A0A6",
"]. c #9BA1A5",
"[. c #97A6AD",
"{. c #89A2B2",
"}. c #8CA5B4",
"|. c #97AAB6",
" X c #91ABBA",
".X c #94AEBE",
"XX c #9CB1BD",
"oX c #A0A0A0",
"OX c #A5A6A6",
"+X c #ABACAC",
"@X c #AFAFAE",
"#X c #A0ABB1",
"$X c #A7B4BC",
"%X c #B1B2B2",
"&X c #B6B7B7",
"*X c #BBBCBD",
"=X c #99B3C3",
"-X c #9CB7C7",
";X c #9EBBCC",
":X c #9FBBCC",
">X c #A3B6C1",
",X c #AFBEC6",
"<X c #A4BECD",
"1X c #AABFCB",
"2X c #BEC0C0",
"3X c #B6C6CF",
"4X c #AFC4D0",
"5X c #B8CBD5",
"6X c #BECED7",
"7X c #C4C5C5",
"8X c #C4CACE",
"9X c #C8C8C8",
"0X c #CBCCCC",
"qX c #CECFCF",
"wX c #C4D0D7",
"eX c #C8D1D7",
"rX c #CDD5DA",
"tX c #CED8DC",
"yX c #D2D2D2",
"uX c gray83",
"iX c #D7D8D8",
"pX c #D6DBDE",
"aX c #D9DADA",
"sX c #D9DEDF",
"dX c #DEDFDF",
"fX c #E1E2E2",
"gX c #E4E4E4",
"hX c gray90",
/* pixels */
"                                                                                                                                ",
"                                                7 y l H A A l r 6                                                               ",
"                                        + w T >.r.x.n.V.D.B.b.i.r.$.! y                                                         ",
"                                      1 $.i.Y.9XiXgXhXhXhXhXhXdXiX*XQ.v.$.c                                                     ",
"                                    x u.9XfXhXhXgXgXhXhXhXhXhXhXhXhXhXhX9X~.$..                                                 ",
"                                  x y.*XgXhXhXhXhXhXhXhXhXhXhXhXhXhXhXhXhXfXoX6                                                 ",
"                                o <.[.fXhXhXhXhXhXhXhXhXhXhXhXhXhXhXhXhXhXhXaX7.+                                               ",
"                              o 4 =X5XhXhXhXhXhXhXhXhXhXhXhXhXhXhXhXhXhXhXhXhXdXg                                               ",
"                              o d.<X6XhXhXhXhXhXhXhXhXhXhXhXhXhXhXhXhXhXhXhXhXhXN.o                                             ",
"                            + } =X-X,XhXhXhXhXhXhXhXhXhXhXhXhXhXhXhXhXhXhXhXhXhXaXE                                             ",
"                            + A.;X=X$XhXhXhXhXhXhXaX*X@X2XaXhXhXhXhXhXhXhXhXdXyXfXu.o                                           ",
"                            : .X;X.X$XgXhXhXhXhXfXQ.e.O.r.~.uXhXhXhXhXhXhXuXoXV.oXI.:                                           ",
"                            F ;X;X.X[.gXhXhXhXhXY.R R ^ R R N.hXhXhXhXhXuXb./ U U i.! o                                         ",
"                          o ! ;X;X}.'.gXhXhXhXgX` R _ _ _ U O.hXhXhXhXhXOX$.R _ R $.7.o                                         ",
"                          + { ;X;X}.W.gXhXhXhXyXy -.-.O._ / b dXhXhXhXhXV. ./ ` ` $.z.:                                         ",
"                          o <.;X;X{.W.gXhXhXhX7Xg t.t.e.O._ s iXhXhXhXhXn.>.7. ._ -.M.j                                         ",
"                          + w.;X;X`.E.hXhXhXhXdXr e.t.t.4._ b gXhXhXhXhXB.>.7.4.` 4.T.E                                         ",
"                          : k.;X;X_.R.hXhXhXhXhXn.O.7.t.4.^ z.hXhXhXhXhX&X5.>.r.U b.&X6.                                        ",
"                          y A.;X;X_.R.hXhXhXhXhXyX7.$.$.o.r.%XhXhXhXhXhXdXI.-.$./ @X7Xi.                                        ",
"                          T J.;X;X).Q.hXhXhXhXhXhX%Xb.t.n.&XdXhXhXhXhXhXhXyXU.u.T.fX0Xb.                                        ",
"                        o 8.{.;X;X).&XhXhXhXhXhXhXhXhXgXhXhXhXhXhXhXhXhXgXhXhXhXgXhXyXN.                                        ",
"                        + k.=X;X;XE.0XhXhXhXhXhXgXgXhXhXgXgXgXgXgXgXgXgXgXgXgXgXgXgXyXV.                                        ",
"                        t F.;X;X;XU.dXhXhXhXuXv.v.V.2XqXB.v.v.v.v.v.v.v.x.v.v.OXoXb.Y.B.                                        ",
"                        8.}.;X;X;X~.hXhXhXhXqXr 7.$.u.~.O.5.7.7.7.7.7.3._ / E ` _ U z.B.                                        ",
"                      6 A.-X;X;X{.*XhXhXhXhXaXb r.3. .4.>.t.t.t.t.t.t.5._ _ / 1 4  .V.M.                                        ",
"                    o ' }.;X;X;Xm.fXhXhXhXhXhXn.` r.O.N 7.t.t.t.t.t.r.4._ _ _ b t 4.+Xv.                                        ",
"                    u p.-X;X;X=XD.hXhXhXhXhXhX*XL 7.5.$.r.t.t.t.t.t.e.-._ _ _ ^ s c.*X0.                                        ",
"                  * +.(.;X;X;X_.*XhXhXhXhXhXhXhXx.O.e.r.t.t.t.t.t.t.7.O._ _ _ / s OX+X`                                         ",
"                o { L.;X;X;X;X].fXhXhXhXhXhXhXhXiXv.| 4.t.t.t.t.t.r.3._ _ _ / s V.iXT.r                                         ",
"                * A.-X;X;X;XXX8XwXdXhXhXhXhXhXhXhX*Xb.[ >.e.t.t.t.5.O._ _ E b x.uX0Xv.+                                         ",
"              6 f..X.XF.(.-X-X3X<XfXhXhXhXhXhXhXhXfX9X!.e. ./ $.-. .R A b ` M.9XhX%X| o                                         ",
"          o 8 G.L.8.y g J.;X;X;X4XgXfXfXhXhXhXhXhXhXhXhXgXuX%XN.u.7.r.n.&XaXgXhXhXI.+                                           ",
"        o o a 4 X . + '  X;X;X;X-X<X4XpXhXhXhXhXhXhXhXhXhXhXhXhXhXhXhXhXhXhXhXhXgX&..                                           ",
"          +       : P C.`.G.g.@.}.<XwXhXhXhXhXdXhXhXhXhXhXhXhXhXhX0X9XhXhXhXhXdXR.1                                             ",
"                  6 :.m.<.c + g.;X5XsXhXhXaX&X9XhXhXhXhXgXgXgXhXiXU.Y.hXgXgXgX,XL +                                             ",
"                . r L a . . x  X;XtXgXaX*X].M.9XaXgXhXfX8XuXfX0X].m.U.hXhXfXwXg.o                                               ",
"              + X         r j.;X6XqXOXE.J.f.M.#X1XfXgX7X).3X2X/.{.}.'.hXsX5XS.5                                                 ",
"                        = q.`.,X#X[.}.{.}.A.A..X1XfX2XR..X<XXXl.=X X#XsX5X(.@.o   N o.I                                         ",
"                        } J.-X>X|..X-X.Xk.+.l.;X].P.M.J.;X-XG.} =X=X>X5X_.1.r   / !.+X!.o.1                     + o * + 9 1     ",
"                    . N L.;X;X;X;X(.9.a o : S.q.0 d.%.' G.8.r ' ;X;X;X{.~ +   * 9X%Xx.$.1 L g.L           + + * N 9 S *.*.C 1   ",
"                    8 p.;X;X-XJ.2.4 o o o L S.4 /.fXyXY.E 1 o w.;X;X`.8.+     + N ~ w.8.Q /.tXr.+ o o 6 A ) D + @.x 6 9 + +     ",
"                  9 ,.l.w.{ g * o       - s.k.~ pXhXhXhXfXOX$.(..Xg.T .       N .X<.}.G.! u.4.s D ) ) D C s 9 o ..N = + o       ",
"                + * r r . o             L F.p.w.pXhXhXhXhXaXb.H.j.u .       a Q 4X8.|.).$.x.b.C C q 1 1 o + * 3 ] ! x x :       ",
"                                        2.K.<.A.wXhXhXhXhX*Xu.! * = a l N A Z N sXv.].2Xx.%XeX+           + r ~ @.,.1.} :       ",
"                                      o L ' r s.<XfXhXhXhXOXO.D ) D S A z k q = OXI.t.7Xz.b.!.=           o g :.+.w.h.9.r       ",
"                                    + + . . . { ;XrXhXhXhX2X3.A z h 0 9         #.>.b 7.` I o.              1 :.+.w.C.h.M       ",
"                                          X C a _.5XsXhXhXiXt.=                                             = :.+.h.L.S.J       ",
"                                            * * g J.>XeX3X4Xk.o                                             > q.p.S.{.H.G       ",
"                                                  1 ;.Z.A.(.8.                                              a h.p.L.{.G.x       ",
"                                                        y w *                                               x h.h.H.H.j.2       ",
"                                                                                                          + F p.s.l.Z.s.+       ",
"                                                                                                          X L ,.s.C.Z.2.        ",
"                                                                                                          + Q ,.C.E.S.L         ",
"                                                                                                        o 9 } k.L./.u.1         ",
"                                                                                                        + ' 9.L.{.F.J +         ",
"                                                                                                        L 9.l.`.H.P +           ",
"                                                                                                      - :.2.k.C.:.X             ",
"                                                                                                    * c :.p.p.Q +               ",
"                                                                                                  + 6 L 8.9.' +                 ",
"                                                                                                  1 N +.:.F -                   ",
"                                                                                              + * g N c 6                       ",
"                                                                                            + o . > : +                         ",
"                                                                                        o + + + +                               ",
"                                                                                                                                "
};
