/* XPM */
static char *c7b644d70bae41d2c3a8393be159cee2fLIUuWBZ552cqY9x[] = {
/* columns rows colors chars-per-pixel */
"64 64 232 2 ",
"   c None",
".  c #020303",
"X  c #010403",
"o  c #020402",
"O  c #020403",
"+  c #020404",
"@  c #020504",
"#  c #030504",
"$  c #030505",
"%  c #040605",
"&  c #040706",
"*  c #050707",
"=  c #060806",
"-  c #070907",
";  c #060909",
":  c #07090A",
">  c #070A0A",
",  c #090A08",
"<  c #080A09",
"1  c #090A09",
"2  c #0A0A08",
"3  c #0A0C0B",
"4  c #0C0D0B",
"5  c #0F0E0A",
"6  c #080B0C",
"7  c #080C0C",
"8  c #090C0C",
"9  c #0A0C0C",
"0  c #0B0E0D",
"q  c #0C0E0D",
"w  c #0C0F0F",
"e  c #0E0F0F",
"r  c #15130C",
"t  c #17150F",
"y  c #0E1010",
"u  c #0D1012",
"i  c #0F1212",
"p  c #0E1213",
"a  c #101312",
"s  c #111312",
"d  c #101213",
"f  c #101313",
"g  c #121412",
"h  c #171712",
"j  c #111414",
"k  c #111617",
"l  c #121617",
"z  c #1A1610",
"x  c #161817",
"c  c #1C1A12",
"v  c #181917",
"b  c #1F1C14",
"n  c #131718",
"m  c #14191B",
"M  c #151A1D",
"N  c #1C1C19",
"B  c #1D1C19",
"V  c #191C1D",
"C  c #181D1F",
"Z  c #1C1E1E",
"A  c #1E1E1E",
"S  c #211D14",
"D  c #231F15",
"F  c #242019",
"G  c #2A251B",
"H  c #312B1E",
"J  c #191D20",
"K  c #1B2023",
"L  c #1F2120",
"P  c #1C2023",
"I  c #1B2025",
"U  c #1D2226",
"Y  c #1F2427",
"T  c #232323",
"R  c #232421",
"E  c #262623",
"W  c #232524",
"Q  c #242726",
"!  c #252827",
"~  c #282926",
"^  c #212528",
"/  c #242829",
"(  c #23292C",
")  c #2D2D29",
"_  c #2B2D2D",
"`  c #292C2E",
"'  c #2D2D2D",
"]  c #362F22",
"[  c #31312C",
"{  c #30302E",
"}  c #262D31",
"|  c #293033",
" . c #2F3130",
".. c #2B3337",
"X. c #2E3439",
"o. c #313231",
"O. c #333431",
"+. c #303335",
"@. c #343434",
"#. c #353535",
"$. c #383836",
"%. c #31373C",
"&. c #30383D",
"*. c #383A39",
"=. c #3A3B3A",
"-. c #3A3D3E",
";. c #3D3F3F",
":. c #463A29",
">. c #49402E",
",. c #42423F",
"<. c #2F3641",
"1. c #343A40",
"2. c #3F4040",
"3. c #394046",
"4. c #39454A",
"5. c #3F464A",
"6. c #3F4A51",
"7. c #444443",
"8. c #474846",
"9. c #4A4A49",
"0. c #494B4A",
"q. c #4E4E4E",
"w. c #434E54",
"e. c #434D59",
"r. c #4F5050",
"t. c #47515A",
"y. c #4A555F",
"u. c gray32",
"i. c #545554",
"p. c gray34",
"a. c #53595D",
"s. c #585A5A",
"d. c #5D5F5E",
"f. c #5D5F5F",
"g. c #4B5862",
"h. c #4D5A69",
"j. c #525F69",
"k. c #53616A",
"l. c #556168",
"z. c #57656D",
"x. c #576474",
"c. c #586871",
"v. c #5C6C76",
"b. c #5D6D7C",
"n. c #616262",
"m. c #656565",
"M. c #686968",
"N. c #6A6B6C",
"B. c #6E6F6F",
"V. c #6F7171",
"C. c #60707A",
"Z. c #68737A",
"A. c #717474",
"S. c #767777",
"D. c #797A7A",
"F. c #7C7D7C",
"G. c #627081",
"H. c #667787",
"J. c #697A84",
"K. c #6C7F8B",
"L. c #788186",
"P. c #71848F",
"I. c #748893",
"U. c #758998",
"Y. c #7A8E9A",
"T. c #7B92A3",
"R. c #808281",
"E. c #838484",
"W. c #85898A",
"Q. c #8D8E8D",
"!. c #868C90",
"~. c #869196",
"^. c #8D989F",
"/. c #939494",
"(. c #979898",
"). c #9A9B9B",
"_. c #8194A0",
"`. c #8697A1",
"'. c #8197A5",
"]. c #899AA4",
"[. c #859BA9",
"{. c #869FAE",
"}. c #93A0A6",
"|. c #9BA1A5",
" X c #97A6AD",
".X c #89A2B2",
"XX c #8CA5B4",
"oX c #97AAB6",
"OX c #91ABBA",
"+X c #94AEBE",
"@X c #9CB1BD",
"#X c #A0A0A0",
"$X c #A5A6A6",
"%X c #ABACAC",
"&X c #AFAFAE",
"*X c #A0ABB1",
"=X c #A7B4BB",
"-X c #B1B2B2",
";X c #B6B7B7",
":X c #BBBCBD",
">X c #99B3C3",
",X c #9CB7C7",
"<X c #9EBBCC",
"1X c #9FBBCC",
"2X c #A3B6C1",
"3X c #AFBEC6",
"4X c #A4BECD",
"5X c #AABFCB",
"6X c #BEC0C0",
"7X c #B6C6CF",
"8X c #AFC4D0",
"9X c #B8CBD5",
"0X c #BECED7",
"qX c #C4C5C5",
"wX c #C4CACE",
"eX c #C8C8C8",
"rX c #CBCCCC",
"tX c #CECFCF",
"yX c #C3D1D7",
"uX c #C8D1D7",
"iX c #CDD5DA",
"pX c #CED8DC",
"aX c #D2D2D2",
"sX c gray83",
"dX c #D7D8D8",
"fX c #D6DBDE",
"gX c #D9DADA",
"hX c #D9DEDF",
"jX c #DEDFDF",
"kX c #E1E2E2",
"lX c #E4E4E4",
"zX c gray90",
/* pixels */
"                                                                q e v Z L Z v g r                                               ",
"                                                          i / =.u.f.N.D.R.F.V.m.p.1./ i @                                       ",
"                                                      x =.N./.:XdXjXzXzXzXzXzXkXdXeXQ.d.*.2                                     ",
"                                                  . *.).eXzXzXzXzXzXzXzXzXzXzXzXzXzXzXkXeXs.n                                   ",
"                                                  0 #XjXzXzXzXzXzXzXzXzXzXzXzXzXzXzXzXzXzX:Xa.n                                 ",
"                                                @ q.gXzXzXzXzXzXzXzXzXzXzXzXzXzXzXzXzXzXzXkX X4.@                               ",
"                                                l jXzXzXzXzXzXzXzXzXzXzXzXzXzXzXzXzXzXzXzXzX9X>X0 O                             ",
"                                              O S.zXzXzXzXzXzXzXzXzXzXzXzXzXzXzXzXzXzXzXzXzX0X4Xj..                             ",
"                                              Q gXzXzXzXzXzXzXzXzXzXzXzXzXzXzXzXzXzXzXzXzXzX3X,X>XX.@                           ",
"                                            @ s.kXsXjXzXzXzXzXzXzXzXzXgX:X&X:XgXzXzXzXzXzXzX=X>X<XJ..                           ",
"                                            > E.#XF.#XsXzXzXzXzXzXzXsX).i.$.u./.lXzXzXzXzXzX=X+X<X+X>                           ",
"                                          @ _ d.T E ] N.dXzXzXzXzXzXS.~ E ) ~ E Q.zXzXzXzXzX XoX<X<XC                           ",
"                                          . q.=.~ [ E =.$XzXzXzXzXzX$.E [ [ [ E [ zXzXzXzXzX}.XX<X4X^ O                         ",
"                                          : n.=.[ [ [ O.J.zXzXzXzXjXN ) [ $.,.,.i aXzXzXzXzX^.XX<X<X...                         ",
"                                          N A.,.[ O.q.2.B.zXzXzXzXdXh [ $.u.s.p.n qXzXzXzXkX]..X<X<X4.O                         ",
"                                          Q Q.8.[ 9.q.2.D.zXzXzXzXzXN [ 8.i.p.u.i jXzXzXzXzX~.{.<X<Xy.O                         ",
"                                          0.;XN.T u.:.0.;XzXzXzXzXzXn.~ 8.i.q.$.B.zXzXzXzXzX!.[.<X<Xv.&                         ",
"                                          d.qX&X[ =.5.E.jXzXzXzXzXzX-Xi.$.=.*.q.aXzXzXzXzXzX!.[.<X<XJ.i                         ",
"                                          N.rXkXQ.s.W.aXzXzXzXzXzXzXjX;XA.i.N.-XzXzXzXzXzXzX/.].<X<XU.Y                         ",
"                                          S.aXzXzXzXlXlXzXzXzXzXzXzXzXzXzXlXzXzXzXzXzXzXzXzX;X].<X<X.Xw.O                       ",
"                                          D.sXzXlXlXlXlXlXlXlXlXlXlXlXlXlXzXzXlXlXlXzXzXzXzXrX~.<X<X>Xv..                       ",
"                                          D.Q.N.#X$Xm.m.m.m.m.m.m.m.m.m.D.tX6XF.m.m.sXzXzXzXjXW.<X<X<XP.l                       ",
"                                          D.n.E O.{ E ) ) 7.q.q.q.q.q.0.#.).s.*.q.p tXzXzXzXzX).<X<X<X.Xw.                      ",
"                                          A.F.O.4 2 [ [ [ 8.p.p.p.p.p.p.7.8.@.7.i.N gXzXzXzXzX:X.X<X<X<XJ.0                     ",
"                                          m.%X8.f Z [ [ [ 8.i.p.p.p.p.p.q.Z $.i.[ B.zXzXzXzXzXkXZ.<X<X<XXX} O                   ",
"                                          r.:Xm.h ~ [ [ [ ,.i.p.p.p.p.p.i.=.9.q.E :XzXzXzXzXzXzXL.>X<X<X,Xg.f                   ",
"                                           .%X$Xh ) [ [ [ $.q.p.p.p.p.p.p.i.i.$.m.zXzXzXzXzXzXzX:X[.<X<X<X'.%.2                 ",
"                                          w Q.dXF.h ) [ [ [ 7.i.p.p.p.p.p.8.{ m.sXzXzXzXzXzXzXlXkX|.<X<X<X<XT....               ",
"                                          O M.rXsXm.N Q [ [ $.9.p.p.p.u.:.+.N.:XzXzXzXzXzXzXzXjXyXwX@X<X<X<X,XJ.&               ",
"                                          O O.-XzXeXA.[ B D Q O.1.=.) O.y.).eXkXzXzXzXzXzXzXzXkX4X8X,X,X'.P.OX+Xl.0             ",
"                                            @ E.zXzXkXgX;XV.i.q.d.S.-XsXlXzXlXzXzXzXzXzXzXkXkXzX8X<X<X<XY.l i w.'.I.w O         ",
"                                            . ;.zXzXzXzXzXzXzXzXzXzXzXzXzXzXzXzXzXzXzXzXzXfX8X4X,X,X<X<XOX| O O O 4 i O O       ",
"                                              > !.kXzXlXzXzXeXrXzXzXzXzXzXzXzXzXlXjXlXzXzXzXyX4XXX%.z.I.{.C.U >       @         ",
"                                              @ J 3XkXlXzXzXW.W.dXzXlXlXlXzXzXzXlXrX;XgXlXzXhX9X1Xz.% m 4.C.3.0                 ",
"                                                @ z.yXkXzXzXW.Z.|.rXlXaXwXkXzXlXgXeXV.|.:XdXlXiX1XOXm O O f Y e O               ",
"                                                  7 P.9XhXzX}.XX.X`.6X7X].qXlXlX8X XA.l.^.~.$XuX0X1Xc.e         O O             ",
"                                          T #.Z   @ &._.9XhX*XOX>XC.@X4X+XW.qXjX4X+XJ.J.XX.XXX XoX6X{.t.%                       ",
"      2 i @ @ & +                     2 #.(.%X(.'   i 5.[.9X2X>X>X+.I.,X<XY.A.R.}.<XC.%.v.+X,XOXoX,X,XY...                      ",
"    2 b :.:.G 4 Z & @ @           J z.L > *.m.-XeX&   @ ( .X1X1X<X` f w.I.) -.j.i t.K.> O i t.'.1X1X1X1X'.C O                   ",
"      @ & 4 4 n 1.& G ] D 0 @ O @ i.pX`.Q w.g./ Z &     O 6.{.1X<Xy.. 2 ~ Q.aXkX^.4 K.U O . . q 6.Y.,X1X1Xy.e                   ",
"        @ & & Z +.O 4 z S ] ] ] ] h 7.s.( I.OX4.+XV       O U z.+X'.*.$XkXzXzXzXfX( v.j.*       . O l ..y.b.3.0                 ",
"        @ n M ^ | 4 & . @ - 2 r S c N.n.1.].oXw.8XQ f       . l c.U.N.gXzXzXzXzXfXg.g.K.I             & O i d - @               ",
"        2 X.5.3.%.( i O           & tX-Xn.6X|.m.hXZ F F B v g - & ( s.:XzXzXzXzXyXJ.4.Y.6.                                      ",
"        w e.x.g.%.&.l O           > (.N.n.qXi.E.$X, t c b F G H ] H $.$XzXzXzXkX4Xj.d } L O                                     ",
"        J x.G.g.%.1.0               O.Q [ q.B ;.*.        4 r z S D 7.3XzXzXzXiX1X..+ . . O @                                   ",
"        J P.T.x.%.1.-                                             2 i.dXzXzXfX9X[.d S @                                         ",
"        J U..XK.g.t.6                                             @ v.8X7XuX2X~.n & -                                           ",
"        m I..XT.h.x.d                                               w._.J.J.<.%                                                 ",
"        > c.U.U.x.x.l                                               2 q f                                                       ",
"        @ h.H.b.j.g.J .                                                                                                         ",
"          e.H.G.j.4.U .                                                                                                         ",
"          J L.~.G.1.^ &                                                                                                         ",
"          : j.`.T.v.X.0 @                                                                                                       ",
"          @ J P..XT.e.} &                                                                                                       ",
"            @ U I..Xb.e.U                                                                                                       ",
"              @ X.b.b.w.3.&                                                                                                     ",
"                + ^ g.g.&.m >                                                                                                   ",
"                  @ } e.w.T w @                                                                                                 ",
"                    * J 1.%.V 2                                                                                                 ",
"                        0 M M n & @                                                                                             ",
"                          @ > 6 + + .                                                                                           ",
"                                @ @ O @ +                                                                                       ",
"                                                                                                                                ",
"                                                                                                                                "
};
