/* XPM */
static char *efc7b080bd034ff5d8b268f969995245EDpozo0voj5FgeD2[] = {
/* columns rows colors chars-per-pixel */
"80 80 182 2 ",
"   c None",
".  c #020403",
"X  c #060807",
"o  c #090906",
"O  c #080608",
"+  c #060909",
"@  c #0B0C0C",
"#  c #040508",
"$  c #100F09",
"%  c #0E100E",
"&  c #12110E",
"*  c #0B0F12",
"=  c #0E1212",
"-  c #131514",
";  c #171817",
":  c #1B1A14",
">  c #111619",
",  c #161A1B",
"<  c #1B1D1C",
"1  c #1A1613",
"2  c #21211D",
"3  c #2A251B",
"4  c #322A1C",
"5  c #191E21",
"6  c #1D2123",
"7  c #242525",
"8  c #2B2B26",
"9  c #21272A",
"0  c #242A2D",
"q  c #2B2C2A",
"w  c #272823",
"e  c #302C21",
"r  c #2F3029",
"t  c #3C3425",
"y  c #31312C",
"u  c #383226",
"i  c #262D32",
"p  c #2B2E32",
"a  c #2C3234",
"s  c #2E363B",
"d  c #2B343C",
"f  c #333433",
"g  c #31353B",
"h  c #33393D",
"j  c #3B3C3C",
"k  c #423727",
"l  c #453C2B",
"z  c #4B3F2E",
"x  c #3E403F",
"c  c #48402E",
"v  c #4B4130",
"b  c #41413F",
"n  c #353B41",
"m  c #393D44",
"M  c #343B46",
"N  c #3B4144",
"B  c #3C454C",
"V  c #3D494F",
"C  c #3E4951",
"Z  c #3F4651",
"A  c #434443",
"S  c #494946",
"D  c #4D4D4C",
"F  c #464A4A",
"G  c #4F504F",
"H  c #434C55",
"J  c #464F5B",
"K  c #4E5050",
"L  c #455159",
"P  c #49555B",
"I  c #565656",
"U  c #5B5D5C",
"Y  c #535758",
"T  c #4B5362",
"R  c #4D5962",
"E  c #4C576A",
"W  c #525C64",
"Q  c #515C6B",
"!  c #5E6262",
"~  c #54636B",
"^  c #59656C",
"/  c #566173",
"(  c #5A6576",
")  c #5C6B75",
"_  c #5D6C7B",
"`  c #626363",
"'  c #6D6D6D",
"]  c #626D73",
"[  c #63737C",
"{  c #747575",
"}  c #7C7E7D",
"|  c #747778",
" . c #5E6E80",
".. c #647682",
"X. c #667884",
"o. c #6B7B86",
"O. c #6C7F8C",
"+. c #64738D",
"@. c #6D818E",
"#. c #7C8183",
"$. c #73838C",
"%. c #6F8392",
"&. c #738692",
"*. c #768893",
"=. c #798C97",
"-. c #748A9A",
";. c #7B8D99",
":. c #7B939F",
">. c #7D93A2",
",. c #828282",
"<. c #8C8D8C",
"1. c #848A89",
"2. c #8F908D",
"3. c #90908F",
"4. c #8E9090",
"5. c #81929A",
"6. c #949594",
"7. c #979897",
"8. c #91999D",
"9. c #9A9B9B",
"0. c #8396A2",
"q. c #8499A7",
"w. c #849CAB",
"e. c #889CAA",
"r. c #889FB1",
"t. c #8BA1AE",
"y. c #90A3AF",
"u. c #8BA4B3",
"i. c #8BA6B7",
"p. c #93ACBC",
"a. c #98AAB6",
"s. c #96B0BF",
"d. c #9BB1BE",
"f. c #A4A5A5",
"g. c #ABACAC",
"h. c #ACAFB0",
"j. c #B4B4B4",
"k. c #BCBCBC",
"l. c #B2B8BC",
"z. c #94AFC1",
"x. c #96B2C1",
"c. c #9BB5C5",
"v. c #9EB8C7",
"b. c #9BB7C8",
"n. c #9EBBCC",
"m. c #A2BBCB",
"M. c #A9BBC7",
"N. c #B3BDC3",
"B. c #ACC1CD",
"V. c #BFC0C0",
"C. c #AEC3D1",
"Z. c #B2C6D2",
"A. c #B6C8D2",
"S. c #C5C5C5",
"D. c #C2C3C3",
"F. c #CBCCCB",
"G. c #C2C5C9",
"H. c #CFD0CF",
"J. c #C1CFD8",
"K. c #CBD6DB",
"L. c #CED8DD",
"P. c #C7D5DC",
"I. c #D1D2D2",
"U. c #D5D5D5",
"Y. c #D3D4D4",
"T. c #D8D8D7",
"R. c #D4DADC",
"E. c #DADADA",
"W. c #DDDEDE",
"Q. c #DCDDDD",
"!. c #E0E0DF",
"~. c #D5DCE1",
"^. c #DADFE2",
"/. c #E0DFE1",
"(. c #DEE1E2",
"). c gray89",
"_. c #E1E1E1",
"`. c #E4E4E4",
"'. c gray90",
"]. c #E4E5E5",
"[. c #E4E6E6",
"{. c #E5E5E5",
/* pixels */
"                                                                                                                                                                ",
"                                                                                                                                                                ",
"                                                                                                                                                                ",
"                                                                                                                                                                ",
"                                                                                                                                                                ",
"                                                                      . . . . . . .                                                                             ",
"                                                              . . . - 7 a A D D j q 6 - X . . .                                                                 ",
"                                                          . X a } k.I.W.'.].[.].[.'.W.F.k.,.j o . .                                                             ",
"                                                        . r D.'.[.[.[.'.'.'.'.'.'.'.'.'.'.'.'.E.} - .                                                           ",
"                                                      . K T.'.'.[.[.'.'.'.'.'.'.'.'.'.'.'.'.'.'.[.S.- .                                                         ",
"                                                    . B L.[.'.'.'.'.'.'.'.'.'.'.'.'.'.'.'.'.'.'.[.'.j.@ .                                                       ",
"                                                  . i x.).[.'.'.'.'.'.'.'.'.'.'.'.'.'.'.'.'.'.'.'.'.[.' .                                                       ",
"                                                . @ i.m.'.[.'.'.'.'.'.'.'.'.'.'.'.'.'.'.'.'.'.'.'.'.'.W.; .                                                     ",
"                                                . ~ m.B.'.'.'.'.'.'.'.'.'.'.'.'.'.'.'.'.'.'.'.'.'.'.'.[.| .                                                     ",
"                                              . < x.n.d.'.'.'.'.'.'.'.'.'.'.'.'.'.'.'.'.'.'.'.'.'.'.'.'.Y.; .                                                   ",
"                                              . ~ n.n.y.'.'.'.'.'.'.'.'.'.'.'.'.'.'.'.'.'.'.'.'.'.'.'.'.).! .                                                   ",
"                                              . i.m.n.e.'.'.'.'.'.'.[./.,.b A 3./.'.'.'.'.'.'.'.'.).S.j.E.k..                                                   ",
"                                            . - n.n.n.;.'.'.'.'.'.'.Q.S 1 2 7 $ ! /.'.'.'.'.'.'.'.6.$ $ y F.- .                                                 ",
"                                            . i n.n.n.@.'.'.'.'.'.'.` 1 r y y y $ ,.'.'.'.'.'.'.D.$ q y < A Y .                                                 ",
"                                            . n n.n.n.X.'.'.'.'.'.).- 8 y y y y w 7 '.'.'.'.'.'.' ; y y 8 @ ,..                                                 ",
"                                            . H n.n.n.[ ).'.'.'.'.F.@ D G A f y y O E./.'.'.'.'.j y f y y & 6.@                                                 ",
"                                            . ~ n.n.n.[ '.'.'.'.'.S.- I I I S y y O E.'.'.'.'.'.f S G f y 1 9.<                                                 ",
"                                            . @.n.n.n.^ '.'.'.'.'.W.& K I I Y z 8 1 '.'.'.'.'.'.A j I S y @ k.f .                                               ",
"                                            . q.n.n.n.^ '.'.'.'.'.[.A f Y I Y D 1 I '.'.'.'.'.'.,.5 I I 8 % /.U .                                               ",
"                                            = p.n.n.n.W '.'.'.'.'.'.S.7 f G G p q Y./.'.'.'.'.'.U.7 j D 1 ' '.,..                                               ",
"                                          . 6 b.n.n.c.! '.'.'.'.'.'.[.S.j - - S Y.'.'.'.'.'.'.'.[.k.q - ! Q.'.6..                                               ",
"                                          . L n.n.n.i.,.'.'.'.'.'.'.'.'.).).'.'.'.'.'.'.'.'.'.'.[.[.'.'.'.'.'.f..                                               ",
"                                          . @.n.n.n.:.g.'.'.'.'.'.'.'.'.[.'.'.'.'.'.'.'.'.'.'.'.'.'.'.'.'.'.'.j..                                               ",
"                                          . x.n.n.n.[ F.[.].'.'.'.'.'./.'.'.'.)././././.'./.).).'.'.).'.).).).j..                                               ",
"                                        . 0 n.n.n.n.Y !.].].'.'.V.7 7 w <.'.,.7 7 8 q 7 8 w 7 w 7 w 7 1.,.w A j..                                               ",
"                                        . [ n.n.n.v.| ].[.[.[.'.S.- D S < U.7 N G G D D D D D f 8 8 7 y f < f j..                                               ",
"                                      . - p.n.n.n.u.g.).[.[.[.'.Y., I I 2 W 1 I I I I U I I U f y y r O @ 2 ` g..                                               ",
"                                      . ~ n.n.n.m.[ !.'.'.'.'.'.'.G j I D X f I I I I I I I I y y y y 1 $ - f.7..                                               ",
"                                    . @ s.n.n.n.n.] '.'.'.'.'.'.'.g.; I I < Y I I I U I I I G f y y y w : @ /.,..                                               ",
"                                    . ) n.n.n.n.u.g.'.'.'.'.'.'.'.'.g f I I I I U I I I I U z y y y y y - ` [.D .                                               ",
"                                  . a x.n.n.n.n.$.E.'.'.'.'.'.'.'.'.V.- S I I I I I I U I I f p y y y 8 ; F.W.7 .                                               ",
"                                . = p.n.n.n.n.v.h.].).].'.'.'.'.'.'.'.k.- f I I I U I I I S y y y y w $ h.'.D.@                                                 ",
"                              . X *.n.n.m.n.n.y.R.Z.R.].'.'.'.'.'.'.'.'.k.f < A I I I I I f y y y 2 % 3.'.'.,..                                                 ",
"                            . + :.n.x.%.s s.n.n.n.n.].[.[.[.'.'.'.'.'.'.'.).f.A ; ; q f 8 2 : & & S F.'.'.'.q .                                                 ",
"                          . - *.q.^ , . s n.n.n.n.C.[.).(.'.'.'.'.'.'.'.'.'.'.).H.f.| I G G ! <.F.'.'.'.'.S.#                                                   ",
"                      . . . ; @ . . . . -.n.n.n.v.c.B.n.P.[.[.'.'.'.'.'.'.'.'.'.'.'.'.'.'.'.'.'.'.'.'.[.[.I .                                                   ",
"                      . . . . .     . 0 n.v.b.%.i t.n.B.).].[.[.'.'.'.'.'.'.'.'.'.'.'.'.'.).'.'.'.'.'.'.l.@                                                     ",
"                                  . ; t.:.H % . V n.n.L.[.'.'.)./.I.'.'.'.'.'.'.'.'.'.'.k.! '.'.'.'.].K.a .                                                     ",
"                                . . s 6 X . . X t.n.Z.).'.'.).h.A V.'.'.'.'.'.W./.'.).V.W Y '.[.'.'.L.;..                                                       ",
"                            . . . . . .     . R n.n.(.].E.9.W ^ 7.T.G./.).[.H.$.R.[.7.[ n.[ [.[.!.L.i.; #                                                       ",
"                            .             . 6 s.n.P.W.9.^ >.p.h $.5.n.(.)./.^ x.L.9.>.n.n.$.[.[.K.m.h .                                                         ",
"                                        . X e.n.V.8.@.s.n.n.e...*.n.Z.].T.U x.n.d.d.Q s.m.0.].J.n.R .   . $ j p o                                               ",
"                                        . ~ n.b.x.b.v.n.v.=.0 X 0.n.5.U j *.n.n.v.L < n.n.d.Z.n.[ X .   j S.).).f.- . .                   . . . . X X & O       ",
"                                      . L n.n.n.n.n.p.) , . . @ n.L - ! K = ~ q.6 . r n.n.m.n.[ . .   X F.I.' D - . d o.7             X . . < @ 1 c z k @       ",
"                                    . 0 x.n.n.b.=.C = . .   . s u.@ 0.(.].h.D - + . R n.n.n.) # .     X 2 < V [ . h B.(.Y . . . @ & 3 t 2 X n 5 o & o o .       ",
"                                  . i u.e.[ s @ . .         . o.) > R.].[.[.'.Q.U . *.n.s.V . .       , i.> w.n.- a 1.q & 4 l z z t 3 1 @ . g 7 . . .           ",
"                                . . - - X . . .           . = p.d B (.'.'.[.'.'.Q.a x.q.6 .           6 b.5 q.n.i 6 N x 3 4 : @ o . . X . . 0 p . @ . .         ",
"                                . . .                     . P n., X.L.[.'.'.'.'.D.F M X . . . # @ $ : 7 (.N 8.Q.` ' ].j.. .           . $ 5 a n h n * .         ",
"                                                        . X *.[ + @.Z.[.'.'.'.'.' @ . . $ 2 u l v l 4 @ T.<.G ).k.7 ).!.@             . 9 n n H P Q 5 .         ",
"                                                        . . . . X C n.(.[.[.'.'.4.1 c v k 4 : & @ . . . 4.F.X g.T.q ` } X             . , n s J _ _ 9 #         ",
"                                                      . . .   . . 6 n.C.).'.'.'.V.% & o o . .           % 7 . = 7 . . .               # % n d B _ &.Z .         ",
"                                                              . u @ =.n.L.'.'.].Q.6                                                   . @ n M T r.u.L .         ",
"                                                              . o X > $.t.~.N.A.m.N .                                                 . @ L T _ u.i.H #         ",
"                                                                      . @ +.X.X.u.6                                                   . > / E -.u.p.h .         ",
"                                                                          - d @ * .                                                   # > ( ( w.-.>., .         ",
"                                                                                                                                      . 9 / Q [  .>.#           ",
"                                                                                                                                      . 0 m E _ +.X..           ",
"                                                                                                                                      . p m / _ 0.C .           ",
"                                                                                                                                    . . n F +.:.M., .           ",
"                                                                                                                                    # , Z O.i.z.~ #             ",
"                                                                                                                                    # J E w.r.a.* #             ",
"                                                                                                                                  . i / +.>.-.i .               ",
"                                                                                                                                . + Q M %. .M #                 ",
"                                                                                                                                X M d Q ( d .                   ",
"                                                                                                                              . , 9 J ( i +                     ",
"                                                                                                                            . = 5 J J > .                       ",
"                                                                                                                          . X 5 H i # X                         ",
"                                                                                                                        . . , 5 X .                             ",
"                                                                                                                    . . . . # .                                 ",
"                                                                                                                . # . . .                                       ",
"                                                                                                                                                                ",
"                                                                                                                                                                ",
"                                                                                                                                                                ",
"                                                                                                                                                                ",
"                                                                                                                                                                "
};
