/* XPM */
static char *_ce13b3be2324419d72554240180e83eGO1rfOXKc6hue4Xg[] = {
/* columns rows colors chars-per-pixel */
"64 64 231 2 ",
"   c None",
".  c #010402",
"X  c #010403",
"o  c #020402",
"O  c #020403",
"+  c #020404",
"@  c #020504",
"#  c #030504",
"$  c #040605",
"%  c #040706",
"&  c #050707",
"*  c #060807",
"=  c #070907",
"-  c #060909",
";  c #07090A",
":  c #070A0A",
">  c #080A08",
",  c #080A09",
"<  c #0A0A08",
"1  c #080A0A",
"2  c #090A0B",
"3  c #0A0C0B",
"4  c #0C0D0B",
"5  c #080B0C",
"6  c #080C0C",
"7  c #0A0C0C",
"8  c #0B0E0D",
"9  c #0C0E0D",
"0  c #0C0F0F",
"q  c #0E0F0E",
"w  c #16130C",
"e  c #17150F",
"r  c #0E1010",
"t  c #0D1012",
"y  c #0F1212",
"u  c #0E1213",
"i  c #101312",
"p  c #111312",
"a  c #101313",
"s  c #111413",
"d  c #121412",
"f  c #171712",
"g  c #111414",
"h  c #111617",
"j  c #121617",
"k  c #1A1610",
"l  c #161817",
"z  c #1C1A12",
"x  c #181917",
"c  c #1F1C14",
"v  c #131718",
"b  c #14191B",
"n  c #151A1D",
"m  c #1C1C19",
"M  c #1D1C19",
"N  c #191C1D",
"B  c #181D1F",
"V  c #1C1E1E",
"C  c #1D1F1E",
"Z  c #1E1E1E",
"A  c #211D14",
"S  c #231F15",
"D  c #242019",
"F  c #2A251B",
"G  c #312B1E",
"H  c #181D21",
"J  c #1B2023",
"K  c #1F2120",
"L  c #1C2023",
"P  c #1B2025",
"I  c #1D2226",
"U  c #1F2427",
"Y  c #232323",
"T  c #232421",
"R  c #262623",
"E  c #232524",
"W  c #242726",
"Q  c #252827",
"!  c #282926",
"~  c #212528",
"^  c #242829",
"/  c #23292C",
"(  c #262C2F",
")  c #2D2D29",
"_  c #2B2D2D",
"`  c #2C2D2C",
"'  c #2D2D2D",
"]  c #362F22",
"[  c #31312C",
"{  c #30302E",
"}  c #262D31",
"|  c #293033",
" . c #2F3130",
".. c #2B3337",
"X. c #2E3439",
"o. c #313231",
"O. c #333431",
"+. c #303335",
"@. c #343434",
"#. c #353535",
"$. c #383836",
"%. c #31373C",
"&. c #30383D",
"*. c #383A39",
"=. c #3A3B3A",
"-. c #3A3D3E",
";. c #3D3F3F",
":. c #463A29",
">. c #49402E",
",. c #42423F",
"<. c #2F3641",
"1. c #343A40",
"2. c #3F4040",
"3. c #394046",
"4. c #39454A",
"5. c #3F464A",
"6. c #3F4A51",
"7. c #444443",
"8. c #474846",
"9. c #4A4A49",
"0. c #494B4A",
"q. c #4E4E4E",
"w. c #434E54",
"e. c #434D59",
"r. c #4F5050",
"t. c #47515A",
"y. c gray32",
"u. c #545554",
"i. c gray34",
"p. c #51595E",
"a. c #585A59",
"s. c #595D5E",
"d. c #5D5F5F",
"f. c #4A5660",
"g. c #4C5865",
"h. c #515E69",
"j. c #54616A",
"k. c #57656D",
"l. c #576474",
"z. c #586871",
"x. c #5C6C76",
"c. c #5F6F7B",
"v. c gray38",
"b. c #636464",
"n. c #646665",
"m. c #656666",
"M. c #6A6C6C",
"N. c #6F7070",
"B. c #68737A",
"V. c #717474",
"C. c #767777",
"Z. c #797A7A",
"A. c #7C7D7C",
"S. c #627081",
"D. c #667787",
"F. c #697A84",
"G. c #6C7F8B",
"H. c #788186",
"J. c #71848F",
"K. c #748893",
"L. c #758998",
"P. c #788D9A",
"I. c #7C8F9B",
"U. c #7B92A3",
"Y. c #808281",
"T. c #838484",
"R. c #85898A",
"E. c #8C8C8D",
"W. c #8E8F8E",
"Q. c #868C90",
"!. c #869196",
"~. c #8D989F",
"^. c #939494",
"/. c #979898",
"(. c #9A9B9B",
"). c #8194A0",
"_. c #8697A1",
"`. c #8197A5",
"'. c #899AA4",
"]. c #859BA9",
"[. c #869FAE",
"{. c #93A0A6",
"}. c #9BA1A5",
"|. c #97A6AD",
" X c #89A2B2",
".X c #8CA5B4",
"XX c #97AAB6",
"oX c #91ABBA",
"OX c #94AEBE",
"+X c #9CB1BD",
"@X c #A0A0A0",
"#X c #A3A5A5",
"$X c gray66",
"%X c #ACADAC",
"&X c #AFAFAE",
"*X c #A0ABB1",
"=X c #A7B4BC",
"-X c #B1B2B2",
";X c #B6B7B7",
":X c #BBBCBD",
">X c #99B3C3",
",X c #9CB7C7",
"<X c #9EBBCC",
"1X c #9FBBCC",
"2X c #A3B6C1",
"3X c #AFBEC6",
"4X c #A4BECD",
"5X c #ABBFCB",
"6X c #BEC0C0",
"7X c #B6C6CF",
"8X c #AFC4D0",
"9X c #B8CBD5",
"0X c #BECED7",
"qX c #C4C5C5",
"wX c #C4CACE",
"eX c #C8C9C8",
"rX c #CBCCCC",
"tX c #C3D1D7",
"yX c #CDD1D3",
"uX c #C9D4DA",
"iX c #CED8DC",
"pX c #D0D1D1",
"aX c gray83",
"sX c #D7D8D8",
"dX c #D6DBDE",
"fX c #D9DADA",
"gX c #D9DEDF",
"hX c #DEDFDF",
"jX c #E1E2E2",
"kX c #E4E4E4",
"lX c gray90",
/* pixels */
"                                                                                                                                ",
"                                                                                                                                ",
"                                                                                                                                ",
"                                                                                                                                ",
"                                                              .                                                                 ",
"                                                            . . .                                                               ",
"                                                              u r                                                               ",
"                                                      .       q K.8                                                             ",
"                                          +           . .     + `.j.+ +                                                         ",
"                                          * 0           u 8 - . w.OXF...*                                                       ",
"                                          p 3.u .       U 3.P + u oX,XU.&.p .                                                   ",
"                                          u c.t.N       u c.B.| j J.1X1X`.f.} 6                                                 ",
"                                          + f.1X`...+   . 4.[.oXI.U.1X<X<X,X.XF.w.j + .                                         ",
"                                          + ..1X1XI.t.u . b K.1X4X,X<X<X<X<X<X,X XJ.x.w.U j - + . + .                           ",
"                                            v ,X1X,X[.z.b + k.1X1X,X+X<X<X<X<X<X1X1X>X XP.F.x.t.4...^ H 6 . +                   ",
"                                            + P.1X2X3X1XoXk.%.,X1X8XwX}.].>X<X<X1X1X1X<X<X<X<X<X<X<X4X1XOXF.X.. .               ",
"                                            . w.1XXX*X0X1X1X.X,X8X4XtXjX:XH.B. X<X<X1X1X1X1X1X1X<X<X<X<X<X<X>Xj.6 .             ",
"                                              1 `.oX|.pXiX9X4X4XkXjXhXkXlXlXjX:X(.R.Q.].'.].].[. X.X.XoXOX>X,X4X>X4.v           ",
"                                    +         . t.,X.X#XkXgXtX8XjXlXlXlXlXlXlXlXlXjXrX;X^.Q.Q.!.~.~.{.|.=X=X3X0X9X|.p.v         ",
"                                    + .       . u OX X!.fXlXlXdXjXlXlXlXlXlXlXlXlXlXlXlXkXkXlXlXlXjXlXlXlXlXlXlXlXjX:Xa.1       ",
"                                    . L w.H & o . x..XI.:XkXlXlXlXlXlXlXlXlXlXlXlXlXlXlXlXlXlXlXlXlXlXlXlXlXlXlXlXlXlXeX*.o     ",
"                                  & . } I.J.h.I 1 X.F.j.}.fXlXlXlXlXlXlXlXlXlXlXlXlXlXlXlXlXlXlXlXlXlXlXlXlXlXlXlXlXlXjXd.u     ",
"                                1 A + u 4.g.x.G.J.x.F.V.N.;XlXlXlXlXlXlXlXlXlXfXyXaXlXlXlXlXlXlXlXlXlXlXlXlXlXlXlXlXlXlXE.W     ",
"                                + p | j.F.f./ 4 t.1X+XXXeXrXhXlXlXlXlXlXlX:XN.m p m.kXlXlXlXlXhXqXpXlXlXlXlXlXlXlXlXlXlXeX7.    ",
"                                j ].1X4XtXdXdX_.s {.5X5XdXlXlXlXlXlXlXsXb.T { u.y.m.lXlXlXpXN.a j p { E.jXlXlXlXlXlXlXlXsXu.8   ",
"                              1 I.9XuXjXlXlXlXjXd.Y.jXjXkXlXlXlXlXjX:Xn.$.q.u.7.:.A.lXlX-Xq.$.y.u.,.R R ^.fXlXlXlXlXlXlXjXb.s   ",
"                              <.2XgXlXlXlXlXlXpX1.V.6XkXkXkXlXlXlXeXM.{ y.9.$.@.a.3XlXlXM.=.q.i.i.,.[ ! y.:XlXlXlXlXlXlXlXN.x   ",
"                              D.yXkXlXlXlXlXlXE.| I.R.qXkXlXlXlXlX/...8.u.*.C 8.(.pXlXkXi.=.u.i.y.$.[ ) $.&XlXlXlXlXlXlXlXA.C   ",
"                            p F.7XlXlXlXlXlXjX! K.4XOX'.wXkXlXlXkXy.2.i.i.u.q.2.$.Z.kXlXV.$.8.8.$.[ [ R u.qXkXlXlXlXlXlXlXY.L   ",
"                            q ).8XsX6X#X:XfX#X1 w.,X4X7XaXkXlXlXaX@.y.i.i.i.i.i.9.n.kXlX;Xu.Q [ [ ) R ! (.fXkXkXlXlXlXlXlXZ.C   ",
"                            - 6.x.i.7.$.s.M.=.. u K.+X:XjXkXkXlX-X) i.i.i.i.i.i.q.n.kXlXhX-Xv.m k M $.C.aXlXlXlXlXlXlXlXlXM.x   ",
"                                . = D G / L.`.f.( X.c.~.rXkXkXlXC.*.i.i.i.i.i.i.q.n.kXlXlXlXlXkXsXhXlXlXlXlXlXlXlXlXlXlXhXd.q   ",
"                                    A ] + z.OX1X1X>X>X X#XsXlXlXa.7.i.i.i.i.i.i.q.m.lXlXlXlXlXlXlXlXlXlXlXlXlXlXlXlXlXlXsXy.q   ",
"                                    k G 1 j k.1X1X>XoX.XB.R.rXlXq.o.9.u.i.i.i.i.q.m.kXlXlXlXlXlXlXlXlXlXlXlXlXlXlXlXlXlX:X*.    ",
"                                    w F s . U [.1X2X*X{.Q.E.eXlXu.R $.7.q.y.u.i.q.m.kXlXlXlXlXlXlXlXlXlXlXlXlXlXlXlXlXlX^.^     ",
"                                    q D x   + 6. X9XgXlXlXlXlXlXN.S [ [ $.7.8.9.7.n.kXlXlXlXlXlXlXlXlXlXlXlXlXlXlXlXlXkXn.s     ",
"                                      c M     + / ].9XgXlXlXlXlX;XM [ [ [ [ [ [ ) m.lXlXlXhX;XZ.N.A.$XaXlXlXlXlXlXlXlXrX*.      ",
"                                      z D       + 5.).9XjXlXlXlXfX[ Q [ [ [ [ [ ) m.kXlXaXT.9.2.2.o.*.M.aXlXlXlXlXlXjX(.b       ",
"                                      e S a       u &.G.tXjXlXlXlXV.m ) [ [ [ [ R n.lXlXR.,.2.q.q.[ R ) @XjXlXlXlXfX(.=.        ",
"                                      + C ~ N & *   + 6 k.3XhXlXlXeXb.k ) R C 1 ) $XkXlXa.=.y.9.O.[ [ R A.aXlXlXhXq.q #         ",
"                                    *.$XgX7XOXN eX`     + I E.lXlXlXaXA.f f u 4 O.@XkXlXW.` T [ [ [ Q T @XkXfXC.j .             ",
"                                    ;.T.n.w.4./ -X/.Z     o 4 1.T.-XrXsX#Xb.8.O.R M.kXlXjX&XM.8.,.=.=.d.T.a.R .                 ",
"                                    M u.}.XX.Xf.n.$X@.        . + o.n.E.&X:X&XA.v.E.aXpXrXqX;XW.V.v.q._ - +                     ",
"                                    q.qX6X'.K.w.*./.T             + . u  .r.b.V.Z.Z.Z.C.M.d.0.Q l 1 + +                         ",
"  .                                  .v.b.1./ ~ 1 #.                                                                            ",
"  +                                 W M.-Xb.s._.L 1                                                                             ",
"  + +                               @./.rXM.8.dXk.                                                                              ",
"  + . +                               * % c f u.L                                                                               ",
"  + . *                                   S G .                                                                                 ",
"    6 j - +                               w ] .                                                                                 ",
"    - N N 0 &                             1 ] +                                                                                 ",
"    + n X.W n -                           = G q                                                                                 ",
"      6 %.w.1.3.U + +                     # S S                                                                                 ",
"        H e.t.w.e.( 8 + + +           # . # v ] .                                                                               ",
"        * } g.x.c.e.X.W I H v u 5 1 5 j p & 4 F +                                                                               ",
"          + ~ S.[.U.c.3.1.g.l.l.t.1.1.%./ 4 o & &                                                                               ",
"            & %.L. XU.S.h.h.l.g.g.%.%.%.%.| +.1.C +                                                                             ",
"              + I J._.).S.c.L.U.G.l.f.f.1.} N v 4 .                                                                             ",
"                . P p.H.D.D.L..X XU.S.l.0.b % 5 F +                                                                             ",
"                  + 5 J 6.h.z.K.L.G.l.e.X.h % 8 :.o                                                                             ",
"                          . 5 v J P N u 5 & o & :.u                                                                             ",
"                                              & S 5                                                                             ",
"                                                1                                                                               ",
"                                                                                                                                "
};
