/* XPM */
static char *_d7a0034081b49efc6c723c4384d2fc0flCKrORBM53Sxawt[] = {
/* columns rows colors chars-per-pixel */
"80 80 211 2 ",
"   c None",
".  c #010302",
"X  c #010303",
"o  c #020303",
"O  c #010403",
"+  c #020402",
"@  c #020403",
"#  c #010404",
"$  c #020404",
"%  c #030404",
"&  c #020504",
"*  c #030505",
"=  c #030506",
"-  c #050605",
";  c #050705",
":  c #050606",
">  c #070606",
",  c #090907",
"<  c #060908",
"1  c #090909",
"2  c #0A0B0B",
"3  c #0A0C0B",
"4  c #0B0D0F",
"5  c #0B0F0F",
"6  c #0C0D0C",
"7  c #0F100F",
"8  c #10100C",
"9  c #11110D",
"0  c #10100F",
"q  c #15120C",
"w  c #0E0F13",
"e  c #0E1213",
"r  c #111210",
"t  c #111212",
"y  c #141411",
"u  c #111414",
"i  c #131616",
"p  c #1B1711",
"a  c #171816",
"s  c #1E1D17",
"d  c #121719",
"f  c #141819",
"g  c #171B1C",
"h  c #1A1B19",
"j  c #191D1E",
"k  c #20211F",
"l  c #2A251B",
"z  c #302819",
"x  c #322B1F",
"c  c #1A1E20",
"v  c #1C2123",
"b  c #202323",
"n  c #232423",
"m  c #272726",
"M  c #262727",
"N  c #2A2B26",
"B  c #212729",
"V  c #232A2E",
"C  c #262C2F",
"Z  c #292B2A",
"A  c #2D2D28",
"S  c #393325",
"D  c #31312C",
"F  c #272D32",
"G  c #2F3130",
"H  c #2C3033",
"J  c #2A3134",
"K  c #27303B",
"L  c #2E3438",
"P  c #2F363B",
"I  c #343431",
"U  c #333635",
"Y  c #363735",
"T  c #31383E",
"R  c #383939",
"E  c #3B3E3D",
"W  c #3D3E3C",
"Q  c #423727",
"!  c #453C2B",
"~  c #3F403F",
"^  c #4A402F",
"/  c #353B41",
"(  c #373B40",
")  c #353E4C",
"_  c #3A4045",
"`  c #3B444B",
"'  c #3D454C",
"]  c #3E4850",
"[  c #424342",
"{  c #444645",
"}  c #474848",
"|  c #494948",
" . c #4B4C4B",
".. c #4E4F4E",
"X. c #434C55",
"o. c #465059",
"O. c #4A555E",
"+. c #505050",
"@. c #525353",
"#. c #515657",
"$. c #565656",
"%. c gray34",
"&. c #5A5B5A",
"*. c #5A5E5E",
"=. c #4A5767",
"-. c #4E5961",
";. c #545D62",
":. c #515C68",
">. c #525E6A",
",. c #5A6266",
"<. c #54636B",
"1. c #5D6569",
"2. c #58656D",
"3. c #556172",
"4. c #596576",
"5. c #5B6B73",
"6. c #5D6A79",
"7. c #5D6E7C",
"8. c #5F707D",
"9. c #606161",
"0. c #646666",
"q. c #6B6C6C",
"w. c #646C70",
"e. c #617078",
"r. c #64747C",
"t. c gray44",
"y. c #757777",
"u. c #7B7D7C",
"i. c #7F807F",
"p. c #627480",
"a. c #667882",
"s. c #667987",
"d. c #657489",
"f. c #6E7E88",
"g. c #6D808C",
"h. c #788185",
"j. c #74838C",
"k. c #708390",
"l. c #758893",
"z. c #748A99",
"x. c #798C99",
"c. c #7E8F98",
"v. c #7C93A1",
"b. c #818382",
"n. c #848484",
"m. c #888B8A",
"M. c #8E8F8E",
"N. c #939594",
"B. c #91999D",
"V. c #999998",
"C. c #9C9E9F",
"Z. c #8295A1",
"A. c #8298A8",
"S. c #859BA8",
"D. c #869DAB",
"F. c #829BAE",
"G. c #8CA2AF",
"H. c #89A2B3",
"J. c #8FA7B4",
"K. c #8FA8B8",
"L. c #91ABBA",
"P. c #93AEBE",
"I. c #9EAEBC",
"U. c #99B0BE",
"Y. c #A2A3A3",
"T. c gray65",
"R. c #A9ABAA",
"E. c #ACADAD",
"W. c #ABAEB0",
"Q. c #B1B1B1",
"!. c #B4B4B4",
"~. c #B4B6B8",
"^. c gray73",
"/. c #BCBEBD",
"(. c #96B1C0",
"). c #99B3C2",
"_. c #9BB7C7",
"`. c #9CB5C5",
"'. c #9EB9CA",
"]. c #9DBBCD",
"[. c #9EBBCC",
"{. c #9FBBCC",
"}. c #AAB6C1",
"|. c #A2BDCD",
" X c #B3BDC3",
".X c #A8C0CE",
"XX c #AFC2CE",
"oX c #B2C7D2",
"OX c #B8C8D1",
"+X c #C0C0C0",
"@X c #C1C2C2",
"#X c #C2C5C7",
"$X c gray77",
"%X c gray78",
"&X c #CBCCCB",
"*X c gray81",
"=X c #C1CFD8",
"-X c #CDD5D8",
";X c #CAD6DD",
":X c #D3D4D4",
">X c #D7D9D8",
",X c #D0D9DD",
"<X c #DBDCDC",
"1X c gray87",
"2X c #D6DCE0",
"3X c #DDE1E1",
"4X c #E0E1E1",
"5X c gray89",
"6X c #E4E5E4",
"7X c #E4E5E5",
"8X c gray90",
/* pixels */
"                                                                                                                                                                ",
"                                                                                                                                                                ",
"                                                                                                                                                                ",
"                                                                                                                                                                ",
"                                                                                                                                                                ",
"                                                                            O o % % = o o                                                                       ",
"                                                                = o = : d b Z ^ | ..{ I v i : % O                                                               ",
"                                                            O O , E n.^.*X2X3X7X8X8X6X8X1X:X^.u.I = %                                                           ",
"                                                          O i u.>X8X8X8X8X8X8X8X8X8X8X8X8X8X8X8X8X+XG O                                                         ",
"                                                        o u %X8X8X8X8X8X8X8X8X8X8X8X8X8X8X8X8X8X8X8X>X..O                                                       ",
"                                                      o 6 !.8X8X8X8X8X8X8X8X8X8X8X8X8X8X8X8X8X8X8X8X8X,X` O                                                     ",
"                                                      O t.8X8X8X8X8X8X8X8X8X8X8X8X8X8X8X8X8X8X8X8X8X8X4X(.F O                                                   ",
"                                                    O i 1X8X8X8X8X8X8X8X8X8X8X8X8X8X8X8X8X8X8X8X8X8X8X6X|.L.3 O                                                 ",
"                                                    O y.8X8X8X8X8X8X8X8X8X8X8X8X8X8X8X8X8X8X8X8X8X8X8X8X.X[.>.%                                                 ",
"                                                  o g :X8X8X8X8X8X8X8X8X8X8X8X8X8X8X8X8X8X8X8X8X8X8X8X8XU.[.(.j o                                               ",
"                                                  O 9.8X8X8X8X8X8X8X8X8X8X8X8X8X8X8X8X8X8X8X8X8X8X8X8X8XG.[.[.2.O                                               ",
"                                                  + /.<X!.%X8X8X8X8X8X8X8X8X8X4XM.{ [ n.1X8X8X8X8X8X8X8XS.[.[.J.O                                               ",
"                                                O i &XI 6 6 N.8X8X8X8X8X8X8X1X&.8 k b 8 | <X8X8X8X8X8X8Xc.[.[.[.u o                                             ",
"                                                O +.[ h D A r +X8X8X8X8X8X8Xi.8 D D D D y 0.8X8X8X8X8X8Xf.[.[.[.H O                                             ",
"                                                O n.1 A D D i q.8X8X8X8X8X8Xn m D D D D N i 5X8X8X8X8X8Xa.[.[.[./ %                                             ",
"                                                3 N.e D D I D R 8X8X8X8X8X<X, D D D [ ..| e &X8X8X8X8X6Xp.[.[.[.X.O                                             ",
"                                                h C.y D I +.} I 8X8X8X8X8X>X, D D | %.%.&.u $X8X8X8X8X6X7.[.[.[.<.O                                             ",
"                                              o I /.6 D | %.E { 8X8X8X8X8X8Xa N W %.%.%.+.8 1X8X8X8X8X8X2.].[.[.g.O                                             ",
"                                              % *.1Xr A +.%.b b.8X8X8X8X8X8X&.a  .%.%.%.U [ 8X8X8X8X8X8X2.[.[.[.S.:                                             ",
"                                              O i.8Xt.r ..W M >X8X8X8X8X8X8X:XZ H +.+.Y k %X8X8X8X8X8X8X;.[.[.[.L.7                                             ",
"                                              O N.8X1X,.u Z /.8X8X8X8X8X8X8X8X*X} u 8 W %X8X8X8X8X8X8X8X9.`.[.[.'.v O                                           ",
"                                              O Y.8X8X8X8X8X8X8X8X8X8X8X8X8X8X8X8X8X4X8X8X8X8X8X8X8X8X8Xb.J.[.[.'.o.O                                           ",
"                                              O Q.8X8X8X8X8X8X8X8X8X8X8X8X8X8X8X8X8X8X8X8X8X8X8X8X8X8X8XR.v.[.[.].k.%                                           ",
"                                              O !.6X5X6X6X5X5X5X5X5X5X5X5X5X5X5X5X8X8X8X4X6X5X8X8X8X8X8X&Xe.[.[.].(.:                                           ",
"                                              O !.{ m i.m.m m m m m m m M m m m M i.8XM.N M M +X8X8X8X8X4X;.[.[.].'.B o                                         ",
"                                              O !.R s I D n A A I ..............[ n :Xj { ..u $X8X8X8X8X8Xy.'.[.|.'.p.O                                         ",
"                                              % R.0.s 2 1 D D D Y %.%.%.%.%.%.%.%.u 9.c %.@.h :X8X8X8X8X8XR.H.[.[.].L.u O                                       ",
"                                              O V.E.8 8 i D D D I +.%.%.%.%.%.%.%.Y : } %.W ..8X8X8X8X8X8X1Xa.].].].[.<.O                                       ",
"                                              O b.1X6 h m D D D D +.%.%.%.%.%.%.%.+.j %.%.a R.8X8X8X8X8X8X8Xw.'.[.[.[.P.3 O                                     ",
"                                              O +.8X9.y D D D D D [ %.%.%.%.%.%.%.%.+.%.I R 8X8X8X8X8X8X8X8XE.H.].[.[.[.5.:                                     ",
"                                              O n 1X&Xa N D D D D I %.%.%.%.%.%.%.%.%.} u +X8X8X8X8X8X8X8X8X>Xj.|.[.[.[.).F O                                   ",
"                                                3 $X8X!.6 N D D D D { &.%.%.%.%.%.%.U a /.8X8X8X8X8X8X8X8X5X8XE._.].].].'.L.r %                                 ",
"                                                O b.8X5XM.e k D D D I +.%.%.%.%.[ h U /.8X8X8X8X8X8X8X8X8X2XoX,XJ.'.|.'.].].l.3 o                               ",
"                                                % Z 8X8X8X&X| r r h k Z Y Z h i [ Y.8X8X8X8X8X8X8X8X8X8X8X5X].[.'.'.).P k.(.].c.3 %                             ",
"                                                  : +X8X8X8X5X&XM.9.....&.y.T.&X8X8X8X8X8X8X8X8X8X8X8X3X5X8XXX].[.[.].P % j 2.A.l.u O                           ",
"                                                  + &.8X8X8X8X8X8X8X8X8X8X8X8X8X8X8X8X8X8X8X8X8X8X8X8X,X[.|.`.`.[.[.].x.O O O O 3 f O + o                       ",
"                                                    6 !.6X6X8X8X8X8X8X8X8X8X8X8X8X8X8X8X8X8X8X8X8X8X8X4X.X|.D.J j._.'.'.V O     O O O o O                       ",
"                                                    + F ;X6X8X8X8X8X9./.8X8X8X8X8X8X8X8X8X8X:X3X8X8X8X8X,X[.'.] % 3 X.v.G.g %                                   ",
"                                                      o x.;X6X8X8X8X#.;./.8X8X3X<X8X8X8X8X8X+X[ E.8X8X8X8XoX'.H.% % % ; v T O O                                 ",
"                                                      = u J.;X6X8X8Xr.[.r.V.6X2Xj.*X8X8X5X%X<XV.2.-.V.>X6X3X|.[.-.O     O O O O % O                             ",
"                                                        % T |.;X8X8Xj.[.].Z.C.-X).1.2X8X4X'.Z.h.( L.v.1.V.1X;X[.(.v o             %                             ",
"                                              1 I R r O   O :.'.=X4XZ.|.(.>.U.U.[.(.*.>X8XoX[.k.a.D.].].P.j.B. X[.D., O                                         ",
"      > 8 : : o O O o                   + O r T.5X8X%XR   O : e.[.oXU.]._.c o.`.[.[.l.W *.c.[.Z.: C x._.'.'._.(.'.[.<.O                                         ",
"      6 Q ^ ^ y 3 j : O %             n f.J O i ..t.:X%X:   o O p.'.'.[.[.C O V A.<.e @.1.u o.`.3 O O h 6.L.'.[.[.[.'.o.O                                       ",
"      = : , q , g ( + k S l y 3 O O O #.3XXXT O e.' a k :     o < 5.[.[.[.O.O o i  .E.6X3XZ.3 H.L O   % O e ] x.`.|.].`.V %                                     ",
"          O O o M P O 3 p l S ^ ^ ! x q Z m.P u ].D.a L.f       O O ] (.[.l.: &.<X8X8X8X8X,Xf 5.s.o         O % 3 P 8.S.H.F O                                   ",
"        o O 3 o H F O O % % O , 7 p z l E ~ v F [.A.j _.b           O b S.).H 1X8X8X8X8X6X3X` P P.e =           % % % < u u O %                                 ",
"        O 3 / / E L c 7 O           o % !.8Xq.0.<XB.~ 3XM s 8 6 : o o O + E } $X8X8X8X8X8X;Xa.g '.O.+                     O O O                                 ",
"        o c >.O.X./ / V O             1 3X4Xn ^.6X..m.>X3 x ! ^ ! S s 8 - - 6 q.8X8X8X8X6XoXg.< r.x.+ o                                                         ",
"        % V 6.6.o.P ( f %             : u.9.Z <XE.: &XM.O o O : q s x Q ^ ^ p M.8X8X8X8X2X|.o.O O O O O                                                         ",
"        O ] k.7.` P ( 3 O               O O : b u = v r           O % : , q , OX8X8X8X6XoX].j O O   O O +                                                       ",
"        = o.H.H.=./ / 2 =                                                   v <X8X8X6X-X[.x.3 S o                                                               ",
"        = X.J.H.7.=.o.e =                                                 O _ |.OX X<XH.j.u : , O                                                               ",
"        o P ).H.z.=.4.e O                                                   v G.s.s.d.6 %                                                                       ",
"        = g v.z.v.4.4.f O                                                   + w 2 K d                                                                           ",
"          % v.8.7.3.3.B O                                                                                                                                       ",
"          % s.d.6.:.( V O                                                                                                                                       ",
"          % ' Z.6.4./ H O                                                                                                                                       ",
"          % f }.v.s.' E : O                                                                                                                                     ",
"            % ,.(.H.f.] c =                                                                                                                                     ",
"            = e I.H.v.=.o.<                                                                                                                                     ",
"              o F x.F.p.3.F %                                                                                                                                   ",
"                % T 8.k.) :.< %                                                                                                                                 ",
"                  % P 4.:.P ( %                                                                                                                                 ",
"                    % V 4.-.v f %                                                                                                                               ",
"                      O u o.o.v 3 %                                                                                                                             ",
"                        % , F X.v < %                                                                                                                           ",
"                            O % j h O O                                                                                                                         ",
"                                % O : O O o                                                                                                                     ",
"                                      % O % % O                                                                                                                 ",
"                                                                                                                                                                ",
"                                                                                                                                                                ",
"                                                                                                                                                                ",
"                                                                                                                                                                ",
"                                                                                                                                                                "
};
