/* XPM */
static char *result[] = {
/* columns rows colors chars-per-pixel */
"32 32 223 2 ",
"   c #020403",
".  c #020504",
"X  c #030504",
"o  c #050707",
"O  c #070807",
"+  c #060908",
"@  c #070908",
"#  c #090A08",
"$  c #090B0A",
"%  c #080C0B",
"&  c #0C0D0A",
"*  c #0C0D0B",
"=  c #090C0C",
"-  c #090D0C",
";  c #0E0F0E",
":  c #0F110F",
">  c #12100B",
",  c #14130D",
"<  c #0C0F10",
"1  c #0E1010",
"2  c #0E1112",
"3  c #0F1212",
"4  c #0E1213",
"5  c #101314",
"6  c #121616",
"7  c #1B1913",
"8  c #1D1B16",
"9  c #13171A",
"0  c #141718",
"q  c #141A1B",
"w  c #171B1C",
"e  c #171B1D",
"r  c #171B1E",
"t  c #181A19",
"y  c #191B1B",
"u  c #1B1D1C",
"i  c #241F17",
"p  c #1F201C",
"a  c #1E201F",
"s  c #242017",
"d  c #232018",
"f  c #2D281D",
"g  c #1A1F21",
"h  c #1B1F23",
"j  c #1F2528",
"k  c #212323",
"l  c #2B2B27",
"z  c #212628",
"x  c #252A2E",
"c  c #2D2E2B",
"v  c #312F29",
"b  c #31312C",
"n  c #252D30",
"m  c #272D30",
"M  c #262E31",
"N  c #272E32",
"B  c #283033",
"V  c #2B3237",
"C  c #2B3138",
"Z  c #2D3438",
"A  c #2F373A",
"S  c #2F363B",
"D  c #323330",
"F  c #343534",
"G  c #373734",
"H  c #343636",
"J  c #363837",
"K  c #393A36",
"L  c #32383B",
"P  c #31383F",
"I  c #323A3E",
"U  c #363B3E",
"Y  c #393B38",
"T  c #3D3E3B",
"R  c #3B3C3C",
"E  c #3C3D3D",
"W  c #343D42",
"Q  c #343D43",
"!  c #353F43",
"~  c #374045",
"^  c #374145",
"/  c #3D484D",
"(  c #3D4751",
")  c #3F4950",
"_  c #434443",
"`  c #444545",
"'  c #444645",
"]  c #484847",
"[  c #4A4A49",
"{  c #4C4C4C",
"}  c #4D4E4C",
"|  c #4D4E4D",
" . c #434F55",
".. c #404C57",
"X. c #454F55",
"o. c #444F58",
"O. c #455158",
"+. c #4C5458",
"@. c #4E5558",
"#. c #4F575B",
"$. c #505150",
"%. c gray32",
"&. c gray33",
"*. c #555757",
"=. c gray34",
"-. c #575959",
";. c #5D5E5C",
":. c #5E605F",
">. c #4E5A61",
",. c #4E5B63",
"<. c #4F5D65",
"1. c #515E67",
"2. c #5B6060",
"3. c #5E6162",
"4. c #526069",
"5. c #53616C",
"6. c #56646F",
"7. c #556171",
"8. c #586871",
"9. c #596872",
"0. c #5A6976",
"q. c #606160",
"w. c #686A69",
"e. c #6A6A6A",
"r. c #6C6D6D",
"t. c #6D6F6E",
"y. c #6F706F",
"u. c #717373",
"i. c #727576",
"p. c #767777",
"a. c #787979",
"s. c #7C7E7E",
"d. c #657681",
"f. c #687A85",
"g. c #6A7B89",
"h. c #6E818D",
"j. c #6F828D",
"k. c #72828C",
"l. c #6F8392",
"z. c #728793",
"x. c #748996",
"c. c #778B97",
"v. c #798E9C",
"b. c #7C8F9C",
"n. c #808181",
"m. c #838484",
"M. c #898A89",
"N. c #8D8E8D",
"B. c #858C90",
"V. c #8F9090",
"C. c #8D9397",
"Z. c #86959F",
"A. c #939493",
"S. c #9C9D9D",
"D. c #9E9F9F",
"F. c #8798A1",
"G. c #8198A6",
"H. c #8D9FAA",
"J. c #9AA5AB",
"K. c #9CA8AF",
"L. c #89A1B0",
"P. c #8BA3B1",
"I. c #8CA6B4",
"U. c #93A8B4",
"Y. c #99ABB6",
"T. c #90AAB9",
"R. c #93ACBA",
"E. c #95ACB9",
"W. c #94AEBE",
"Q. c #9BB1BE",
"!. c #A1A1A0",
"~. c #A4A5A4",
"^. c #AAAAA9",
"/. c #A9AAAA",
"(. c gray67",
"). c #A3ACB1",
"_. c #AFB0B0",
"`. c #ABB8BF",
"'. c #B1B4B6",
"]. c #B5B6B6",
"[. c #B9B9B9",
"{. c #BCBCBC",
"}. c #BCBDBE",
"|. c #96B1C2",
" X c #98B3C3",
".X c #9DB5C3",
"XX c #9AB6C6",
"oX c #9CB8C8",
"OX c #9FB9CA",
"+X c #9EBBCC",
"@X c #A9BAC4",
"#X c #A2BDCC",
"$X c #AEC5D1",
"%X c #C0C2C3",
"&X c #C3C4C4",
"*X c #C6C6C6",
"=X c #C1C6C8",
"-X c #C3CACC",
";X c #C5CACD",
":X c #CBCCCC",
">X c #CDCDCD",
",X c #C1CFD7",
"<X c #C5D0D6",
"1X c #C9D1D6",
"2X c #CCD1D5",
"3X c #CDD4D7",
"4X c #CBD4D9",
"5X c #D1D2D2",
"6X c #D5D5D5",
"7X c #D1D5D8",
"8X c #D6D8D8",
"9X c #D2D8DC",
"0X c #D6DBDE",
"qX c #D9D9DA",
"wX c gray86",
"eX c #DDDDDD",
"rX c #DFDFDF",
"tX c #DBDEE1",
"yX c #E2E2E2",
"uX c #E2E3E3",
"iX c #E4E4E4",
"pX c gray90",
"aX c None",
/* pixels */
"aXaXaXaXaXaXaXaXaXaXaXaXaXt u aXaXaXaXaXaXaXaXaXaXaXaXaXaXaXaXaX",
"aXaXaXaXaXaXaXaXaXaXH n.(.[.{._.A.*.a aXaXaXaXaXaXaXaXaXaXaXaXaX",
"aXaXaXaXaXaXaXaXaXi.eXpXpXpXpXpXpXpX>XR aXaXaXaXaXaXaXaXaXaXaXaX",
"aXaXaXaXaXaXaXaX^ 3XpXpXpXpXpXpXpXpXpX{.= aXaXaXaXaXaXaXaXaXaXaX",
"aXaXaXaXaXaXaXr P.9XpXpXpXpXpXpXpXpXpXpX:.aXaXaXaXaXaXaXaXaXaXaX",
"aXaXaXaXaXaXaX8.XX2XpXpX&Xy.A.yXpXpXrX/.V.aXaXaXaXaXaXaXaXaXaXaX",
"aXaXaXaXaXaXaXj. X;XpXpXK c l ^.pXpXa.l Y k aXaXaXaXaXaXaXaXaXaX",
"aXaXaXaXaXaXaXx.|.=XpX6XJ [ D N.pXpX%.K K R aXaXaXaXaXaXaXaXaXaX",
"aXaXaXaXaXaXaXG.W.%XpXiX` &.T ~.pXpXe.{ ] w.aXaXaXaXaXaXaXaXaXaX",
"aXaXaXaXaXaX5 I.W.&XpXpX(.$.y.wXpXpX*X-.~.N.aXaXaXaXaXaXaXaXaXaX",
"aXaXaXaXaXaXB XXE.8XpXpXiXpXiXiXiXiXiXiXiXS.aXaXaXaXaXaXaXaXaXaX",
"aXaXaXaXaXaX1.+XY.iXpXu.=.S.%.-.-.&._ %.| p.aXaXaXaXaXaXaXaXaXaX",
"aXaXaXaXaXe P.+XJ.pXpXM.] D | =.=.| b p c s.aXaXaXaXaXaXaXaXaXaX",
"aXaXaXaXaX1.OXW.}.pXpXwX_ { =.=.=._ b c ;.t.aXaXaXaXaXaXaXaXaXaX",
"aXaXaXaXM  X+X`.0XpXpXpX].` | =.%.G c G &XE aXaXaXaXaXaXaXaXaXaX",
"aXaXaX! g./ L.#X,XuXpXpXiX>X!.e.] [ M.:X].1 aXaXaXaXaXaXaXaXaXaX",
"aXaX  $ . Q L.d. X9XpXuXpXpXpXpXeXrXpXuX3.aXaXaXaXaXaXaXaXaXaXaX",
"aXaXaXaX@ S q <.$XrX&X_.yXiX8XwXC.%XiXK.- aXaXaXaXaXaXaXaXaXaXaX",
"aXaXaXaXaXaXh U.`.H.c.F.4X'.Q.Z.T.-X@Xn aXaXaXaXaXaXaXaXaXaXaXaX",
"aXaXaXaXaX3 z.OXR.4.z f.2.+.v.A oX.XI O D.r.y Z aXaXaXX ; f i aX",
"aXaXaXaXaXo.d. .g aXj ~ 7X>Xm.>.G.W aX3 O.f.@.$.i s d & z @ X aX",
"aXaXaXaX. aXaXaXaXaX,.4.tXpXqX#.w : 8 a B.).a.} > aX. 0 A m aXaX",
"aXaXaXaXaXaXaXaXaX  6 N ,XpX5Xv s 7 , # q.q.' F aXaXaXx ) 7.4 aX",
"aXaXaXaXaXaXaXaXaXaXaX* k.1X<XL aXaXaXaXaXaXaXaXaXaXaXV 6.v.9 aX",
"aXaXaXaXaXaXaXaXaXaXaXaXaX..X.aXaXaXaXaXaXaXaXaXaXaXaX( g.h.aXaX",
"aXaXaXaXaXaXaXaXaXaXaXaXaXaXaXaXaXaXaXaXaXaXaXaXaXaXaXP 0.5.aXaX",
"aXaXaXaXaXaXaXaXaXaXaXaXaXaXaXaXaXaXaXaXaXaXaXaXaXaX+ ) b.U aXaX",
"aXaXaXaXaXaXaXaXaXaXaXaXaXaXaXaXaXaXaXaXaXaXaXaXaXaXC l.9.aXaXaX",
"aXaXaXaXaXaXaXaXaXaXaXaXaXaXaXaXaXaXaXaXaXaXaXaXaX< ) o.3 aXaXaX",
"aXaXaXaXaXaXaXaXaXaXaXaXaXaXaXaXaXaXaXaXaXaXaXaXo z P < aXaXaXaX",
"aXaXaXaXaXaXaXaXaXaXaXaXaXaXaXaXaXaXaXaXaXaXaX  % 2 aXaXaXaXaXaX",
"aXaXaXaXaXaXaXaXaXaXaXaXaXaXaXaXaXaXaXaXaXaXaXaXaXaXaXaXaXaXaXaX"
};
