/* XPM */
static char *c7725005be334759a881adbfb17161ed8ruNVpfHu7WCAAXM[] = {
/* columns rows colors chars-per-pixel */
"80 80 210 2 ",
"   c None",
".  c #010302",
"X  c #010303",
"o  c #020303",
"O  c #010403",
"+  c #020402",
"@  c #020403",
"#  c #010404",
"$  c #020404",
"%  c #030404",
"&  c #020504",
"*  c #030505",
"=  c #030506",
"-  c #050605",
";  c #050606",
":  c #070606",
">  c #050806",
",  c #090907",
"<  c #060908",
"1  c #090909",
"2  c #090B0B",
"3  c #0A0C0B",
"4  c #0B0D0F",
"5  c #0B0F0F",
"6  c #0D0D0C",
"7  c #0F100F",
"8  c #10100C",
"9  c #11110D",
"0  c #10100F",
"q  c #13120F",
"w  c #0F1111",
"e  c #0F1214",
"r  c #111212",
"t  c #121413",
"y  c #151512",
"u  c #111414",
"i  c #131616",
"p  c #1B1711",
"a  c #171816",
"s  c #1E1D17",
"d  c #121719",
"f  c #141819",
"g  c #171B1C",
"h  c #1A1B19",
"j  c #191D1E",
"k  c #20211E",
"l  c #2A251B",
"z  c #302819",
"x  c #322B1F",
"c  c #1A1E20",
"v  c #1D2124",
"b  c #202222",
"n  c #232423",
"m  c #272726",
"M  c #262727",
"N  c #2A2B26",
"B  c #222729",
"V  c #242B2F",
"C  c #292B2A",
"Z  c #2D2D28",
"A  c #2F302B",
"S  c #383226",
"D  c #3C3425",
"F  c #31312C",
"G  c #272D32",
"H  c #2B3033",
"J  c #2C3033",
"K  c #27303B",
"L  c #2D3338",
"P  c #2F363B",
"I  c #303231",
"U  c #353531",
"Y  c #333434",
"T  c #373838",
"R  c #31383E",
"E  c #3B3E3D",
"W  c #3D3E3C",
"Q  c #423726",
"!  c #453C2B",
"~  c #3F403F",
"^  c #4A402F",
"/  c #353B41",
"(  c #373B40",
")  c #353E4C",
"_  c #3A4045",
"`  c #3B444B",
"'  c #3D454C",
"]  c #3E4850",
"[  c #424342",
"{  c #444645",
"}  c #474848",
"|  c #494948",
" . c #4B4C4B",
".. c #4E4F4E",
"X. c #434C55",
"o. c #465059",
"O. c #4A555E",
"+. c #505050",
"@. c #535353",
"#. c #515557",
"$. c #565656",
"%. c gray34",
"&. c #5A5B5A",
"*. c #5A5E5E",
"=. c #4A5767",
"-. c #4E5961",
";. c #535D62",
":. c #515C68",
">. c #525E6A",
",. c #5B6266",
"<. c #54636B",
"1. c #5D6569",
"2. c #58656D",
"3. c #556172",
"4. c #596576",
"5. c #5B6B73",
"6. c #5D6A79",
"7. c #5D6E7C",
"8. c #5F707D",
"9. c #606161",
"0. c #646666",
"q. c #6B6C6C",
"w. c #646C70",
"e. c #617078",
"r. c #64747C",
"t. c gray44",
"y. c #757777",
"u. c #7B7D7C",
"i. c #7F807F",
"p. c #627480",
"a. c #667882",
"s. c #667987",
"d. c #657489",
"f. c #6E7E88",
"g. c #6D808C",
"h. c #788185",
"j. c #74838B",
"k. c #708390",
"l. c #758893",
"z. c #748A99",
"x. c #798C99",
"c. c #7E8F98",
"v. c #7C93A1",
"b. c #818382",
"n. c #848484",
"m. c #888B8A",
"M. c #8E8F8E",
"N. c #939594",
"B. c #91999D",
"V. c #999998",
"C. c #9C9E9F",
"Z. c #8295A1",
"A. c #8298A8",
"S. c #859BA8",
"D. c #869DAB",
"F. c #829BAE",
"G. c #8CA2AF",
"H. c #89A2B3",
"J. c #8FA7B4",
"K. c #8FA8B8",
"L. c #91ABBA",
"P. c #93AEBE",
"I. c #9EAEBC",
"U. c #99B0BE",
"Y. c #A2A3A3",
"T. c gray65",
"R. c #A9ABAA",
"E. c #ACADAD",
"W. c #ABAEB0",
"Q. c #B1B1B1",
"!. c #B4B4B4",
"~. c #B4B6B8",
"^. c gray73",
"/. c #BCBEBD",
"(. c #96B1C0",
"). c #99B3C2",
"_. c #9BB7C7",
"`. c #9CB5C5",
"'. c #9EB9CA",
"]. c #9DBBCD",
"[. c #9EBBCC",
"{. c #9FBBCC",
"}. c #AAB6C1",
"|. c #A2BDCD",
" X c #B3BDC3",
".X c #A8C0CE",
"XX c #AFC2CE",
"oX c #B2C7D2",
"OX c #B8C8D1",
"+X c #C0C0C0",
"@X c #C2C3C4",
"#X c gray77",
"$X c gray78",
"%X c #CBCCCB",
"&X c gray81",
"*X c #C1CFD8",
"=X c #CDD5D8",
"-X c #CAD6DD",
";X c #D3D4D4",
":X c #D7D9D8",
">X c #D0D9DD",
",X c #DBDCDC",
"<X c gray87",
"1X c #D6DCE0",
"2X c #DDE1E1",
"3X c #E0E1E1",
"4X c gray89",
"5X c #E4E5E4",
"6X c #E4E5E5",
"7X c gray90",
/* pixels */
"                                                                                                                                                                ",
"                                                                                                                                                                ",
"                                                                                                                                                                ",
"                                                                                              : 6 %                                                             ",
"                                                                                              0 Q :   O O o # # O % O %                                         ",
"                                                                                              = ^ , O % 6 j G ] o.X.R g % % % %                                 ",
"                                                                                              = ^ q O 2 / :.6.j.H.K.U.v.v.s.] f % %                             ",
"                                                                                              o p , O % / O.6.7.H.H.H.z.7.d.Z.}.,.e %                           ",
"                                                                                              O 3 g m H R X.o.` =.7.z.A.7.6.6.v.(.I.G %                         ",
"                                                                                              O c / P G Y / R P R =.=.4.3.-.4.s.H.H.z.P =                       ",
"                                                                                              O % = % O v E / / / o.4.4.3._ / ' g.F.F.8.P %                     ",
"                                                                                                % k 3 % 6 B f 7 2 7 e f B G J R ] =.p.g.4.G %                   ",
"                                                                                                % D p % O O % O % O % % O O O = g o.>.) -.4.t O                 ",
"                                                                                                  l l %                       O % < G >.P O.o.>                 ",
"                                                                                                  y D O                             % < / B o.G O               ",
"                                                                                                  3 ^ >                               % % f v X.%               ",
"                                                                                                  % ^ 7                                   O 3 v g %             ",
"                                                                                                  % ! p                                     % < g %             ",
"                                                                                                  O x z O                                     O O %             ",
"                                                                                                b #.q l % 2 %                                   % O %           ",
"                                                                                              O f.2XG E !.2Xu.O                                   O %           ",
"                                                                                              O L XXm.^ 7X2X9.O                                   O %           ",
"                                                                                              w O R L v q.B C %                                     %           ",
"                                            o % O O O O O O O O O O o O                     3 T.t O i G 0.^.,Xb                                     O           ",
"                                  O O O 6 h Y *.i.N.Y.Q.!.!.!.R.V.b.+.n 6 O o               Y 5X..e.].].1X4XE.r                                                 ",
"                            o O O i +.n.N.C./.<X7X7X7X7X5X{ T 0.R.<X7X<X#Xb.C % O           T 7Xt.' D.A.B.+.< O                                                 ",
"                        O O g 9./.%X[ 6 0 0 6 r t.<X7X7X5Xm s s q 6 9.%X7X7X7X#X%.6 O       r #X;Xh d j ^ m.%Xb                                                 ",
"                    o O i y.;X5X,XF h Z F F F Z q ,.7X7X5Xi.J 2 0 h y i Q.7X7X7X7X~.J O o   o T $Xk K.].1X1XM.0                                                 ",
"                  o 6 t.<X7X7X7X!.6 F F F U | +...y 7X7X5Xm.A , a m F N 6 M.7X7X7X5X-Xx.i %     = = g v N 3 o                                                   ",
"                O i !.7X7X7X7X7X#Xw Z F U +.%.%.W C 7X7X5Xm n A F F F F N 7 %X7X7X5X5X-XJ.R O O         s x o                                                   ",
"              O i #X7X7X7X7X7X7X7XN.r a F } E b m /.7X7X4Xm Z F F F F F F k | 5X7X7X7X5X-X|.:.= o       0 ! O                                                   ",
"              O u.7X7X7X7X7X7X7X7X7X+Xq.T Y { b.:X7X7X7X4Xm Z F F F F F F F 0 %X7X7X7X7X7X-X'.e.O o     2 ^ >                                                   ",
"            o , :X7X7X7X7X7X7X7X7X7X7X7X7X7X7X7X7X7X7X7X4Xm U U U F J J F F y M.7X7X7X7X7X5X*X].r.< #   % ! 8                                                   ",
"            o W 7X7X7X7X7X7X7X7X7X7X7X7X7X7X7X7X7X7X7X7X4Xm ..%.+...^ U F F s ,.7X7X7X7X7X7X5XoX'.5.O   o D s O                                                 ",
"            o n.7X7X7X7X7X7X7X7X7X7X7X7X7X7X7X7X7X7X7X7X4Xm ..%.%.%.%.%.| U k ..7X7X9.#.r.j.Z.U.'.].] O o s x o                                                 ",
"            = ^.7X7X7X7X7X7X7X7X7X7X7X7X7X7X7X7X7X7X7X7X4Xm ..%.%.%.%.%.%.+.C ..7X7X/.;.].].].{.'.].(.v o 9 Q ,                                                 ",
"            d &X7X7X7X7X7X7X7X7X7X7X7X7X7X7X7X7X7X7X7X7X4Xm ..%.%.%.%.%.%.%.Y &.7X7X7X/.r.].(._.].].{.S.= % ^ ,                                                 ",
"            c <X7X7X7X7X7X7X7X7X7X7X7X7X,X:X5X7X7X7X7X7X4Xm ..%.%.%.%.%.%.%.C y.7X7X7X7XV.Z.>.j V O.l.).E = ! 8   O                                             ",
"          = C 5X7X7X7X7X7X7X7X7X7X<Xi.n , , a &.;X7X7X7X4Xm ..%.%.%.%.%.%.%.h T.7X7X7X7X5XC.U.o.% O = J } 7 p , v _ v o                                         ",
"          = ^ 7X7X7X7X7X7X7X7X7X4X&.7 m A A N a C &X7X7X4Xm ..%.%.%.%.%.%.%.h %X7X7X7X2X1X=XU.`.V O &.<X#Xq.M.OX,X.XG.u                                         ",
"          o  .7X7X7X7X7X7X7X7X7XM.6 F F F F ~  .I } 7X7X4Xm [ %.%.%.%.%.%.[ [ 4X7X7X7X,Xj.).].|.D.i ,X7X7X7X7X7X4XOXs.2                                         ",
"          o ..7X7X7X7X7X7X7X7X7X{ b F F F } $.$...i 5X7X5Xi.b i Y +.%.%.%.h Y.7X7X7X7X7X&X1.(.].<. .7X7X7X7X7X7X7X Xa.K                                         ",
"          O { 7X7X7X7X7X7X7X7X7X~ n F F ^ %.%.%.+.r 5X7X7X7X;X9.= j @.%.Y Y 5X7X7X7X7X7X7X<X*.l.w E.7X7X7X7X7X7X5X,Xd.d                                         ",
"          O J 7X7X7X7X7X7X7X7X7Xn.0 F F #.%.%.%.Y W 7X7X5XM.j j } %.%.| a /.7X7X7X7X7X7X7X7X:XE +.4X7X7X7X7X7X7X=XG.4                                           ",
"          o b <X7X7X7X7X7X7X7X7X<X} t N  .%.+.Y B #X7X7X5Xm } %.%.%.Y i /.7X7X7X7X7X7X7X4X<X5X*.1.2X7X7X7X7X1XoX].j.%                                           ",
"            i ;X7X7X7X7X7X7X7X7X5X,X0.i w e r _ #X7X7X7X5Xm ..@.W a T +X7X7X7X7X7X7X7X7X+X'.oXc.i Z.>X2X-XoX].].x.i                                             ",
"            = ^.7X7X7X7X7X7X7X7X7X7X7X5X%X#X<X7X7X7X7X5X4Xm t h ..R.5X7X7X7X7X7X7X7X;X+X,XZ.'.].o.2 f ` a.f.o.c 3 =                                             ",
"            O i.7X7X7X7X7X7X7X7X7X7X7X7X7X7X7X7X7X7X7X5X5X+X@X;X7X7X7X7X7X7X7X7X7X7X2X[ V.h.l.Z._.H.5.R j < O O S ,                                             ",
"            O I 5X7X7X7X7X7X7X7X7X7X7X7X7X7X7X7X7X7X7X7X7X7X7X7X7X7X7X7X7X7X7X7X7X7X7XW.2.E a.= 2 L s.P.|.e.O % O %                                             ",
"              = @X7X7X5X7X7X7X7X7X7X7X7X7X7X7X7X7X7X7X7X7X7X7X7X7X7X7X7X7X7X7X7X7X7X7X4X-.L.D.V O O O t O.x.O                                                   ",
"              % I :X7X5X7X7X7X7X7X7X5X5X7X5X7X7X7X7X7X7X7X7X7X7X7X7X7X7X7X7X7X7X7X5X7X7XV.v.{.x.O     O O = % O                                                 ",
"                O ..>X4X5X7X7X7X7X7X7X5X5X5X7X7X7X7X7X7X7X7X7X7X7X7X7X7X7X7X7X2X>X4X7X7X:X1.{._.g o       o O O                                                 ",
"                  O ' P.|.|.U.G.S.c.f.a.r.7.2.2.;.,.h.R.%X3X5X5X7X7X7X7X7X7X7X4X]..X>X7X7XV.P.'.6.O           o                                                 ",
"                    O G L.].|.|.{.].].{.].{.].{.|.`.J.v.8.*.y.R.<X7X7X7X5X1X4X5X|.].'.oX2X<Xj.'.J.r                                                             ",
"                      % 2 >.P.].{.{.{.{.].].{.{.'.{.{.{.{.{._.H.a.w.E.:X5XoX].XX`.D.'.].|.-XB.`.].] O                                                           ",
"                        O O j 2.J.].{.{.{.].{.'.'.{.{.].{.{.{.{.].'.H.j.E.>X|.].`.J ] G.].]. X(.].x.O                                                           ",
"                            % O O t J / X.<.g.S.L.'.].].].'.'.].].'.].{._.J.'.{.].j.% > -.(.].'.].`.6 O                                                         ",
"                                  O O = O O % = w v o.k.(.|.].].].].{.{.{.{.'.].'.`.3 % % v D.].].|.P O                                                         ",
"                                                  O O % % B r.L.|.'.].{.{.{.P.].].|.X.O   O < <.'.].7.o                                                         ",
"                                                          % O i <.P.{.{.{.{.P R x.'.v.=     o O o.`.S.3                                                         ",
"                                                              O O 2 5.).{.{.g.% O V G.v O       O V H.i                                                         ",
"                                                                  O > G L.{.(.j O O h P O         % G e O                                                       ",
"                                                                      O e l.].2.O   O % O           O O o                                                       ",
"                                                                        & 2 c.A.%     O O             O O                                                       ",
"                                                                          O 2 l.2 O     O                                                                       ",
"                                                                            O i g o     O o                                                                     ",
"                                                                              O O O                                                                             ",
"                                                                                O o                                                                             ",
"                                                                                o O                                                                             ",
"                                                                                                                                                                ",
"                                                                                                                                                                ",
"                                                                                                                                                                ",
"                                                                                                                                                                ",
"                                                                                                                                                                ",
"                                                                                                                                                                ",
"                                                                                                                                                                ",
"                                                                                                                                                                ",
"                                                                                                                                                                ",
"                                                                                                                                                                ",
"                                                                                                                                                                "
};
