/* XPM */
static char *result[] = {
/* columns rows colors chars-per-pixel */
"32 32 224 2 ",
"   c #020403",
".  c #020504",
"X  c #030504",
"o  c #050707",
"O  c #070807",
"+  c #060908",
"@  c #070908",
"#  c #090A08",
"$  c #090B0A",
"%  c #080C0B",
"&  c #0C0D0A",
"*  c #0C0D0B",
"=  c #090C0C",
"-  c #090D0C",
";  c #0E0F0E",
":  c #12100B",
">  c #14130D",
",  c #0C0F10",
"<  c #0E1010",
"1  c #0F1110",
"2  c #0E1112",
"3  c #0E1213",
"4  c #0F1213",
"5  c #101314",
"6  c #121616",
"7  c #1B1913",
"8  c #1D1B16",
"9  c #13171A",
"0  c #141718",
"q  c #141A1B",
"w  c #171B1C",
"e  c #171B1D",
"r  c #171B1E",
"t  c #191B1B",
"y  c #221F17",
"u  c #1F201C",
"i  c #1E201F",
"p  c #242017",
"a  c #252117",
"s  c #232018",
"d  c #2D281D",
"f  c #1A1F21",
"g  c #1B1F23",
"h  c #1F2528",
"j  c #212323",
"k  c #2B2B27",
"l  c #212628",
"z  c #252A2E",
"x  c #2D2E2B",
"c  c #312F29",
"v  c #31312C",
"b  c #252D30",
"n  c #272D30",
"m  c #262E31",
"M  c #272E32",
"N  c #283033",
"B  c #2B3237",
"V  c #2B3138",
"C  c #2D3438",
"Z  c #2F363B",
"A  c #2F373B",
"S  c #323230",
"D  c #363632",
"F  c #343534",
"G  c #343636",
"H  c #373835",
"J  c #363837",
"K  c #383A36",
"L  c #32383B",
"P  c #31383F",
"I  c #323A3E",
"U  c #363B3E",
"Y  c #393B38",
"T  c #3B3C3B",
"R  c #3D3E3B",
"E  c #3C3D3D",
"W  c #343D42",
"Q  c #343D43",
"!  c #353F43",
"~  c #374045",
"^  c #374145",
"/  c #3D484D",
"(  c #3D4751",
")  c #3F4950",
"_  c #434443",
"`  c #444545",
"'  c #444645",
"]  c #484847",
"[  c #4A4A49",
"{  c #4B4B4B",
"}  c #4D4D4B",
"|  c #4D4E4C",
" . c #4D4E4E",
".. c #434F55",
"X. c #404C57",
"o. c #454F55",
"O. c #444F58",
"+. c #455158",
"@. c #4C5458",
"#. c #4E5558",
"$. c #4F575B",
"%. c #505150",
"&. c gray32",
"*. c gray33",
"=. c #555757",
"-. c gray34",
";. c #575959",
":. c #5D5E5C",
">. c #5E605F",
",. c #4E5A61",
"<. c #4E5B63",
"1. c #4F5D65",
"2. c #515E67",
"3. c #5B6060",
"4. c #5E6162",
"5. c #526069",
"6. c #53616C",
"7. c #56646F",
"8. c #556171",
"9. c #586871",
"0. c #596872",
"q. c #5A6976",
"w. c #606160",
"e. c #686A69",
"r. c #6A6A6A",
"t. c #6C6D6D",
"y. c #6D6F6E",
"u. c #70706F",
"i. c #717373",
"p. c #727576",
"a. c #767777",
"s. c #787979",
"d. c #7C7E7E",
"f. c #657681",
"g. c #687A85",
"h. c #6A7C87",
"j. c #697A8A",
"k. c #6E818D",
"l. c #6F828D",
"z. c #72828C",
"x. c #6F8392",
"c. c #728793",
"v. c #748996",
"b. c #778B97",
"n. c #798E9C",
"m. c #7C8F9C",
"M. c #808181",
"N. c #838484",
"B. c #898A89",
"V. c #8D8E8D",
"C. c #858C90",
"Z. c #8F9090",
"A. c #8D9397",
"S. c #86959F",
"D. c #939493",
"F. c #9C9D9D",
"G. c #9E9F9F",
"H. c #8798A1",
"J. c #8198A6",
"K. c #8D9FAA",
"L. c #9AA5AB",
"P. c #9CA8AF",
"I. c #89A1B0",
"U. c #8BA3B1",
"Y. c #8CA6B4",
"T. c #93A8B4",
"R. c #99ABB6",
"E. c #90AAB9",
"W. c #93ACBA",
"Q. c #95ACB9",
"!. c #94AEBE",
"~. c #9BB1BE",
"^. c #A1A1A0",
"/. c #A4A5A4",
"(. c #AAAAAA",
"). c gray67",
"_. c #A3ACB1",
"`. c #AFB1B1",
"'. c #ABB8BF",
"]. c #B1B4B6",
"[. c #B5B6B6",
"{. c #B9B9B9",
"}. c #BCBCBC",
"|. c #BCBEBF",
" X c #96B1C2",
".X c #98B3C3",
"XX c #9DB5C3",
"oX c #9AB6C6",
"OX c #9CB8C8",
"+X c #9FB9CA",
"@X c #9EBBCC",
"#X c #A9BAC4",
"$X c #A2BDCC",
"%X c #AEC5D1",
"&X c #C0C2C3",
"*X c #C3C4C4",
"=X c #C6C6C6",
"-X c #C1C6C8",
";X c #C3CACC",
":X c #C5CACD",
">X c #CCCDCD",
",X c #CECECE",
"<X c #C1CFD7",
"1X c #C5D0D6",
"2X c #C9D1D6",
"3X c #CCD1D5",
"4X c #CDD4D7",
"5X c #CBD4D9",
"6X c #D1D2D2",
"7X c #D5D5D5",
"8X c #D1D5D8",
"9X c #D6D8D8",
"0X c #D2D8DC",
"qX c #D6DBDE",
"wX c #D9D9DA",
"eX c gray86",
"rX c #DDDDDD",
"tX c #DFDFDF",
"yX c #DBDEE1",
"uX c #E2E2E2",
"iX c #E2E3E3",
"pX c #E4E4E4",
"aX c gray90",
"sX c None",
/* pixels */
"sXsXsXsXsXsXsXsXsXsXsXsXsXsXi =.D.`.}.{.).M.G sXsXsXsXsXsXsXsXsX",
"sXsXsXsXsXsXsXsXsXsXsXsXsXT >XaXaXaXaXaXaXaXrXp.sXsXsXsXsXsXsXsX",
"sXsXsXsXsXsXsXsXsXsXsXsX= }.aXaXaXaXaXaXaXaXaX4X^ sXsXsXsXsXsXsX",
"sXsXsXsXsXsXsXsXsXsXsXsX>.aXaXaXaXaXaXaXaXaXaX0XU.r sXsXsXsXsXsX",
"sXsXsXsXsXsXsXsXsXsXsXsXZ.(.tXaXaXuXD.u.*XaXaX3XoX9.sXsXsXsXsXsX",
"sXsXsXsXsXsXsXsXsXsXsXj Y k s.aXaX(.k x Y aXaX:X.Xl.sXsXsXsXsXsX",
"sXsXsXsXsXsXsXsXsXsXsXT K K &.aXaXV.S [ J 7XaX-X Xv.sXsXsXsXsXsX",
"sXsXsXsXsXsXsXsXsXsXsXe.] { r.aXaX/.R *.` pXaX&X!.J.sXsXsXsXsXsX",
"sXsXsXsXsXsXsXsXsXsXsXV./.;.=XaXaXeXu.%.).aXaX*X!.Y.5 sXsXsXsXsX",
"sXsXsXsXsXsXsXsXsXsXsXF.pXpXpXpXpXpXpXaXpXaXaX9XQ.oXN sXsXsXsXsX",
"sXsXsXsXsXsXsXsXsXsXsXa.} &._ *.;.;.&.F.-.i.aXpXR.@X2.sXsXsXsXsX",
"sXsXsXsXsXsXsXsXsXsXsXd.x u v  .-.-. .S ] B.aXaXL.@XU.e sXsXsXsX",
"sXsXsXsXsXsXsXsXsXsXsXy.:.x v _ -.-.-.{ _ eXaXaX|.!.+X2.sXsXsXsX",
"sXsXsXsXsXsXsXsXsXsXsXE *XH x D &.-. .` [.aXaXaXqX'.@X.Xm sXsXsX",
"sXsXsXsXsXsXsXsXsXsXsX< [.>XB.[ ] r.^.,XpXaXaXiX<X$XI./ h.! sXsX",
"sXsXsXsXsXsXsXsXsXsXsXsX4.iXaXtXrXaXaXaXaXiXaX0X.Xf.I.Q . $   sX",
"sXsXsXsXsXsXsXsXsXsXsXsX- P.pX&XA.eX9XpXuX`.*XtX%X1.q Z @ sXsXsX",
"sXsXsXsXsXsXsXsXsXsXsXsXsXb #X;XE.S.~.].5XH.b.K.'.T.g sXsXsXsXsX",
"sXsXp d ; X sXsXsXC t t.G.O I XXOXA n.@.3.g.l 5.W.+Xc.4 sXsXsXsX",
"sXsXX @ l & s y p %.#.g.+.1 sXW J.,.N.,X8X~ h sXf ..f.O.sXsXsXsX",
"sXsXsXn A 0 . sX: | s._.C.i 8 1 w $.wXaXyX5.<.sXsXsXsXsX. sXsXsX",
"sXsX3 8.) z sXsXsXF ' w.w.# > 7 a c 6XaX<XM 6   sXsXsXsXsXsXsXsX",
"sXsX9 n.7.B sXsXsXsXsXsXsXsXsXsXsXL 1X2Xz.* sXsXsXsXsXsXsXsXsXsX",
"sXsXsXk.j.( sXsXsXsXsXsXsXsXsXsXsXsXo.X.sXsXsXsXsXsXsXsXsXsXsXsX",
"sXsXsX6.q.P sXsXsXsXsXsXsXsXsXsXsXsXsXsXsXsXsXsXsXsXsXsXsXsXsXsX",
"sXsXsXU m.) + sXsXsXsXsXsXsXsXsXsXsXsXsXsXsXsXsXsXsXsXsXsXsXsXsX",
"sXsXsXsX0.x.V sXsXsXsXsXsXsXsXsXsXsXsXsXsXsXsXsXsXsXsXsXsXsXsXsX",
"sXsXsXsX4 O.) , sXsXsXsXsXsXsXsXsXsXsXsXsXsXsXsXsXsXsXsXsXsXsXsX",
"sXsXsXsXsX, P l o sXsXsXsXsXsXsXsXsXsXsXsXsXsXsXsXsXsXsXsXsXsXsX",
"sXsXsXsXsXsXsX2 %   sXsXsXsXsXsXsXsXsXsXsXsXsXsXsXsXsXsXsXsXsXsX",
"sXsXsXsXsXsXsXsXsXsXsXsXsXsXsXsXsXsXsXsXsXsXsXsXsXsXsXsXsXsXsXsX",
"sXsXsXsXsXsXsXsXsXsXsXsXsXsXsXsXsXsXsXsXsXsXsXsXsXsXsXsXsXsXsXsX"
};
