/* XPM */
static char *_eb18c1609db4477ee7b90256fd223bbPsfOIfUaWwhS018I[] = {
/* columns rows colors chars-per-pixel */
"80 80 209 2 ",
"   c None",
".  c #010302",
"X  c #010303",
"o  c #020303",
"O  c #010403",
"+  c #020402",
"@  c #020403",
"#  c #010404",
"$  c #020404",
"%  c #030404",
"&  c #020504",
"*  c #030505",
"=  c #030506",
"-  c #050605",
";  c #050606",
":  c #050706",
">  c #070606",
",  c #090907",
"<  c #060908",
"1  c #090909",
"2  c #0A0C0B",
"3  c #0B0D0F",
"4  c #0B0F0F",
"5  c #0D0D0C",
"6  c #0F100F",
"7  c #10100C",
"8  c #11110D",
"9  c #10100F",
"0  c #14130E",
"q  c #0E1213",
"w  c #111210",
"e  c #111212",
"r  c #131312",
"t  c #111414",
"y  c #131616",
"u  c #1B1711",
"i  c #171816",
"p  c #1E1D17",
"a  c #121719",
"s  c #141819",
"d  c #171B1C",
"f  c #1A1B19",
"g  c #191D1E",
"h  c #20211F",
"j  c #2A251B",
"k  c #322A1C",
"l  c #1A1E20",
"z  c #1C2123",
"x  c #202323",
"c  c #232423",
"v  c #272726",
"b  c #2B2B26",
"n  c #232728",
"m  c #232A2F",
"M  c #292A29",
"N  c #2C2D2A",
"B  c #282C2C",
"V  c #302C21",
"C  c #2F302B",
"Z  c #383226",
"A  c #3C3425",
"S  c #31312C",
"D  c #272D32",
"F  c #2A3033",
"G  c #2C3033",
"H  c #27303B",
"J  c #2D3338",
"K  c #2F363B",
"L  c #303231",
"P  c #353430",
"I  c #333434",
"U  c #363735",
"Y  c #31383E",
"T  c #383938",
"R  c #3B3E3D",
"E  c #3E3F3D",
"W  c #423726",
"Q  c #453C2B",
"!  c #4A402F",
"~  c #353B41",
"^  c #373B40",
"/  c #353E4C",
"(  c #3A4045",
")  c #3B444B",
"_  c #3D454C",
"`  c #3E4850",
"'  c #424342",
"]  c #444645",
"[  c #474848",
"{  c #494948",
"}  c #4B4C4B",
"|  c #4E4F4E",
" . c #434C55",
".. c #465059",
"X. c #4A555E",
"o. c #505050",
"O. c #525353",
"+. c #515657",
"@. c #565656",
"#. c gray34",
"$. c #5A5B5A",
"%. c #5A5E5E",
"&. c #4A5767",
"*. c #4E5961",
"=. c #545D62",
"-. c #515C68",
";. c #525E6A",
":. c #5A6266",
">. c #54636B",
",. c #5D6569",
"<. c #58656D",
"1. c #556172",
"2. c #596576",
"3. c #5B6B73",
"4. c #5D6A79",
"5. c #5D6E7C",
"6. c #5F707D",
"7. c #606161",
"8. c #646666",
"9. c #6B6C6C",
"0. c #646C70",
"q. c #617078",
"w. c #64747C",
"e. c gray44",
"r. c #757777",
"t. c #7B7D7C",
"y. c #7F807F",
"u. c #627480",
"i. c #667882",
"p. c #667987",
"a. c #657489",
"s. c #6E7E88",
"d. c #6D808C",
"f. c #788185",
"g. c #74838C",
"h. c #708390",
"j. c #758893",
"k. c #738899",
"l. c #788B99",
"z. c #7B8E99",
"x. c #7C93A1",
"c. c #818382",
"v. c #848484",
"b. c #888B8A",
"n. c gray55",
"m. c #8E8F8E",
"M. c #819095",
"N. c #949594",
"B. c #91989D",
"V. c #999998",
"C. c #9C9E9F",
"Z. c #8295A1",
"A. c #849AA8",
"S. c #869DAB",
"D. c #829BAE",
"F. c #8CA2AF",
"G. c #89A2B3",
"H. c #8FA7B4",
"J. c #8FA8B8",
"K. c #91ABBA",
"L. c #93AEBE",
"P. c #9EAEBC",
"I. c #99B0BE",
"U. c #A2A3A3",
"Y. c gray65",
"T. c #A9ABAA",
"R. c #ABAEAF",
"E. c #ACADAD",
"W. c #B1B1B1",
"Q. c #B4B4B4",
"!. c #B4B6B8",
"~. c gray73",
"^. c #BCBEBD",
"/. c #96B1C0",
"(. c #99B3C2",
"). c #9BB7C7",
"_. c #9CB5C5",
"`. c #9EB9CA",
"'. c #9DBBCD",
"]. c #9EBBCC",
"[. c #9FBBCC",
"{. c #AAB6C1",
"}. c #A2BDCD",
"|. c #B3BDC3",
" X c #A8C0CE",
".X c #AFC2CE",
"XX c #B2C7D2",
"oX c #B8C8D1",
"OX c #C0C0C0",
"+X c #C2C3C4",
"@X c gray77",
"#X c gray78",
"$X c #CBCCCB",
"%X c gray81",
"&X c #C1CFD8",
"*X c #CDD5D8",
"=X c #CAD6DD",
"-X c #D3D4D4",
";X c #D7D9D8",
":X c #D0D9DD",
">X c #DBDCDC",
",X c gray87",
"<X c #D6DCE0",
"1X c #DDE1E1",
"2X c #E0E1E1",
"3X c gray89",
"4X c #E5E5E4",
"5X c #E4E5E5",
"6X c gray90",
/* pixels */
"                                                                                                                                                                ",
"                                                                                                                                                                ",
"                                                                                                                                                                ",
"                                                                                                                                                                ",
"                                                                                                                                                                ",
"                                                                                                                                                                ",
"                                                                                                                                                                ",
"                                                                                                                                                                ",
"                                                                                                                                                                ",
"                                                                                                                                                                ",
"                                                                                                                                                                ",
"                                                                            @ o                                                                                 ",
"                                                                            o @                                                                                 ",
"                                                                            @ @ @                                                                               ",
"                                                                    o @     @ s t &                                                                             ",
"                                                                      @     o 2 j.2 o                                                                           ",
"                                                      o @             @ @     @ A.z.2 &                                                                         ",
"                                                      o @ @           @ @ &   @ <.].j.q &                                                                       ",
"                                                      @ t D @         @ K d o o l /.].K.D & $                                                                   ",
"                                                        t G.m @       o z F.m o & h.].].(.3.2 $ @                                                               ",
"                                                        < A._...@ o     ; x.`.l.K K }.].].].K.>.t @ $                                                           ",
"                                                        @ 5.].].>.< o   o  .`.].]./.].].].].].}.K.w.n & $ & o                                                   ",
"                                                        @ K ].].].S.z @ $ 4 `.].].`.].].].].].].].].]./.h...z 6 & @ @ @ @ @ o                                   ",
"                                                        @ 4 ).].].]./.*.; $ s.].].`.H.).].].].].].].].].].].].K.A.d.>. .~ F t @ @ o                             ",
"                                                          @ l.]./.|.].].F._ G _.].].:XR.g.G.}.`.].].].].].].].].].].].].}.].].H.<.g @ @                         ",
"                                                          @ ` ].).B.=X}.].].S._..X}.XX3X;XR.0.i.G.].].'.].].].].].].].].].].].].].I.;.2 @                       ",
"                                                            q J.].g.>X1XXX}.].}.6X3X<X3X3X6X6X2XT.r.=.0.x.H._.}.].].].].].].].].}.].}.K.D @                     ",
"                                                o           @ 4.`.L.V.5X5X:X}.}.3X6X6X6X6X6X6X6X5X5X2X$XT.c.7.=.<.<.5.u.i.s.z.A.G.P.}.}./.) @                   ",
"                                                @ @ o       o d ).].,.;X5X5X3X:X3X3X5X6X6X6X6X6X5X5X6X6X6X6X6X6X6X6X6X3X5X5X5X5X6X6X6X5X3X:X| o                 ",
"                                                @ @ & @ o     @ l.].x.V.5X5X5X6X6X6X5X6X6X6X6X6X5X5X6X6X6X6X6X6X6X6X6X6X5X5X6X5X6X6X6X6X4X5X;XL &               ",
"                                                  @ l.X.q @ @ @ m S.K.=.3X6X6X6X6X6X6X6X6X6X6X6X6X6X6X6X6X6X6X6X6X6X6X6X6X6X6X6X6X6X5X5X5X5X5X@X&               ",
"                                            @ o o @ w.].L.p.J 2 ; i.^ <.E.6X6X6X6X6X6X6X6X6X6X6X6X6X6X6X6X6X6X6X6X6X6X6X6X6X6X6X6X6X6X5X5X5X5X5XL @             ",
"                                            , Z @ @ < g Y 3.G.`.Z.j.s.V.' 3X4X4X6X6X6X6X6X6X6X6X-X+XOX6X6X6X6X6X6X6X6X6X6X6X6X6X6X6X6X6X6X6X6X6Xy.o             ",
"                                            ; 2 g ..d.i.) s 1 ..].].Z.;XOX-X4X4X6X6X6X6X6X5XE...f t v 3X4X4X6X6X3X2X@X$X3X6X6X6X6X6X6X6X6X6X6X6X~.;             ",
"                                            y l.].].XX=X1X:XZ.t M.XX].+X4X4X4X4X6X6X6X6XOXT i Q O.| v 3X4X4X4X#X' e t 9 y 8.,X3X6X6X6X6X6X6X6X6X-Xt             ",
"                                          % g.].XX<X5X5X5X5X1X,.%.5X2X2X6X4X4X4X6X6X6X^.y I #.#.#.{ v 3X4X4X#Xc I o.#.} b y { <X6X6X6X6X6X6X6X6X>Xc o           ",
"                                          4 F.*X5X5X5X5X5X5X5XO.R ;X6X6X6X6X6X6X5X5X^.i { #.@.{ l l n.4X4X4X^ U #.#.@.o.S S 0 v.6X6X6X6X6X6X6X6X5XI o           ",
"                                        y a.<X5X5X5X6X6X5X5XE.w j.%.2X3X6X6X6X6X5X5XI I @.O.g ; =.-X4X4X4X3X9 o.#.#.#.' S S c ' 6X6X6X6X6X6X6X6X5X] o           ",
"                                        H i.|.6X6X6X6X6X5X5X} >.}./.,.%X6X6X6X6X5XU.f @.#.#.o.U y c y.4X4X6Xt | #.#.{ S S C h ' 6X6X6X6X6X6X6X6X5X| o           ",
"                                        4 p.oX5X6X6X6X6X5X>Xt A.}.`.(.g.,X6X6X6X3X' ' #.#.#.#.#.#.' v 3X6X6X{ L  .Q S S S C 0 m.6X6X6X6X6X6X6X6X5X| o           ",
"                                        q F. X;XOXm.9.+X>X$.@ m (./.*X<X3X3X5X6X$Xi #.#.#.#.#.#.#.o.v 3X6X6X%XN f M C C v 9 $.2X6X6X6X6X6X6X6X6X5XE o           ",
"                                        @ z ( z 5 u 4 { G ; & @ ../.C.4X5X6X6X6XY.f #.#.#.#.#.#.#.o.v 3X6X6X6X-X#.f , 1 c y.2X3X6X6X6X6X6X6X6X6X5XM @           ",
"                                            @   0 ! & ~ (.j.X.B l -.Z.V.6X6X6X6Xr.M #.#.#.#.#.#.#.| v 3X6X6X6X6X3X6X;X,X6X6X3X3X6X6X6X6X6X6X6X6X>Xh             ",
"                                                , ! ; @ A.[.[.[._./.}.w.^.6X6X6X$.I #.#.#.#.#.#.#.| v 3X6X6X6X6X6X6X6X6X6X6X6X6X6X6X6X6X6X6X6X6X%Xt             ",
"                                                , W 7 o x /.].].].}.}.`.=.|.6X6Xo.M @.#.#.#.#.#.#.| v 3X6X6X6X6X6X6X6X6X6X6X6X6X6X6X6X6X6X6X5X5X~.;             ",
"                                                % k p o $ _ ].]./.Z.g.u.@.7.6X6Xo.h S [ #.#.#.#.#.| v 3X6X6X6X6X6X6X6X6X6X6X6X6X6X6X6X6X6X6X6X5Xv.@             ",
"                                                % p Z &   & 3.].XX3X6X6X3X6X6X6X7.f S S S ! ..O.#.o.v 3X6X6X6X6X6X6X6X6X6X6X6X6X6X6X6X6X6X6X5X5XR o             ",
"                                                  4 Q &   o < w.`.&X3X6X5X6X6X6Xn.9 S S S S S I P I v 3X6X6X6X6X6X6X6X6X6X6X6X6X6X6X6X6X6X6X5X;X, o             ",
"                                                  ; ! 2     o @ 0.}.=X4X6X6X6X6X$X9 S S S S S S S b v 3X6X6X6X;Xv.] I T 9.OX4X5X6X6X6X6X6X6X3Xt.o               ",
"                                                  @ Q w       o & -.}.=X4X6X6X6X4X{ h S S S S S S b v 3X6X6X^.n z E [ S i 9 N.6X6X6X6X6X6X6X#Xy @               ",
"                                                  @ k p         & $ Y H.=X5X4X6X4X$X9 v S S S S C c v 3X5X5XM E #.#.o.P S N 9 #X6X6X4X4X4XQ.y o                 ",
"                                                  @ 2 v z d & ;     % y z.=X4X5X5X5Xm.5 b S v i , C b.4X5X3Xt | O.{ I S S S 5 Q.6X5X5X,Xe.7 o                   ",
"                                                9 m.;X1X).K.h #XT $   o @ G Q.5X5X5X5XQ.i r f 8 2 L y.5X5X5X7.0 b S S S N f L >X4X-Xr.y @ o                     ",
"                                                c $Xb.R g a f -X#Xt       @ 4 #.@X5X4X3X$X7.4 9 p p v 3X6X6X,Xe.9 5 0 9 2 ' $X^.:.d + o                         ",
"                                                @ < o.B.A.S._ e.5XT           @ ; N c.@X>X5X>XT.8.T ] 5X6X3X5X5X>X^.C.N.v.o.y + @ o                             ",
"                                                q E.3X>X].].q.| 3XL               + o 2 c O.c.V.T.Q.Q.Q.Q.U.N.y.%.I f 2 @ @ o                                   ",
"          o                                     z >X~.8.D y @ y Y.1                     @ o @ @ & @ @ @ @ @ @ @ ; o                                             ",
"          &                                     ; b c 9.z J Y o w                                                                                               ",
"          & o                                   @ :.3X4X( b..XK @                                                                                               ",
"          & @                                   + t.1XQ.R B 1Xs.@                                                                                               ",
"          & o @                                   ; 1 & j 0 +.z                                                                                                 ",
"            & @ @                                     o k k &                                                                                                   ",
"            & d < &                                     u Q o                                                                                                   ",
"            $ g l 4 @                                   9 ! &                                                                                                   ",
"              &  .l a & $                               , ! 2                                                                                                   ",
"              & D ..n ~ < &                             @ A w                                                                                                   ",
"                ; ..X.J -.D < $ @                       & j j                                                                                                   ",
"                $ t 2.-./ ;...d ; @ o & o o $ $ o & @ @ $ u A &                                                                                                 ",
"                  & D 2.h.u.&.` Y J D n d q 4 2 4 a v q $ 2 h @                                                                                                 ",
"                    $ K u.D.D.s.) R ^ 1.2.2...~ ^ ~ ~ l o @ ; & o                                                                                               ",
"                      & K k.G.G.p.2.*.1.2.&.&.K K K ~ P D K ~ l @                                                                                               ",
"                        = D P.L.x.4.4.5.A.k.5.&._ .. .~ G n d 2 @                                                                                               ",
"                          @ q :.{.Z.a.5.l.G.G.G.5.4.X.~ o @ < 0 o                                                                                               ",
"                            & & d ` p.x.x.P.H.G.h.4.;.~ 2 @ 0 ! ;                                                                                               ",
"                                o o & & d ~  ...` D g 1 @ @ , ! ;                                                                                               ",
"                                        o $ ; @ & $ o o o   ; W 9                                                                                               ",
"                                                            o 4 ;                                                                                               ",
"                                                                                                                                                                ",
"                                                                                                                                                                ",
"                                                                                                                                                                "
};
