/* XPM */
static char *a5208510cdc74d028d4937adc3eba544G7JRJFeB50Iklxih[] = {
/* columns rows colors chars-per-pixel */
"64 64 230 2 ",
"   c None",
".  c #010403",
"X  c #020402",
"o  c #020403",
"O  c #020404",
"+  c #020504",
"@  c #030504",
"#  c #040605",
"$  c #040706",
"%  c #050707",
"&  c #070706",
"*  c #070907",
"=  c #080907",
"-  c #060909",
";  c #07090A",
":  c #070A0A",
">  c #070A0C",
",  c #080909",
"<  c #080A09",
"1  c #0A0A08",
"2  c #090A0B",
"3  c #0A0C0B",
"4  c #0C0D0B",
"5  c #080C0C",
"6  c #0A0C0C",
"7  c #0B0E0D",
"8  c #0C0E0D",
"9  c #0C0F0F",
"0  c #0E0F0E",
"q  c #16130C",
"w  c #17150F",
"e  c #0E1010",
"r  c #0C1112",
"t  c #0F1212",
"y  c #0E1213",
"u  c #101312",
"i  c #111312",
"p  c #101213",
"a  c #101313",
"s  c #121412",
"d  c #171712",
"f  c #111414",
"g  c #111617",
"h  c #121617",
"j  c #1A1610",
"k  c #161817",
"l  c #1C1A12",
"z  c #181917",
"x  c #1F1C14",
"c  c #131718",
"v  c #14191B",
"b  c #151A1D",
"n  c #1C1C19",
"m  c #1D1C19",
"M  c #191D1D",
"N  c #181D1F",
"B  c #1C1E1E",
"V  c #1D1F1E",
"C  c #1E1E1E",
"Z  c #211D14",
"A  c #231F15",
"S  c #242019",
"D  c #2A251B",
"F  c #312B1E",
"G  c #181D21",
"H  c #1B2023",
"J  c #1F2120",
"K  c #1C2023",
"L  c #1B2025",
"P  c #1D2226",
"I  c #1F2427",
"U  c #232323",
"Y  c #232421",
"T  c #262623",
"R  c #232524",
"E  c #242726",
"W  c #272825",
"Q  c #252827",
"!  c #212528",
"~  c #242829",
"^  c #23292C",
"/  c #2A2B28",
"(  c #2D2D29",
")  c #2B2D2D",
"_  c #282C2E",
"`  c #2D2D2D",
"'  c #362E22",
"]  c #31312C",
"[  c #30302E",
"{  c #262D31",
"}  c #293033",
"|  c #2F3130",
" . c #2B3337",
".. c #2E3439",
"X. c #313231",
"o. c #333431",
"O. c #303335",
"+. c #343434",
"@. c #353535",
"#. c #383836",
"$. c #31373C",
"%. c #30383D",
"&. c #383A39",
"*. c #3A3B3A",
"=. c #3A3D3E",
"-. c #3D3F3F",
";. c #463A29",
":. c #49402E",
">. c #42423F",
",. c #2F3641",
"<. c #343A40",
"1. c #3F4040",
"2. c #394046",
"3. c #39454A",
"4. c #3F464A",
"5. c #3F4A51",
"6. c #444443",
"7. c #474846",
"8. c #4A4A49",
"9. c #494B4A",
"0. c #4E4E4E",
"q. c #434E54",
"w. c #434D59",
"e. c #4F5050",
"r. c #47515A",
"t. c #4A555F",
"y. c gray32",
"u. c #545554",
"i. c gray34",
"p. c #53595D",
"a. c #585A5A",
"s. c #5D5F5E",
"d. c #5D5F5F",
"f. c #4B5862",
"g. c #4D5A69",
"h. c #525F69",
"j. c #54616A",
"k. c #57656D",
"l. c #576474",
"z. c #586871",
"x. c #5C6C76",
"c. c #5F6F7B",
"v. c gray38",
"b. c #636464",
"n. c #646665",
"m. c #656666",
"M. c #6A6C6C",
"N. c #6F7070",
"B. c #68737A",
"V. c #717474",
"C. c #767777",
"Z. c #797A7A",
"A. c #7C7D7C",
"S. c #627081",
"D. c #667787",
"F. c #697A84",
"G. c #6C7F8B",
"H. c #788186",
"J. c #71848F",
"K. c #748893",
"L. c #758998",
"P. c #788D9A",
"I. c #7C8F9B",
"U. c #7B92A3",
"Y. c #808281",
"T. c #838484",
"R. c #85898A",
"E. c #8C8C8D",
"W. c #8E8F8E",
"Q. c #868C90",
"!. c #869196",
"~. c #8D989F",
"^. c #939494",
"/. c #979898",
"(. c #9A9B9A",
"). c #8194A0",
"_. c #8697A1",
"`. c #8197A5",
"'. c #899AA4",
"]. c #859BA9",
"[. c #869FAE",
"{. c #93A0A6",
"}. c #9BA1A5",
"|. c #97A6AD",
" X c #89A2B2",
".X c #8CA5B4",
"XX c #93ABB9",
"oX c #94AEBE",
"OX c #9CB1BD",
"+X c #A0A0A0",
"@X c #A5A6A6",
"#X c #ABACAC",
"$X c #AFAFAE",
"%X c #A0ABB1",
"&X c #A7B4BC",
"*X c #B1B2B2",
"=X c #B6B7B7",
"-X c #BBBCBD",
";X c #99B3C3",
":X c #9CB7C7",
">X c #9EBBCC",
",X c #9FBBCC",
"<X c #A3B6C1",
"1X c #AFBEC6",
"2X c #A4BECD",
"3X c #AABFCB",
"4X c #BEC0C0",
"5X c #B6C6CF",
"6X c #AFC4D0",
"7X c #B8CBD5",
"8X c #BECED7",
"9X c #C4C5C5",
"0X c #C4CACE",
"qX c #C8C8C8",
"wX c #CBCCCC",
"eX c #CECFCF",
"rX c #C4D0D7",
"tX c #C8D1D7",
"yX c #CDD5DA",
"uX c #CED8DC",
"iX c #D2D2D2",
"pX c gray83",
"aX c #D7D8D8",
"sX c #D6DBDE",
"dX c #D9DADA",
"fX c #D9DEDF",
"gX c #DEDFDF",
"hX c #E1E2E2",
"jX c #E4E4E4",
"kX c gray90",
/* pixels */
"                                                                                                                                ",
"                                                                              2                                                 ",
"                                                                            2 Z +                                               ",
"                                                                            0 ;.# + # > e G L L c 2 X                           ",
"                                                                            X :.4 # c ..w.l.G.L.K.z.g.5.H 2 +                   ",
"                                                                            + D 4 # v 4.l.S.U. X.XL.D.D.H.p.L X                 ",
"                                                                            + 4 c V } <.t.t.l.G.U.L.c.S.)._.J.P +               ",
"                                                                            X V <.O.} $.$.$.$.f.g.l.j.h.S.U. XL.$.+             ",
"                                                                              # # X 7 ^ <.<.<.r.l.l.f.2.2.x.U.[.S.! +           ",
"                                                                              + D 4 # e a 7 - 2 a c G G ! ..w.c.x.f.{ %         ",
"                                                                              + ' j + O X           + X + 8 { w.q.f.w.G         ",
"                                                                                S A +                     + # P <.<.q.$.7       ",
"                                                                                7 F 2                           % v R $.b O     ",
"                                                                                + ' 2                             % 9 M M -     ",
"                                                                                X ' q                               + 2 h >     ",
"                                                                                O F x                                   # O +   ",
"                                                                              J u.d x * *                               + O O   ",
"                                                                              k.uX7.M.wX/.@.                              + X   ",
"                                                                            2 J _.a.b.*XM.R                                 +   ",
"                                                                            @.2 ! ^ =.b.v.|                                 +   ",
"                        X X - k Q 9.d.M.C.Z.Z.Z.V.m.e.| e + X             U /.&.q.K.'.-X9X0.                                    ",
"                    + > ) 0.v.V.W.=X9XwXiXpXE.v.A.#X-X#XE.m.X.X +         @.#Xb.f..X|.}.u.m                                     ",
"                X T a.T.d.&.*.6.7.M.$XhXkXjXM.T o.7.m.@XdXwX*XT.<.2 +     V /.*X^ 3.q.m.T.-.                                    ",
"            + h C.dXhX+XY W ] ] ] Y ( E.kXkX+Xo.4 t d d A.pXkXkXkXQ.G +     ` qXV oX6XfX@X&.                                    ",
"        X 7 0.gXkXkXpXA.T ] ] o.8.y.&.a.kXjX@X] 2 V / ( d b.qXkXkXhX1Xk.3 X   # # M ! V =                                       ",
"        &.+XdXkXkXkXgX+X/ T ] 0.0.6.>.R.kXkXm.Y ] ] ] ] ( m V.jXkXkXhXrXJ...p       p S w                                       ",
"      k (.gXkXkXkXkXkXpXM.&.o.1.-.8.T.iXkXkXm.W ] ] ] ] ] W ` dXkXkXkXhX7XU.6.+       S l                                       ",
"      &.wXkXkXkXkXkXkXkXpX@XA.N.Z.=XgXkXkXkXm.( ] ] ] ] ] ] m =XkXkXkXkXfX7X].^ +     m x                                       ",
"    p m.jXkXkXkXkXkXkXkXkXkXkXkXkXkXkXkXkXjXm.6.8.7.6.@.] ] S V.kXkXjXjXkXfX7X X5.X   z S 8                                     ",
"    ~ ^.kXkXkXkXkXkXkXkXkXkXkXkXkXkXkXkXkXjXm.0.i.u.y.0.6.#.Y u.kXqXE.Q.{.%X<X,X[.! + p D q                                     ",
"    &.-XkXkXkXkXkXkXkXkXkXkXkXkXkXkXkXkXkXjXm.0.i.i.i.i.u.8.o.0.kXwXR.B..XXX;X2X>Xk.s - F j                                     ",
"  8 y.dXkXkXkXkXkXkXkXkXkXkXkXkXkXkXkXkXkXjXm.0.i.i.i.i.i.i.>.a.kXkXaX}. X;X;X>X>XoXz.# ' Z                                     ",
"  0 d.gXkXkXkXkXkXkXkXkXkXkXgXaXjXkXkXkXjXjXm.0.i.i.i.i.i.u.*.C.kXkXkXwX_.c..._ t.`.L.^ F S = X                                 ",
"  k M.kXkXkXkXkXkXkXkXiXC.#.n j Z v.*XgXjXjXm.0.i.i.i.i.i.a.( *XkXkXjXhX4XOXK.e X &.M.a.#.6.i.x.5.-                             ",
"  V Z.jXkXkXkXkXkXkXaX(.Q Y ( ] ] ( u.=XkXjXm.8.i.i.i.i.i.y.o.pXkXkXjXpX5X2X:Xq.2 @XdX-X@X4XaX6X).8                             ",
"  U T.kXkXkXkXkXkXkX9Xu.T ] ] #.7.7.#.N.kXjXZ.#.<.0.u.i.u.6.y.kXkXkXjX0X_.;X,XK.Q hXkXkXkXkXkX5XF.s                             ",
"  V A.kXkXkXkXkXkXkX$X#.( ] #.y.i.u.*.i.jXkXeX(.8.A =.u.7.| /.kXkXkXkXhX9XQ.I._ E.kXkXkXkXkXkXtXD.                              ",
"  z N.kXkXkXkXkXkXkX-Xy.W ] 6.i.i.0.*.M.kXkX1Xs.o.#.8.y.| M.qXkXkXkXkXjXjX4XN.=.iXkXkXkXkXkXfX<X,.                              ",
"  s b.hXkXkXkXkXkXkXdX^.Y W >.i.y.#.0.*XkXjXA.*.6.u.0.#.m.-XhXkXkXkXjXjXhXgXH.v.hXkXkXjXhXyX7XI.2                               ",
"  8 u.aXkXkXkXkXkXkXkXhXE.] p h p N.iXkXkXjXm.0.u.] U b.aXkXkXkXkXkXjXaX6X6X{.s _.sXsX8X6X:X].h                                 ",
"    6.9XkXkXkXkXkXkXkXkXkXkXiX9XgXkXkXkXkXkXm.p n N.-XkXkXkXkXkXkXgXwXqX%XoX,Xr.3 ^ t.F.j.} a +                                 ",
"    ~ E.kXkXkXkXkXkXkXkXkXkXkXkXkXkXkXkXkXkXpXwXfXkXkXkXkXkXkXkXkXjX=XN.N.F.c.J.J.z.f.3.e O Z 2                                 ",
"    e d.hXkXkXkXkXkXkXkXkXkXkXkXkXkXkXkXkXkXkXkXkXkXkXkXkXkXkXkXkXkXdX}.j.F.$.3 L h.J.P.} X +                                   ",
"    + &.qXkXkXkXkXkXkXkXkXkXkXkXkXkXkXkXkXkXkXkXkXkXkXkXkXkXkXkXkXkXjX-XI..Xx.X X * H 5.G +                                     ",
"      2 a.-XhXkXkXkXkXkXkXkXhXkXkXkXkXjXkXkXkXkXkXkXkXkXkXkXjXhXsXkXkXdX!. XoXe +       X +                                     ",
"        c p.|.7X8X1X&X&X|.{.~._.!.Q.Q./.=XwXgXkXkXjXkXkXkXjXjXhX6XrXfXjX@X.X:Xr.X         +                                     ",
"          c 3.;X2X:X;XoXXX.X.X X X].]._.'.Q.R.(.-XhXjXjXjXhXhXjX2X2X7XuXeX|.XX`.7                                               ",
"            X 4 h.;X>X>X>X>X>X>X>X>X,X,X,X>X>X2X XB.H.-XhXrX2X6X:X.X>X>X8X%XXX>X5.X                                             ",
"              X X ..F.oX>X2X:X,X>X>X>X>X>X>X>X>X>X>X;X].}.0X6X>X:X$.k.XX>X1X<X>XP.+                                             ",
"                  + + - G ~  .3.f.x.F.P. X;X>X>X>X>X>X>X,XOX:X>X>Xk.+ v z.[.:X>X:Xh                                             ",
"                          + + + X # h I q.x.J. X:X,X>X>X,X,X:X:X>XK.b X e r.P.>X2X} +                                           ",
"                                        X + h q.F..X;X>X,X,X`.P.XX[.3.+   %  .`.>Xf.X                                           ",
"                                                7 { f.`.,X,XK.h } c.c.a       M f.B.r                                           ",
"                                                  + e $.U.:XXXt O P <.I       + 7 <.y                                           ",
"                                                      2  .F.oXq.+ - e e           e %                                           ",
"                                                        X $ j.`.O     + +           +                                           ",
"                                                            2 K.3       +                                                       ",
"                                                              e p                                                               ",
"                                                              X X +                                                             ",
"                                                                X                                                               ",
"                                                                                                                                ",
"                                                                                                                                ",
"                                                                                                                                ",
"                                                                                                                                "
};
