/* XPM */
static char *_61a9764a9014e1d91980816315882230Cy6COBg8KK016Qq[] = {
/* columns rows colors chars-per-pixel */
"64 64 253 2 ",
"   c None",
".  c #10160C",
"X  c #11170D",
"o  c #12170D",
"O  c #11180D",
"+  c #12180D",
"@  c #161A0F",
"#  c #18190D",
"$  c #221A0D",
"%  c #271B0C",
"&  c #271E0E",
"*  c #2B1A0B",
"=  c #2F1A0C",
"-  c #2C1C0D",
";  c #2F1C0D",
":  c #301B0B",
">  c #311B0C",
",  c #311C0C",
"<  c #321C0C",
"1  c #341D0D",
"2  c #281F11",
"3  c #39200E",
"4  c #202614",
"5  c #222916",
"6  c #252814",
"7  c #262B16",
"8  c #272D18",
"9  c #282D18",
"0  c #282E18",
"q  c #362614",
"w  c #3E2311",
"e  c #362A16",
"r  c #3D2B17",
"t  c #3F2C14",
"y  c #2A3119",
"u  c #2F351B",
"i  c #2F361C",
"p  c #2F371C",
"a  c #31361C",
"s  c #3A331B",
"d  c #3C351B",
"f  c #3D301C",
"g  c #3F371D",
"h  c #363E20",
"j  c #442712",
"k  c #472813",
"l  c #4B2914",
"z  c #4D2B14",
"x  c #4D2C15",
"c  c #4F2D15",
"v  c #4F2E15",
"b  c #522C13",
"n  c #562D11",
"m  c #502D15",
"M  c #522F17",
"N  c #47331E",
"B  c #4D301A",
"V  c #4A341A",
"C  c #5A3014",
"Z  c #5C3317",
"A  c #53321B",
"S  c #53351C",
"D  c #5C361B",
"F  c #58341C",
"G  c #59361D",
"H  c #5B371D",
"J  c #54381E",
"K  c #5D3B1B",
"L  c #643616",
"P  c #63391D",
"I  c #663A1C",
"U  c #643B1E",
"Y  c #6B3B18",
"T  c #683B1B",
"R  c #783F18",
"E  c #5D3F21",
"W  c #3E4423",
"Q  c #77431F",
"!  c #494E28",
"~  c #4B5129",
"^  c #4F5129",
"/  c #4C532A",
"(  c #50522A",
")  c #565B2E",
"_  c #575C2F",
"`  c #5A5F30",
"'  c #6C4022",
"]  c #714723",
"[  c #714425",
"{  c #754627",
"}  c #784722",
"|  c #764B25",
" . c #7F4924",
".. c #606533",
"X. c #636A35",
"o. c #646B35",
"O. c #666D36",
"+. c #6D723A",
"@. c #6E743B",
"#. c #74793D",
"$. c #747B3D",
"%. c #757D3D",
"&. c #777E3E",
"*. c #9F521C",
"=. c #834A23",
"-. c #804924",
";. c #814924",
":. c #814B26",
">. c #844A25",
",. c #915229",
"<. c #925229",
"1. c #925329",
"2. c #935429",
"3. c #98572A",
"4. c #94592F",
"5. c #99582B",
"6. c #9E5828",
"7. c #995A2F",
"8. c #9B5B30",
"9. c #9C5E31",
"0. c #9F5E31",
"q. c #A15929",
"w. c #A15B29",
"e. c #A45A29",
"r. c #B05B22",
"t. c #B45C22",
"y. c #A05F31",
"u. c #A05F32",
"i. c #9A613A",
"p. c #A6602F",
"a. c #AE632F",
"s. c #BD6122",
"d. c #B06028",
"f. c #B5652E",
"g. c #B4662F",
"h. c #B6662F",
"j. c #B86529",
"k. c #BD6529",
"l. c #BA672F",
"z. c #BF672D",
"x. c #BE672E",
"c. c #A26032",
"v. c #A56233",
"b. c #AD6331",
"n. c #AF6430",
"m. c #A56B3F",
"M. c #AD6C3E",
"N. c #B36531",
"B. c #B06532",
"V. c #B06633",
"C. c #B86830",
"Z. c #BD6B34",
"A. c #BF6C34",
"S. c #BD6C36",
"D. c #BE6C36",
"F. c #B56A38",
"G. c #B76B38",
"H. c #B86C39",
"J. c #B96D3A",
"K. c #BD6F3C",
"L. c #BD723E",
"P. c #C26322",
"I. c #CE6A27",
"U. c #C26729",
"Y. c #C66829",
"T. c #C0682D",
"R. c #C36A2D",
"E. c #C2692E",
"W. c #CE6D29",
"Q. c #CF6D29",
"!. c #CC6C2A",
"~. c #CD6D2A",
"^. c #CE6D2A",
"/. c #CB6E2D",
"(. c #CE6D2C",
"). c #D76D24",
"_. c #D36D29",
"`. c #D56E28",
"'. c #D76E28",
"]. c #DF7025",
"[. c #DC7027",
"{. c #DD7027",
"}. c #DF7126",
"|. c #D7712B",
" X c #DF7328",
".X c #DE752D",
"XX c #DC752F",
"oX c #DE752E",
"OX c #C57138",
"+X c #C1733E",
"@X c #C5753F",
"#X c #D47330",
"$X c #D67432",
"%X c #D87734",
"&X c #DE7831",
"*X c #DC7936",
"=X c #DE7A36",
"-X c #DE7C39",
";X c #E07126",
":X c #E17226",
">X c #E47427",
",X c #E07C38",
"<X c #E37D38",
"1X c #B67242",
"2X c #B17345",
"3X c #B57245",
"4X c #B67345",
"5X c #BF7340",
"6X c #BD7847",
"7X c #C67742",
"8X c #C17844",
"9X c #C37845",
"0X c #C27846",
"qX c #C87B46",
"wX c #CA7C47",
"eX c #CE7C44",
"rX c #CD7D48",
"tX c #CC7F49",
"yX c #CB7F4C",
"uX c #D57D41",
"iX c #D27E45",
"pX c #7B8140",
"aX c #7D8441",
"sX c #828A44",
"dX c #888F47",
"fX c #899148",
"gX c #8F984A",
"hX c #D68044",
"jX c #D48046",
"kX c #D68147",
"lX c #DD8142",
"zX c #D88247",
"xX c #DD8344",
"cX c #DD8345",
"vX c #D1834D",
"bX c #D1834E",
"nX c #D7864D",
"mX c #D4844E",
"MX c #DE864B",
"NX c #DC864C",
"BX c #DE884D",
"VX c #DD884E",
"CX c #D58650",
"ZX c #D78750",
"AX c #DC8A53",
"SX c #D98A54",
"DX c #DC8C54",
"FX c #DF8D54",
"GX c #DE8E57",
"HX c #E08545",
"JX c #E18A4E",
"KX c #E38B4F",
"LX c #E08F57",
/* pixels */
"                                                                                                                                ",
"                                                                                                                                ",
"                                                + o + o + + + +                                                                 ",
"                                                i a a a a a u u                                                                 ",
"                                            + p o.&.$.&.$.$.&.o.i o                                                             ",
"                                            + i o.&.$.&.%.pXfX$.W 8                                                             ",
"                                                i a a a p W o.+...~ 8 o                                                         ",
"                                                o + + + . 7 ) +.@.) 8 +                                                         ",
"                                                        o 0 ) @.@._ 0 o                                                         ",
"                                                        @ 0 ..$.@.) 0 +                                                         ",
"                                                < < 1 = @ a @.sX#.) 0 # - 1 1 1 > = = < < <                                     ",
"                                                c k 1 % # a $.fX$.) 0 # % = > w A H Z C b c                                     ",
"                        < > < = : > > < 1 1 = c >.} q # o a $.fX$.) 0 o # $ * A i.L.k.t.6.;.b = < <                             ",
"                        c M F H H F M l 3 3 k H ;.| g 5 @ a $.dX$.) 0 @ 5 7 & B i.L.k.t.q.-.F M c c                             ",
"                    = z ;.8.M.4X4XM.9.} k k  .:.V g ( ! 4 a $.fX$.) 9 4 ! ! 7 2 B H C n l Z  .,.,.-.c =                         ",
"                    z I c.@XkXJXLXmXOX6.Y D  .| d h X...0 a $.fX$.) 6 0 ` ` 9 # $ < j c A [ c.S.Z.q.I z                         ",
"                : M -.c.9XkX*X,XBXNX$XY.e.;.V d ( o.sX@.y i $.fX&.) 7 7 ` ` 0 O # q } 7.M.6XyXiX$XY.q. .c >                     ",
"                : M 7.@XkXxX*X,XxXuXU.r.6.Q q 6 ! ..@.X.h W &.fXpXX.a a / ! 7 # # q } v.bXFXAXxX.X`.x.2.c >                     ",
"                = F M.zX*X*XcXcX,XU.Q b c j : & 6 0 u a / o.sXgXfXaXX./ a 6 & * - : j [ 6XJX*X>X X`.l.,.c >                     ",
"                z [ 6XJX-X*XcXuXY.*.L z A H K J N s e d / o.aXdXfXaXX.^ d r S H H H M U i.+X|.;X}.`.R.q.T z                     ",
"            < c  .v.vXSXNXzX<XU.R L -.7.M.4X4X4X2Xm.4.] s h X.&.&.X.a g ] 4.M.4X4XM.8.=.U Q P.>X;X X`.Y.q.;.z :                 ",
"            : c ,.K.vXSXBX-XU.*.L P c.9XmXLXLXGXLXZX7X9.E s ^ _ ) / d J 8.7XSXLXLXmX7Xc.U L *.P.).}.;X`.Z.2.M :                 ",
"            : c ,.J.vXBX<Xk.Q L -.p.0XCXAXDXDXDXFXSXmX9X7.' g 5 5 a ] 8.6XmXSXGXDXAXmX9Xu.=.L R P.;X;X`.l.<.z :                 ",
"            : M 7.@XkXxX-Xk.Y U 8.@XkXBXAXAXNXMXAXAXBXzX@Xi.K r f ' w.OXCXDXNXNXAXAXBXkX@X7.c n t.;X;X`.l.<.M :                 ",
"            : H M.zX*X*XcXeXc.8.9XkX*X-XNXMX-X-XBXBX-X*XiXwXj.t.M.1X!.$XNXBX-X-XMXAX,X=XkXM.A n s.>X;X_.l.,.c <                 ",
"            : H 4XBX-X%X5X1XJ.+XkXcX=X=XxXxX*X,XxXxX*X*XxXHX<X<XHXcX,X=XxXxX*X*XxXxX*X,XHXL.' L *.P.).`.l.,.c :                 ",
"            : H 4XFXJX8X{ [ 4XkX*X=XcXcX*X,XxXxX,X*XcXcX=X=XHXHX=X=XcXxX,X*XcXcX*X*XxXxX,X(.e.-.L Q P.`.l.,.c =                 ",
"            : H 4XFXJXK.' ' 6XJX-X=XcXcX,X*XxXxX*X,XcXcX=X=XxXuX.X.XxXxX.X XxXxXoXoXxXxX*X$XOXu.I Y s.[.R.q.I z                 ",
"            : H 4XMX,X/.q.u.yXDXBXcX=X=XcXcX=X=XxXxX*X*XcXcX-XoX X X.X.X;X X.X.X X X.X-XxXNXbX7X7.e.I.}.'.Y.w.;.c <             ",
"            : H 4XJX-X#XC.J.bXDXBXcX=X*XcXcX=X=XxXxX.X.XxXxXoX}.}.}.}.}.}.}.}.}.}.}.}..XxXMXLXtXv.e.I.;X;X`.x.2.c <             ",
"            : H 4XDXJXiXG.G.bXBX-X=XcXcX=X=XcXxX,X.X;X X>X.X X}.}.}.}.}.}.}.}.}.}.}.}.}..X-XLX6X' Y s.;X}._.l.,.c <             ",
"            : H 4XDXMXiXG.G.bXBX-X=XcXxX.X.XxXxX.X].}.}.{.}. X}.}.}.}.}.}.}.}.}.}.}.}.}.}.&XHX6X' Y s.;X}._.l.,.c <             ",
"            = H 1XJX-X#XC.G.vXDXJXHX-XoX X X.X.X X}.}.}.}.}.}.}.}.}.}.}.}.}.}.}.}.}.}.}.}.oXMXyXu.q._.].}._.h.,.M :             ",
"            = H M.kX.X_.N.G.vXDXMXuXoX}.}.}.}.}.}.}.}.}.}.}.}.}.}.}.}.}.}.}.}.}.}.}.}.}.}.&XMXbXH.h.!.'. X_.h.2.M >             ",
"            : M 8.OX|.`.f.G.bXBX-X&X X}.}.}.}.}.}.}.}.}.}.}.}.}.}.}.}.}.}.}.}.}.}.}.}.}.}.&XMXbXH.a.f.x.)._.l.,.z <             ",
"            : M  .q.Y.!.f.G.vXMX&X}.}.}.}.}.}.}.}.}.}.}.}.}.}.}.}.}.}.}.}.}.}.}.}.}.}.}.}.oXMXbXH.b.f.T.Q.!.C.,.c :             ",
"                z I q.C.b.G.CXMX&X}.}.}.}.}.}.}.}.}.}.}.}.}.}.}.}.}.}.}.}.}.}.}.}.}.}.}.}.&XMXbXG.f.!.Q.x.f.N.,.c <             ",
"                = c 2.b.b.G.vXMX&X}.}.}.}.}.}.}.}.}.}.}.}.}.}.}.}.}.}.}.}.}.}.}.}.}.}.}.}.&XMXbXG.f.!.Q.x.g.N.,.c <             ",
"                < v 2.b.b.G.vXMX.X].}.}.}.}.}.}.}.}.}.}.}.}.}.}.}.}.}.}.}.}.}.}.}.}.}.}.}.&XMXbXH.a.f.x.W.!.l.,.c <             ",
"                - c 2.N.b.G.CXMX&X].}.}.}.}.}.}.}.}.}.}.}.}.}.}.}.}.}.}.}.}.}.}.}.}.}.}.}.&XMXbXH.a.g.x.W.!.C.,.M -             ",
"                < c 2.N.b.G.vXMX&X}.}.}.}.}.}.}.}.}.}.}.}.}.}.}.}.}.}.}.}.}.}.}.}.}.}.}.].&XMXbXG.f.!.Q.R.f.N.,.z :             ",
"                < c ;.5.v.G.qXkX=XoX}.}.}.}.}.}.}.}.}.}.}.}.}.}.}.}.}.}.}.}.}.}.}.}.}.}.].&XuXwXG.g.!.Q.f.p.3.-.M :             ",
"                    c I 3.N.G.L.uXxX,X].}.}.}.}.}.}.}.}.}.}.}.}.}.}.}.}.}.}.}.}.;X;X}.}.].|.D.G.b.b.f.C.N.3.U z                 ",
"                    = c ,.b.b.F.qXiX=XoX}.}.}.}.}.}.}.}.}.}.}.}.}.}.}.}.}.}.}.}.}.;X;X'.`.!.D.G.b.N.f.N.N.,.x =                 ",
"                    < c 2.n.b.N.G.+XkXxXoX}.}.}.}.}.}.}.}.}.}.}.}.}.}.}.}.}.}.}.}.}.;X'.T.D.rXqXG.f.!.!.C.,.c <                 ",
"                    < c 2.n.b.b.G.5XyXiXXX}.}.}.}.}.}.}.}.}.}.}.}.}.}.}.}.}.}.}.}.}.'.!.x.D.tXqXG.g.!.!.C.,.c <                 ",
"                    > m 2.n.b.G.wXrXK.E.|.{.}.}.}.;X}.}.}.}.}.}.}.}.}.}.}.}.}.}.}.`.T.x.Q.(.D.G.b.g.f.N.N.,.c <                 ",
"                    > B  .8.v.G.qXrXK.Z.(.).[.}.`.`.{.}.}.}.}.}.}.}.}.}.`.`.{.{.`.!.x.x.Q.!.f.b.b.b.l.f.N.,.c <                 ",
"                        c I 3.b.F.6XrXrXS.x.`.`.R.x.`.;X}.}.}.}.}.}.;X`.R.x.).|.x.x.Q.Q.x.g.a.b.b.C.!.!.C.,.c <                 ",
"                        = c 2.N.n.G.wXrXS.x.Q.!.x.x.Q.'.{. X`.`.}.}.'.!.x.x.!.!.x.x.Q.Q.S.F.N.b.C.x.Q.!.l.,.c :                 ",
"                        : c 2.n.n.V.G.S.Q.Q.x.x.Q.(.x.x.`.`.x.x.`.`.x.x.Q.Q.x.x.Q.Q.x.D.tXwXG.g.!.Q.x.f.N.,.M >                 ",
"                        < M ;.4.e.b.b.f.!.Q.x.x.Q.Q.x.x.Q.Q.x.x.(.Q.x.x.Q./.x.x.Q.(.D.L.tXtXS.x.Q.!.C.p.3.-.c <                 ",
"                            z U 3.N.b.b.g.x.Q.Q.x.x.Q.!.x.x.!.Q.x.x.Q.Q.x.x.Q.Q.x.S.rXrX5XS.(.Q.R.C.N.3.U z                     ",
"                            : z ;.3.v.N.G.S.!.Q.x.x.Q.Q.x.x.Q.Q.x.x.Q.(.x.x.Q.!.x.S.rXwXG.C.!.Y.6.,.,.;.z >                     ",
"                                z U 3.J.qXtXD.x.Q.Q.x.x.Q.Q.x.x.Q.Q.x.x.Q.Q.x.x.Q.(.S.F.V.b.l.q.Y x c c                         ",
"                                > z ;.u.9XqXG.g./.!.g.g.!.!.g.g.!.!.g.g.!.!.g.g.!.!.g.b.n.e.3.-.x = > <                         ",
"                                    z U u.J.N.b.N.f.N.b.C.N.b.b.g.f.b.N.f.N.N.a.N.N.N.a.b.5.U z                                 ",
"                                    > z -.3.v.b.b.b.b.b.b.b.b.n.b.b.b.b.b.b.b.b.b.n.b.v.5.;.z >                                 ",
"                                        z I 3.N.N.b.V.N.N.b.N.n.b.N.V.N.n.n.b.g.N.n.b.5.U z                                     ",
"                                        : z ;.,.,.2.,.,.,.2.,.,.,.,.,.,.2.,.,.2.,.2.2. .z :                                     ",
"                                            c M M c c c c c c c c c c c B c c c c c c c                                         ",
"                                            : < < < : - < < < < - < < < > < < < < < < <                                         ",
"                                                                                                                                ",
"                                                                                                                                "
};
