/* XPM */
static char *b095dadc30c94902f2a2c50fa416d444hzdgUAYZ7pOi4T9r[] = {
/* columns rows colors chars-per-pixel */
"64 64 130 2 ",
"   c #4D4D4D",
".  c #545453",
"X  c #5B5B5B",
"o  c #60605F",
"O  c #6A645D",
"+  c #746C5F",
"@  c #5E6060",
"#  c #646464",
"$  c #696764",
"%  c #6E6A63",
"&  c #6B6C6B",
"*  c #736E65",
"=  c #736F6A",
"-  c #797167",
";  c #74716C",
":  c #7C766C",
">  c #737474",
",  c #797671",
"<  c #7C7977",
"1  c #7B7C7B",
"2  c #837D73",
"3  c #807F7A",
"4  c #858279",
"5  c #8A857C",
"6  c #7E8080",
"7  c #848484",
"8  c #8C8985",
"9  c #848888",
"0  c #8C8C8C",
"q  c #908D85",
"w  c #979389",
"e  c #939494",
"r  c #989693",
"t  c #9E9A93",
"y  c #979C9C",
"u  c #9C9C9C",
"i  c #A09D99",
"p  c #A7A299",
"a  c #9DA3A3",
"s  c #A3A3A3",
"d  c #A7ABA6",
"f  c #A4ADAD",
"g  c #ACABAB",
"h  c #AAB0AC",
"j  c #B4B3AE",
"k  c #ABB3B2",
"l  c #B5B5B5",
"z  c #B3B8B6",
"x  c #B3BBBB",
"c  c #BBBBBB",
"v  c #BDC2C2",
"b  c #BEC9CA",
"n  c #C5C5C5",
"m  c #CAC5C1",
"M  c #C9C8C7",
"N  c #C6CBCB",
"B  c #CBCBCB",
"V  c #D2D1CF",
"C  c #C6D3D3",
"Z  c #CAD5D5",
"A  c #CDDADA",
"S  c #CFDCDC",
"D  c #CEDBDB",
"F  c #D0D0D0",
"G  c gray82",
"H  c #D2D2D2",
"J  c LightGray",
"K  c #D0D6D6",
"L  c gray83",
"P  c #D5D5D5",
"I  c #D4D6D6",
"U  c gray84",
"Y  c #D7D7D7",
"T  c #D4D4D4",
"R  c #D0D9D9",
"E  c #D2DADA",
"W  c #D4D9D9",
"Q  c #D7DBDB",
"!  c #D3DCDC",
"~  c #D5DEDE",
"^  c #D5DBDB",
"/  c #D8D8D8",
"(  c gray85",
")  c #DADADA",
"_  c gray86",
"`  c #D8DCDC",
"'  c #DADEDE",
"]  c gainsboro",
"[  c #DDDDDD",
"{  c #DCDFDF",
"}  c gray87",
"|  c #DFDFDF",
" . c #DCDCDC",
".. c #D8E1E1",
"X. c #DBE3E3",
"o. c #DEE3E3",
"O. c #DFE5E5",
"+. c #DDE4E4",
"@. c gray88",
"#. c #E1E1E1",
"$. c #E2E2E2",
"%. c #E1E6E6",
"&. c #E4E5E5",
"*. c #E7E7E6",
"=. c #E1E1E1",
"-. c #E3E8E8",
";. c #E5E9E9",
":. c #E7EAEA",
">. c #E4E9E9",
",. c gray91",
"<. c #E9E9E9",
"1. c #EAEAEA",
"2. c #E8ECEC",
"3. c #E9EDED",
"4. c #ECECEC",
"5. c #EEEEEE",
"6. c #EAEBEB",
"7. c #EEF0F0",
"8. c #EEF0F0",
"9. c #F1F3F3",
"0. c #F4F4F4",
"q. c gray96",
"w. c #F6F6F6",
"e. c #F4F5F5",
"r. c #F7F8F8",
"t. c #F7F8F8",
"y. c #F9F9F9",
"u. c gray98",
"i. c #FEFEFE",
"p. c #FAFAFA",
/* pixels */
"! C C A ;.y.t.t.%.Z C C C C ~ 8.8.~ C Z Z C Z S &.s . 6 v C C C C S 2.t.t.t.t.t.&.Z C C ~ 9.y.y.5.~ C Z Z >.t.t.t.5.&.g X > x ~ ",
"E C C Z %.0.9.0.O.Z Z Z C C E ;.:.~ Z Z A C Z W @.u . 7 N R Z C C D :.9.8.8.5.4.` C C C Y ;.8.8.>.E C C Z +.8.5.5.,.$.s X > x ~ ",
"A N M B ` ,.*.*.#.` K N N N F J / ` ` ) ^ ^ ` I L i # r [ +.F N N F { ,.) P F B n c v c n T Y Y L F n N B G / / / G J u @ > x A ",
"M n M B U | } } | | Y B M M N n M L [ } @.@.[ F m i * i <.:.F M M B / [ F n v c c c c l v n M n M n M n M n n n n n M u @ > x C ",
"n n B ( ] @.| | @.@.] Y L Y F n c n B P } Y F M c i * p <.<.F M H / ] ] F M B F F H B n B J P P T B B F L M c c v c v u $ 7 c C ",
"n c H } } } } @.@.] ] } | @.L v c l c H } F n c c r * i *.,.H B / @.@.` F M U @.#.} H B F ) #.) Y F M / [ M l c l l c t ; q v C ",
"c c M H H L ( @.L B B M F ] ) F M c c B H n c c c r % r L ` B M F F J J P P ] @.P B M c n F F B n v n J [ I B n c l c t - w F [ ",
"l c n n n M L #.B l l l n ) @.$.P n c n n c c l c e $ 0 v F N n M n n M P @.@.@.B c l l c n n c l l c J @.@.@.B l l c t - t #.6.",
"M B F G B M F U F B n c c B B J F n c n M B B B B u & e T [ B n n n B P ) | U B n l c c n n n B n c v F @.@.@.P B M v i = r @.<.",
"( | | ] F n M n L @.B c c l c n M n n M M L @.@.&.g & s ,.<.F n c c P @.#.} B l l c c m M n F ) Y v c F @.} @.@.@./ B s = e @.5.",
"( @.| [ F n n n B L B v c c n n M F H H H ) @.F n e X r ,.&.B c c c M F H J B c c c n J B M F _ ] F B / @.} @./ / n g e & e F o.",
"$.$.$.| J M B M B B B M B n B n F ) | | @.#.@.c u 1   e ,.,.n c c c c c n B M n B n J | Y B F } #.} @.@.$.@.@./ B g 7 < # 9 v K ",
"c v n n l g l l l c l g j l l l c c c c c c m g 0 >   6 v n l g g g s s l l l g l l c n c l l c n n n n v c c c c s 0 > @ 1 a x ",
"0 e u u e 0 e s u u r 0 e u u i u e 0 0 e u s e 7 &   & 0 e u u u y 0 8 r u e 0 e u s s u 0 0 s s s s e 0 0 0 r u u e 1 X # 6 e ",
"> > 1 7 1 < 6 0 0 0 7 , 3 8 8 0 7 1 < > < 6 0 1 > #   X & > 6 7 7 6 3 3 7 0 1 & 1 0 8 0 7 > 6 9 0 0 7 3 , < > 7 0 7 7 > . X & > ",
". . X @ # & & & ; & = - = : ; ; & & & & & = - # X .     . X X @ X # $ - - - $ . # & & & & & & & & & = = * & & & > # X .   . . . ",
"# & & & 1 9 7 7 7 7 7 6 3 2 3 1 6 7 7 7 7 7 2 < & & & & & & & # . . = 7 3 3 < > 1 7 7 7 6 6 6 6 1 1 6 7 8 8 7 7 7 < & & & & > > ",
"e k f k v F F F F F n l l c z k x n F F B v h l f f f f f k l y & @ 0 x l l v n B F F F n x k k k l x n H F F F F v k f f k v n ",
"k S Z S >.e.e.e.e.e.%.H C C C Z E :.9.w.0.%.Z Z Z A Z Z C S @.c > # f A Z K -.y.y.e.q.q.-.A Z C Z C R ,.q.q.q.q.w.,.I K Z S 8.8.",
"k Z N N G / $.<.@.Y F v v v v n F K ` $.*.| ( A N N N B C N F l < > k Z N B ) ,.,.,.#.` L N B M N N B J / I / | ,.#.` K N F / / ",
"k Z N n M M T @.H n c c c c c n M M B U } } ] H n n n B n n B g 1 1 k D N M T [ [ [ L M n B B B N M n M n M M P | | @.P B n M n ",
"k Z N M F Y ( $.J n n n n B B B M F U ` } Y F B n n c c c n n l 1 1 v %.T M F F F F B n B H H P J B M M M F P / | @.@./ N n n M ",
"x Z N N I @.@.@.P B n M F [ ) B B Y @.| ] H n M n n c l l c n g 1 7 M w.) n n n M n M M F ) #.#.` F n M M / @.@.| | @.I B n M n ",
"n O.F n F T F M n c M F ( [ ( B B F J J H B n n c c c c c c n l 1 6 M w.` n F T F n B T ) } ) P B n v c v n B F J J P B N B J J ",
"Y e.Y n M n c c l l M ] | | [ B M M n n n n n v l l l l l c n g 1 6 B w.( n P #.P n H } #.#.Y B n c l l l l l c n n n M n F [ ( ",
"n O.H n m c c c c l n [ [ H M n v n M F H B M M B M B B B M B g > > x -.Q H ( #.H M F H H P F B n c c n B B B F P B M n n G ` ( ",
"x Z N n c c l c c l B | H c c c c n B U [ F n H ] @.@.] | / B g & # f S ` } [ @.H M M M B n M n n l c H } } | | @.J M M n F ] ( ",
"x Z N n n c c l c c n F n c c c c n B U [ / H / @.) P / / B c u # # f D Q } @.@.H n B F F F F B n n B P | ) P / / F n B F I [ I ",
"x C N n M n n l c M n c c c c n M M B ( $.@.@.@.$./ F B B c g 9 @ # f E ' $.$.$.Y M H [ | | ( B F P } #.| L B B B B n F ] | $.F ",
"a x x l l c l g g l g g g g g l l l c v B n n n v c g l c g r 7 @ @ e l c v v v c l c B B B c l l c n c n c l l l c l c c n n l ",
"6 y y s s u u u r 0 0 0 0 u u 0 0 u s s s s g u e 0 0 e u r 0 > X X 1 e 0 e e 0 r s s s s s s e 0 0 e 0 e e s s s s s u r 0 0 e ",
"& > 7 0 0 0 0 0 7 > 1 > 6 9 7 1 1 7 7 7 7 7 7 1 ; > < 6 8 7 > & X . # > > > > < 7 8 0 0 0 0 7 1 > > > > > 1 7 7 7 7 7 6 1 1 > 1 ",
"o X * 2 2 2 > > & & & & & ; ; = % # o @ @ @ @ X X @ & = : % @ .     X X . X # & & > > : : 2 ; & $ X X X X @ @ @ X @ @ # & & & & ",
"; $ 2 3 2 3 3 > 1 1 1 6 6 7 3 3 2 ; # .   @ # # # & < 3 3 3 = & & # # # & & > 6 6 > 1 3 2 2 2 1 > > & & $ .   @ & $ # & 1 6 1 1 ",
"g k m M M B v k f k x M B B v l k l a > . 7 f f f f k x M M n c k f a f l n n F c k k k g k l k k v v l g <   9 n l f l n v l f ",
"Z E ,.q.q.q.O.Z Z C X.9.w.w.2.Q K ] M 7 X a S Z Z Z K @.q.u.0.4.Q Z Z S 2.y.y.t.O.Z F C Z C C Z ^ 3.w.<.U 9   g i.,.Z X.e.:.S C ",
"N F / Q ] ( G N n v N / ) ) / H N H v 7 # a Z N N G E { *.#.J F N F N F ' <.,.<.I v n v v n n n B U ( U n 7   s y.-.F G ^ U F N ",
"n n n n n m n n v c c n n n n n n M c 7 & f S C n J } } [ F c c n n n M U } } } B c c l x l c n n N n n c 7   g y.} N n n M n n ",
"J J B n n n n v c c c n B J L J F B c 7 & g :.{ J ` } / B n c c v B F U ] } } } / B n n v c n F H B M M v 7 X a >.I M n M B J J ",
"( [ H n n B c l l l v n F } $.$.) F c 7 > c p.4.@.#.} F c c l c v B / @.@.@.@.o.@.#./ B M M F ] ( B n M v 0 $ u Z N M n n F ` ` ",
"[ ` F n M n v c c l c n B H / ) ) F l 7 > c y.&.H ( | F c c c c B P ] ] / P F B B B n v n F / } ] / J P M e # y Z N M M n F ` } ",
"@.] F n n M v l l c c M n n F ) ) F c 7 ; c p.@.n H | F c l l n / @.@.] F M c c c c c l n ( | | } } } @./ y # u C C n M n F ` @.",
"F B M n n c c l c v n n B V L ) ) F c 8 = l 3.' F U | H n c c n F U J B n c c l l c c c M J / } [ / U / B 0 X s O./ N M F / ] ] ",
"c c n n c c c l c n n n V ) @.@.) F c 8 = d S / } | | U n n n n n n v c c l c c c l c n n n F ] ` F M B v 7   s y.#.n F ) ] @./ ",
"v n n n n c c v n n B F U ] ] Y F n g 5 - d Z K U ) } U B n M n M M n n n n n n n n M n B F J [ ( B n v l 6 . s 8.` M B P / ] / ",
"J ] F n n n n m B n F ) @.@.] J n l u 2 - d A F B J | ( B n B n M B U / ] ] ) ] ) [ J B F ) | | ] F n l u 3 # u ~ G M M B J ] / ",
"n M c c l l l l l l c B B B n l d u 0 , % e x x c n B n c l l l l l n B B B B B M n c l c n M M B c l u e < & e x x c c c c n c ",
"u g g u r e 0 0 0 0 u s s g s e 0 0 6 $ X 1 e u s s s g s u e 0 0 e s g g s g g u e e 0 0 e u s s s u e 7 : + 6 0 u s s s u r e ",
"7 0 0 9 1 > > 2 > 3 6 7 8 0 7 1 > > > X   # > 1 9 0 0 0 0 7 1 < , 3 7 8 0 0 0 9 1 > > > > > 1 7 0 0 0 1 > = * - < 3 7 9 0 7 < > ",
"& > > > # X $ 2 * * $ o $ > > & # @ X .   . X @ o $ > > > > & & = - 2 , > > $ @ @ @ X @ X X @ & > > & o X O + - - % @ $ > > & & ",
"> 1 1 > # X O + 2 2 2 $ & > > > > & & # # & # # @ & > > 1 1 1 1 2 2 3 2 , > & @ X   . @ @ @ # > > 1 1 & $ > 2 2 2 = @ & > 1 > 1 ",
"c n M c u 1 2 + w m n c l k k g k x c c c c c l a f f l n n n M m n l g g g k g 6   > u a s f f k c n n c l f g g f a k n v k f ",
"5.u.u.5.n u 5 + g u.u.w.2.S Z C Q 2.t.t.t.t.t.&.Z Z Z O.e.t.t.t.i.9.o.C Z Z ~ $.r   9 N Z Z A Z ' 8.y.y.y.O.Z Z Z Z Z o.9.6.~ Z ",
"J [ [ / l u 6 $ g w.5.[ I B N b n F J J P @.4.( N N N Y &.<.<.<.,.$.K M N B n c 0 X 0 b Z N C I { $.<.<.&.^ N N N N B Z ` L F N ",
"n M n c g u 6 o g u.$.B n n n c l l l l c B | J n n n F [ [ | [ @.( F n n n l u 9 # e b C M F ( } } } } ] F n M N M n n N n n n ",
"c c n n g u 6 # s &.W B n n n v c c c n F / | ) I F M F G I [ | [ [ Y H B v l u 9 # y ~ ' M M F P J J J J J P H J J L H F F B v ",
"l c n n g e 1 # u C C n n n n M n c c J $.| | | #.U B n n F ] | #.#.#.) H n g u 7 # a 5.,.F n M n n n n n U #.@.@.@.@.@.#.Y B n ",
"n c n n c g 0 # u C C M B G F B M c n B J ] | ) U F n n n B H U L U ) [ / F M c 0 X u 4.*.F n M B F H H J ) } U B U | | @.Y B n ",
"B n M n M n e # y C N n F ` / B n M n n B / | J n B n n n M n B M B ( #.@.@.[ #.y   e :.,.F n n B / } @.@.@.} B c B ] @.| Y B M ",
"F n n n n n 0 . y ..E M F [ Y M n c n n n B / B n n n n c n v n n M H ^ U U / ( y . e { ] B M F U ) ) U F H F n l M [ ] Y H B M ",
"B n M n B n 7   s 5.| B F [ I v l c c l c n B n n c c c c l c c n N M M M M B F y @ e C G M B / } @.) B c c c c l M [ / B N n B ",
"H B B n c l 7   s w.&.B B L H B n n n c l c n n M n c c c c l c c n n n n n v c 0 X 0 b F M B U U U H c l l c c v M / H M B B L ",
"] Y F n g u 6 X g y.&.B n B F P ( ( J n l c c n B n n c c l c c c c n n M n g s 1   9 b N N M B n n c c l c c c n n B M M B Y ] ",
"} ) H c g e 1 # g y.&.B n n F ) | | ) n l c l n n n B n c l l l c c n M n n g r >   9 b N N M n n c l c c l c v M M N M n F ( @."
};
