/* XPM */
static char *da142eb6f75642a196980de882df6e67hhh7OGYbKIw483NQ[] = {
/* columns rows colors chars-per-pixel */
"32 30 12 1 ",
"  c gray31",
". c #676767",
"X c #766D60",
"o c gray50",
"O c #908474",
"+ c #979797",
"@ c #9F9F9F",
"# c gray72",
"$ c gray78",
"% c #C7D4D4",
"& c #DFDFDF",
"* c gray97",
/* pixels */
"*%%**%%%*%%%& %%%***%%**%%**& %*",
"&$$&&&$$$&&&$X*$$&$###$$$$$$$ %$",
"&#&&&&&&##&$#X*$&&$&&$&&$&###X%$",
"##$$&##&&#$##.%$$$&&##$##&&##X*#",
"$&&$$&##$$$&&.*$#&&##$$&#&&&$.*$",
"&&&$$$$$$&&&+ *###$$$&$&&&&$o.%$",
"oo+o++o++oo+o o++o+o++o++oo++ o+",
"   ...XX...X     XX .....X..    ",
" %%***%%%**%%%%& %%***%%%***%%*&",
" %$$&$##$$&&$$$$.%$&&$$$$$$&&$$$",
".%$&&$$&$&&$$##$.*$$$$&&$$&&&$$$",
".*$$##&&$$$$###$.*$&$&&$###$$$&$",
".%$###&##$&$&&&$ %&&$$$$#&&&$$&$",
".%$$#$##$$&&&$$+ %&&$&&$&&$$$&&+",
" o+++oo+o+++oo+o ooo+++ooo+++oo+",
"O XX....X    .X    ..XX.     ..X",
"%%**%%**%& %%%**%%**%%%%*& *%*%%",
"$$$$$#$$$$.%$&&#$$&&###$$$ *$$$$",
"$&$$##$&&$.*&&##$&&&&$$&$$.%$$&$",
"&&$$##$$&$.*$&##&&$###&&&&.%$$&&",
"##$##$$&&$X%&&$$$####$$&$$ *$&&#",
"#&$$$$&&$@X%$&$$$&&&&$&&$@.%$$&#",
"o++ooo++oo o+++oo+++ooo++oXo++oo",
" .. XX ..    ...XX.    .. XX ...",
"%**@X**%%***%%***%%& %%%**%%%*%%",
"#$$@.*$$###&$$&&&$$@.%$&&&$$$$$#",
"##$@.%$$$#&&&$$&&&$@.*$$$$&&&&$#",
"&$$$.%$&$$$&$$$$$&&& *$$&&&#&&$$",
"&$$$ *$&###$$###$$$$.%$&&###&$$&",
"&&$+.*$$&&##$$###$$+ %$$###$$$&&"
};
