/* XPM */
static char *result[] = {
/* columns rows colors chars-per-pixel */
"32 32 207 2 ",
"   c black",
".  c #020202",
"X  c #030404",
"o  c #020707",
"O  c #030A0A",
"+  c #030D0E",
"@  c #041011",
"#  c #051416",
"$  c #0B1014",
"%  c #061A1C",
"&  c #111617",
"*  c #011A20",
"=  c #081F23",
"-  c #032226",
";  c #00242E",
":  c #192328",
">  c #022C36",
",  c #02313B",
"<  c #003446",
"1  c #013C4B",
"2  c #003D52",
"3  c #263840",
"4  c #00465C",
"5  c #0B4459",
"6  c #30454F",
"7  c #005674",
"8  c #255566",
"9  c #3C5C69",
"0  c #3E6775",
"q  c #4A6F7F",
"w  c #005E82",
"e  c #006B8D",
"r  c #007094",
"t  c #00769E",
"y  c #0080A8",
"u  c #0090B7",
"i  c #5193A5",
"p  c #67A1B4",
"a  c #0198C4",
"s  c #009FCC",
"d  c #1A99C0",
"f  c #06A5CF",
"g  c #12A4CC",
"h  c #13B2DA",
"j  c #37B3EC",
"k  c #39BCF3",
"l  c #569ADC",
"z  c #539EDF",
"x  c #599DDF",
"c  c #6497DB",
"v  c #6D98DA",
"b  c #7794DB",
"n  c #7896D9",
"m  c #7C97DB",
"M  c #7799DC",
"N  c #7699DD",
"B  c #769ADC",
"V  c #7798DE",
"C  c #729CDD",
"Z  c #749CDF",
"A  c #799BDE",
"S  c #7DA0DC",
"D  c #71BBD1",
"F  c #739CE0",
"G  c #779DE2",
"H  c #799FE2",
"J  c #45A5E6",
"K  c #41AAE7",
"L  c #45AAE7",
"P  c #4CA8E7",
"I  c #44AEE8",
"U  c #4BADE8",
"Y  c #54A7E6",
"T  c #56ABE7",
"R  c #54ACE9",
"E  c #56AFEA",
"W  c #5FADEB",
"Q  c #4AB5EF",
"!  c #5BB5ED",
"~  c #5CB7EF",
"^  c #44B9F0",
"/  c #47BCF1",
"(  c #49BCF2",
")  c #4DBCF1",
"_  c #51B8F1",
"`  c #53BBF2",
"'  c #58BAF1",
"]  c #62A3E7",
"[  c #6CA4E1",
"{  c #6DA1E5",
"}  c #69A5E7",
"|  c #68A6E7",
" . c #65A8E6",
".. c #6CAAE8",
"X. c #6BADE8",
"o. c #72A4E2",
"O. c #74A6E3",
"+. c #75A3E4",
"@. c #77A7E5",
"#. c #78A1E1",
"$. c #79A4E5",
"%. c #7BA4E6",
"&. c #70AAE7",
"*. c #74A8E5",
"=. c #77ABE4",
"-. c #75A9E6",
";. c #7BAAE7",
":. c #71ABE8",
">. c #7BACE8",
",. c #6AB0E9",
"<. c #67BEEE",
"1. c #71B1E6",
"2. c #72B5ED",
"3. c #7CB3EB",
"4. c #75BEEF",
"5. c #7BBAED",
"6. c #63BDF2",
"7. c #6EBBF0",
"8. c #6EBFF0",
"9. c #70BAF0",
"0. c #1CC2E7",
"q. c #32C6EC",
"w. c #34C5F3",
"e. c #3ECEF6",
"r. c #65C2DD",
"t. c #48C9EC",
"y. c #49C0F3",
"u. c #48C4F7",
"i. c #43C6F8",
"p. c #4DCBF9",
"a. c #57C4F5",
"s. c #5DC0F2",
"d. c #5BC5F5",
"f. c #5BC6F4",
"g. c #52CDF2",
"h. c #57C6F8",
"j. c #5DCCFA",
"k. c #4FD4FC",
"l. c #4FD9FD",
"z. c #5DD7FB",
"x. c #57D8FB",
"c. c #61CFEF",
"v. c #7BCCE5",
"b. c #6CC2F2",
"n. c #60CAF4",
"m. c #61CBF7",
"M. c #6BCAF7",
"N. c #6ECDF5",
"B. c #62CDF8",
"V. c #75C7F4",
"C. c #78C3F3",
"Z. c #75CEF1",
"A. c #63D7F7",
"S. c #6AD2F3",
"D. c #6ED2F7",
"F. c #67D3F9",
"G. c #6DD0F8",
"H. c #61DEFE",
"J. c #6ADBFC",
"K. c #6BDDFD",
"L. c #73D1F7",
"P. c #7AD6F5",
"I. c #75D8F5",
"U. c #74D6F8",
"Y. c #75D7FA",
"T. c #74D7FB",
"R. c #77D7FA",
"E. c #71DDFC",
"W. c #7ADDFC",
"Q. c #74E1FF",
"!. c #73E8FF",
"~. c #839DDC",
"^. c #9EAADD",
"/. c #88AFE8",
"(. c #86B1E6",
"). c #87B3EA",
"_. c #84B4EA",
"`. c #A5AEE1",
"'. c #A5BFE6",
"]. c #ACBBE3",
"[. c #BFBFE2",
"{. c #C1BEE2",
"}. c #8DC0EB",
"|. c #9BC9F0",
" X c #84DCF7",
".X c #81DBF9",
"XX c #81D8FD",
"oX c #82DDFC",
"OX c #8EDFFB",
"+X c #92DAF5",
"@X c #96DDF5",
"#X c #A4DBF6",
"$X c #83E0F9",
"%X c #85E2FA",
"&X c #8CE0F9",
"*X c #80E9FF",
"=X c #97E1F8",
"-X c #93E6FB",
";X c #9AE2F8",
":X c #9BE3FB",
">X c #A1E2F9",
",X c #A2E4FA",
"<X c #A3E9FB",
"1X c #A9E9F8",
"2X c #B9ECFB",
"3X c #BFEDFC",
"4X c None",
/* pixels */
"4X4X4X4X4X4X4X4X4X4X4X4X4X4X4X4X4X4X4X4X4X4X4X4X4X4X4X4X4X4X4X4X",
"4X4X4X4X4X4X4X4X#X+XZ.<.2.}.'.].[.{.4X4X4X4X4X4X4X4X4X4X4X4X4X4X",
"4X4X4X4X3X2X=XE.A.A.A.A.z.z.z.u.Q Y c ~.`.4X4X4X4X4X4X4X4X4X4X4X",
"4X4X.X%X&X&X=X=X Xc.t.t.c.c.S.$X$XH.e.k E x $.^.4X4X4X4X4X4X4X4X",
"4X4X-X<X1X$Xg.h u y y t r t t u h t.I.E.z./ / P l S 4X4X4X4X4X4X",
"4X:X,X=Xq.g u y r 7 4 1 , , 1 1 2 7 t g g.$XS.a.y.I z 4X4X4X4X4X",
"4X>X@X0.a r 4 , > , , , - % % - - * ; 2 w f c. XB.f.( L 4X4X4X4X",
"4X;XS.s w < ; - % @ # % = % @ @ % # @ + * < y q.I.S.f.( L 4X4X4X",
"XX,Xq.y 2 * + o O + + O @ # # + + # @ O o O > e h S.P.M.d.4X4X4X",
"XXOXq.r ; o .     . o O O O @ # + + @ O X . o ; e f c.P.L.b.4X4X",
"XXoXx.t * .         . X o o o + @ + O + o X . o > e s S.U.V.4X4X",
"4XY.K.a *               . X o o O @ + O + o . . + < e h P.L.8.4X",
"4XG.K.e.<                 . X o o O @ + O O o . X # 1 t q.U.G.4X",
"4Xb.k.Q.d                   . . X X o @ O O o X . O = 4 s F.Y.4X",
"4X8.y.l.!.5                     . X X X @ o o X . . # ; t e.L.N.",
"4X4Xs.i.l.!.$                   . . . X o O X X X . o % 7 w.R..X",
"4X4X7.<.p.H.I.:                     . . . X o X X .   + 2 w.R.D.",
"4X4XX.4.' h.z.*X9                           . X . . . . , x.R.D.",
"4X4XC ).5.C.n.j.*Xp $                         . . . X   8 Q.T.N.",
"4X4X4XV ;.2.9.6.h.J.W.q X                             $ Z.W.Y.4X",
"4X4X4XG A :.3.C.6.' g.H.I.i 3                       6 v.W.U.d.4X",
"4X4X4X4Xb H -.}.C.6._ ) p.x.J.r.i 0 3 & $ & : 3 q D *XE.F.m.4X4X",
"4X4X4X4Xm A +.>.5.9.<.! ) u.p.l.l.H.Q.I.Z.I.I.Q.Q.J.j.B.f.d.4X4X",
"4X4X4X4X4XV H +.-.1.2.9.! Q j ^ w.w.i.p.p.j.B.j.j.n.h.a.s.` 4X4X",
"4X4X4X4X4Xn N H F :.-.5.2.W U K j j j j ^ Q Q ) ) _ _ _ ~ 4X4X4X",
"4X4X4X4X4X4XV M M +.>.3.5.5.5.Y Y K J J J R R U R W R E T 4X4X4X",
"4X4X4X4X4X4Xm A M F >.>.3.3.}.1. .2.W Y ] ] ] ]  . . .| 4X4X4X4X",
"4X4X4X4X4X4X4Xn B N M M >.3.1.3.-./.,.,.] { { { { &...} 4X4X4X4X",
"4X4X4X4X4X4X4X4Xv Z %.B N ;.@.:.>./.+.,.2.{ +./.;.$.*.4X4X4X4X4X",
"4X4X4X4X4X4X4X4X4X4X4XC b %.$.O.&.@.@.-.&.&.O.).|._.4X4X4X4X4X4X",
"4X4X4X4X4X4X4X4X4X4X4X4X4X4XG Z o.#.#.%.o.[ =.(.4X4X4X4X4X4X4X4X",
"4X4X4X4X4X4X4X4X4X4X4X4X4X4X4X4X4X4X4X4X4X4X4X4X4X4X4X4X4X4X4X4X"
};
