/* XPM */
static char *result[] = {
/* columns rows colors chars-per-pixel */
"32 32 222 2 ",
"   c #020403",
".  c #020504",
"X  c #030504",
"o  c #050707",
"O  c #070807",
"+  c #060908",
"@  c #070908",
"#  c #090A08",
"$  c #090B0A",
"%  c #080C0B",
"&  c #0C0D0A",
"*  c #0C0D0B",
"=  c #090C0C",
"-  c #090D0C",
";  c #0E0F0E",
":  c #0F110F",
">  c #12100B",
",  c #14130D",
"<  c #0C0F10",
"1  c #0E1010",
"2  c #0E1112",
"3  c #0F1212",
"4  c #0E1213",
"5  c #101314",
"6  c #121616",
"7  c #1B1913",
"8  c #1D1B16",
"9  c #13171A",
"0  c #141718",
"q  c #141A1B",
"w  c #171B1C",
"e  c #171B1D",
"r  c #171B1E",
"t  c #181A19",
"y  c #191B1B",
"u  c #1B1D1C",
"i  c #1F201C",
"p  c #1E201F",
"a  c #242017",
"s  c #232018",
"d  c #2D281D",
"f  c #1A1F21",
"g  c #1B1F23",
"h  c #1F2528",
"j  c #212323",
"k  c #2B2B27",
"l  c #212628",
"z  c #252A2E",
"x  c #2D2E2B",
"c  c #312F29",
"v  c #31312C",
"b  c #252D30",
"n  c #272D30",
"m  c #262E31",
"M  c #272E32",
"N  c #283033",
"B  c #2B3237",
"V  c #2B3138",
"C  c #2D3438",
"Z  c #2F373A",
"A  c #2F363B",
"S  c #323230",
"D  c #343534",
"F  c #373734",
"G  c #343636",
"H  c #363837",
"J  c #393A36",
"K  c #32383B",
"L  c #31383F",
"P  c #323A3E",
"I  c #363B3E",
"U  c #393B38",
"Y  c #3D3E3B",
"T  c #3B3C3C",
"R  c #3C3D3D",
"E  c #343D42",
"W  c #343D43",
"Q  c #353F43",
"!  c #374045",
"~  c #374145",
"^  c #3D484D",
"/  c #3D4751",
"(  c #3F4950",
")  c #434443",
"_  c #444545",
"`  c #444645",
"'  c #484847",
"]  c #4A4A49",
"[  c #4C4C4B",
"{  c #4D4E4C",
"}  c #4D4E4D",
"|  c #434F55",
" . c #404C57",
".. c #454F55",
"X. c #444F58",
"o. c #455158",
"O. c #4C5458",
"+. c #4E565A",
"@. c #505150",
"#. c gray32",
"$. c gray33",
"%. c #555757",
"&. c gray34",
"*. c #575959",
"=. c #5D5E5C",
"-. c #5E605F",
";. c #4E5A61",
":. c #4E5B63",
">. c #4F5D65",
",. c #515E67",
"<. c #5B6060",
"1. c #5E6162",
"2. c #526069",
"3. c #53616C",
"4. c #56646F",
"5. c #556171",
"6. c #586871",
"7. c #596872",
"8. c #5A6976",
"9. c #606160",
"0. c #686A69",
"q. c #6A6A6A",
"w. c #6C6D6D",
"e. c #6D6F6E",
"r. c #6F706F",
"t. c #717373",
"y. c #727576",
"u. c #777878",
"i. c #797A7A",
"p. c #7C7E7E",
"a. c #657681",
"s. c #677984",
"d. c #6A7B87",
"f. c #697A8A",
"g. c #6E818D",
"h. c #6F828D",
"j. c #72828C",
"k. c #6F8392",
"l. c #728793",
"z. c #748996",
"x. c #778B97",
"c. c #798E9C",
"v. c #7C8F9C",
"b. c #808181",
"n. c #838484",
"m. c #898A89",
"M. c #8D8E8D",
"N. c #858C90",
"B. c #8F9090",
"V. c #8D9397",
"C. c #86959F",
"Z. c #939493",
"A. c #9C9D9D",
"S. c #9E9F9F",
"D. c #8798A1",
"F. c #8198A6",
"G. c #8D9FAA",
"H. c #9AA5AB",
"J. c #9CA8AF",
"K. c #89A1B0",
"L. c #8BA3B1",
"P. c #8CA6B4",
"I. c #93A8B4",
"U. c #99ABB6",
"Y. c #90AAB9",
"T. c #93ACBA",
"R. c #95ACB9",
"E. c #94AEBE",
"W. c #9BB1BE",
"Q. c #A1A1A0",
"!. c #A4A5A4",
"~. c #AAAAA9",
"^. c #A9AAAA",
"/. c gray67",
"(. c #A3ACB1",
"). c #AFB1B1",
"_. c #ABB8BF",
"`. c #B1B4B6",
"'. c #B5B6B6",
"]. c #B9B9B9",
"[. c #BCBCBC",
"{. c #BCBDBF",
"}. c #96B1C2",
"|. c #98B3C3",
" X c #9DB5C3",
".X c #9AB6C6",
"XX c #9CB8C8",
"oX c #9FB9CA",
"OX c #9EBBCC",
"+X c #A9BAC4",
"@X c #A2BDCC",
"#X c #AEC5D1",
"$X c #C0C2C3",
"%X c #C3C4C4",
"&X c #C6C6C6",
"*X c #C1C6C8",
"=X c #C3CACC",
"-X c #C5CACD",
";X c #CCCDCD",
":X c #CECECE",
">X c #C1CFD7",
",X c #C5D0D6",
"<X c #C9D1D6",
"1X c #CCD1D5",
"2X c #CDD4D7",
"3X c #CBD4D9",
"4X c #D1D2D2",
"5X c #D5D5D5",
"6X c #D1D5D8",
"7X c #D6D8D8",
"8X c #D2D8DC",
"9X c #D6DBDE",
"0X c #D9D9DA",
"qX c gray86",
"wX c #DDDDDD",
"eX c #DFDFDF",
"rX c #DBDEE1",
"tX c #E2E2E2",
"yX c #E2E3E3",
"uX c #E4E4E4",
"iX c gray90",
"pX c None",
/* pixels */
"pXpXpXpXpXpXpXpXpXpXpXpXpXpXpXpXpXpXpXpXpXpXpXpXpXpXpXpXpXpXpXpX",
"pXpXpXpXpXpXpXpXpXpXpXpXpXpXpXpXpXpXpXa X pX4 9 pXpXpXpXpXpXpXpX",
"pXpXpXpXpXpXpXpXpXpXpXpXpXpXpXpXpXpXpXd @ n 5.c.g.3.I pXpXpXpXpX",
"pXpXpXpXpXpXpXpXpXpXpXpXpXpXpXpXpXpXpX; l Z ( 4.f.8.v.7.3 pXpXpX",
"pXpXpXpXpXpXpXpXpXpXpXpXpXpXpXpXpXpXpXX & 0 z B / L ( k.X.< pXpX",
"pXpXpXpXpXpXpXpXpXpXpXpXpXpXpXpXpXpXpXpXs . pXpXpXpX+ V ( L pXpX",
"pXpXpXpXpXpXpXpXpXpXpXpXpXpXpXpXpXpXpXpXa pXpXpXpXpXpXpX< l 2 pX",
"pXpXpXpXpXpXpXpXpXpXpXpXpXpXpXpXpXpXpXpXa > pXpXpXpXpXpXpXo % pX",
"pXpXpXpXpXpXpXpXpXpXpXpXpXpXpXpXpXpXpXC @.{ D pXpXpXpXpXpXpX  pX",
"pXpXpXpXpXpXpXpXpXpXpXpXpXpXpXpXpXpXpXy +.i.` pXpXpXpXpXpXpXpXpX",
"pXpXpXpXpXpXj T 0.M.A.u.p.e.R 1 pXpXpXw.s.(.9.pXpXpXpXpXpXpXpXpX",
"pXpXpX= -.B.U J ' !.uX} x =.%X'.1.- pXS.o.N.9.pXpXpXpXpXpXpXpXpX",
"pXpXT [.iX^.k J [ *.uX#.i x F ;XyXJ.b O 3 p # pXpXpXpXpXpXpXpXpX",
"pXp ;XiXiXeXi.#.q.&XuX) v v x m.iXuX+XP pX8 , pXpXpXpXpXpXpXpXpX",
"pX%.iXiXiXiXiXiXiXiXuX$.} ) F ] eX$X=X XE : 7 pXpXpXpXpXpXpXpXpX",
"pXZ.iXiXiXiXiXiXiXiXuX*.&.&.#.' wXV.Y.XXF.w a pXpXpXpXpXpXpXpXpX",
"pX).iXiXiXtX~.M.!.qXuX*.&.&.&.q.iXqXC.Z ;.+.c K pXpXpXpXpXpXpXpX",
"u [.iXiXiXZ.k S Y r.uX#.} &.} Q.iX7XW.c.n.0X4X,X..pXpXpXpXpXpXpX",
"t ].iXiXiXr.x ] $.@.iXA.S [ _ :XiXuX`.O.:XiXiX<X .pXpXpXpXpXpXpX",
"pX/.iXiXiX%XJ H _ /.uX&.' ) '.uXiXtX3X<.6XrX>Xj.pXpXpXpXpXpXpXpX",
"pXb.iXiXiXiXiX5XuXiXiXt.m.qXiXiXyX).D.d.! 2.M * pXpXpXpXpXpXpXpX",
"pXG wXiXiXiXiXiXiXiXiXiXiXiXiXiXiX%Xx.l h :.6 pXpXpXpXpXpXpXpXpX",
"pXpXy.2X8X1X-X*X$X%X7XuXiXiXiXyX8XeXG.2.pXpX  pXpXpXpXpXpXpXpXpX",
"pXpXpX~ L..X|.}.E.E.R.U.H.{.9X>X|.#X_.T.f pXpXpXpXpXpXpXpXpXpXpX",
"pXpXpXpXr 6.h.z.F.P..XOXOXE._.@Xa.>.I.oX| pXpXpXpXpXpXpXpXpXpXpX",
"pXpXpXpXpXpXpXpXpX5 N ,.L.oXOXK.K.q g l.a.pXpXpXpXpXpXpXpXpXpXpX",
"pXpXpXpXpXpXpXpXpXpXpXpXe ,.|.^ W A pX3 X.pXpXpXpXpXpXpXpXpXpXpX",
"pXpXpXpXpXpXpXpXpXpXpXpXpXpXm d.. @ pXpXpX. pXpXpXpXpXpXpXpXpXpX",
"pXpXpXpXpXpXpXpXpXpXpXpXpXpXpXQ $ pXpXpXpXpXpXpXpXpXpXpXpXpXpXpX",
"pXpXpXpXpXpXpXpXpXpXpXpXpXpXpXpX  pXpXpXpXpXpXpXpXpXpXpXpXpXpXpX",
"pXpXpXpXpXpXpXpXpXpXpXpXpXpXpXpXpXpXpXpXpXpXpXpXpXpXpXpXpXpXpXpX",
"pXpXpXpXpXpXpXpXpXpXpXpXpXpXpXpXpXpXpXpXpXpXpXpXpXpXpXpXpXpXpXpX"
};
