/* XPM */
static char *result[] = {
/* columns rows colors chars-per-pixel */
"32 32 224 2 ",
"   c #020403",
".  c #020504",
"X  c #030504",
"o  c #050707",
"O  c #070807",
"+  c #060908",
"@  c #070908",
"#  c #090A08",
"$  c #090B0A",
"%  c #080C0B",
"&  c #0C0D0A",
"*  c #0C0D0B",
"=  c #090C0C",
"-  c #090D0C",
";  c #0E0F0E",
":  c #0F110F",
">  c #12100B",
",  c #14130D",
"<  c #0C0F10",
"1  c #0E1010",
"2  c #0E1112",
"3  c #0F1212",
"4  c #0E1213",
"5  c #0F1213",
"6  c #101314",
"7  c #121616",
"8  c #1B1913",
"9  c #1D1B16",
"0  c #13171A",
"q  c #141718",
"w  c #141A1B",
"e  c #171B1C",
"r  c #171B1D",
"t  c #171B1E",
"y  c #181A19",
"u  c #191B1B",
"i  c #1B1D1C",
"p  c #1F201C",
"a  c #1E201F",
"s  c #232017",
"d  c #242017",
"f  c #232018",
"g  c #2D281D",
"h  c #1A1F21",
"j  c #1B1F23",
"k  c #1F2528",
"l  c #212323",
"z  c #2B2B27",
"x  c #212628",
"c  c #252A2E",
"v  c #2D2E2B",
"b  c #312F29",
"n  c #31312C",
"m  c #252D30",
"M  c #272D30",
"N  c #262E31",
"B  c #272E32",
"V  c #283033",
"C  c #2B3237",
"Z  c #2B3138",
"A  c #2D3438",
"S  c #2F363B",
"D  c #2F373B",
"F  c #323230",
"G  c #343534",
"H  c #373734",
"J  c #343636",
"K  c #363837",
"L  c #393A36",
"P  c #32383B",
"I  c #31383F",
"U  c #323A3E",
"Y  c #363B3E",
"T  c #393B38",
"R  c #3D3E3B",
"E  c #3B3C3C",
"W  c #3C3D3D",
"Q  c #343D42",
"!  c #343D43",
"~  c #353F43",
"^  c #374045",
"/  c #374145",
"(  c #3D484D",
")  c #3D4751",
"_  c #3F4950",
"`  c #434443",
"'  c #444545",
"]  c #444645",
"[  c #484847",
"{  c #4A4A49",
"}  c #4B4B4B",
"|  c #4D4E4C",
" . c #4D4E4D",
".. c #434F55",
"X. c #404C57",
"o. c #454F55",
"O. c #444E58",
"+. c #455158",
"@. c #4C5458",
"#. c #4E5558",
"$. c #4F575B",
"%. c #505150",
"&. c gray32",
"*. c gray33",
"=. c #555757",
"-. c gray34",
";. c #575959",
":. c #5D5E5C",
">. c #5E605F",
",. c #4E5A61",
"<. c #4E5B63",
"1. c #4F5D65",
"2. c #515E67",
"3. c #5B6060",
"4. c #5E6162",
"5. c #526069",
"6. c #53616C",
"7. c #56646F",
"8. c #556171",
"9. c #586871",
"0. c #596872",
"q. c #5A6976",
"w. c #606160",
"e. c #686A69",
"r. c #6A6A6A",
"t. c #6C6D6D",
"y. c #6D6F6E",
"u. c #6F6F6F",
"i. c #717373",
"p. c #727576",
"a. c #777878",
"s. c #797A7A",
"d. c #7C7E7E",
"f. c #657681",
"g. c #687A85",
"h. c #6A7B89",
"j. c #6E818D",
"k. c #6F828D",
"l. c #72828C",
"z. c #6F8392",
"x. c #728793",
"c. c #748996",
"v. c #778B97",
"b. c #798E9C",
"n. c #7C8F9C",
"m. c #808181",
"M. c #838484",
"N. c #898988",
"B. c #8D8E8D",
"V. c #858C90",
"C. c #8F9090",
"Z. c #8D9397",
"A. c #86959F",
"S. c #939493",
"D. c #9C9D9D",
"F. c #9E9F9F",
"G. c #8798A1",
"H. c #8198A6",
"J. c #8D9FAA",
"K. c #9AA5AB",
"L. c #9CA8AF",
"P. c #89A1B0",
"I. c #8BA3B1",
"U. c #8CA6B4",
"Y. c #93A8B4",
"T. c #99ABB6",
"R. c #90AAB9",
"E. c #93ACBA",
"W. c #95ACB9",
"Q. c #94AEBE",
"!. c #9BB1BE",
"~. c #A1A1A0",
"^. c #A4A5A4",
"/. c #AAAAA9",
"(. c #A9AAAA",
"). c gray67",
"_. c #A3ACB1",
"`. c #AFB1B1",
"'. c #ABB8BF",
"]. c #B1B4B6",
"[. c #B5B6B6",
"{. c #B9B9B9",
"}. c #BCBCBC",
"|. c #BCBEBF",
" X c #96B1C2",
".X c #98B3C3",
"XX c #9DB5C3",
"oX c #9AB6C6",
"OX c #9CB8C8",
"+X c #9FB9CA",
"@X c #9EBBCC",
"#X c #A9BAC4",
"$X c #A2BDCC",
"%X c #AEC5D1",
"&X c #C0C2C3",
"*X c #C3C4C4",
"=X c #C6C6C6",
"-X c #C1C6C8",
";X c #C3CACC",
":X c #C5CACD",
">X c #CCCDCD",
",X c #CECECE",
"<X c #C1CFD7",
"1X c #C5D0D6",
"2X c #C9D1D6",
"3X c #CCD1D5",
"4X c #CDD4D7",
"5X c #CBD4D9",
"6X c #D1D2D2",
"7X c #D5D5D5",
"8X c #D1D5D8",
"9X c #D6D8D8",
"0X c #D2D8DC",
"qX c #D6DBDE",
"wX c #D9D9DA",
"eX c gray86",
"rX c #DDDDDD",
"tX c #DFDFDF",
"yX c #DBDEE1",
"uX c #E2E2E2",
"iX c #E2E3E3",
"pX c #E4E4E4",
"aX c gray90",
"sX c None",
/* pixels */
"sXsXsXsXsXsXsXsXsXsXsXsXsXsXsXsXsXsXsXsXsXsXsXsXsXsXsXsXsXsXsXsX",
"sXsXsXsXsXsXsXsXsXsXsXsXsXsXsXsXsXsXsXsXsXsXsXsXsXsXsXsXsXsXsXsX",
"sXsXsXsXsXsXsXsXsXsXsXsXsXsXsX  sXsXsXsXsXsXsXsXsXsXsXsXsXsXsXsX",
"sXsXsXsXsXsXsXsXsXsXsXsXsXsXsX$ ~ sXsXsXsXsXsXsXsXsXsXsXsXsXsXsX",
"sXsXsXsXsXsXsXsXsXsX. sXsXsX@ . h.N sXsXsXsXsXsXsXsXsXsXsXsXsXsX",
"sXsXsXsXsXsXsXsXsXsXsXO.5 sXS ! ( .X2.r sXsXsXsXsXsXsXsXsXsXsXsX",
"sXsXsXsXsXsXsXsXsXsXsXf.x.j w P.P.@X+XI.2.V 6 sXsXsXsXsXsXsXsXsX",
"sXsXsXsXsXsXsXsXsXsXsX..+XY.1.f.$X'.Q.@X@XoXU.H.c.k.9.t sXsXsXsX",
"sXsXsXsXsXsXsXsXsXsXsXh E.'.%X.X<XqX|.K.T.W.Q.Q. X.XoXI./ sXsXsX",
"sXsXsXsXsXsXsXsXsX  sXsX5.J.tX0XiXaXaXaXpX9X*X&X-X:X3X0X4Xp.sXsX",
"sXsXsXsXsXsXsXsXsX7 <.k x v.*XaXaXaXaXaXaXaXaXaXaXaXaXaXaXrXJ sX",
"sXsXsXsXsXsXsXsX* B 5.^ g.G.`.iXaXaXeXN.i.aXaXpX7XaXaXaXaXaXm.sX",
"sXsXsXsXsXsXsXsXl.<XyX8X3.5XuXaXpX[.` [ -.pX).' K L *XaXaXaX).sX",
"sXsXsXsXsXsXsXX.2XaXaX,X@.].pXaX,X' } F D.aX%.*.{ v u.aXaXaX{.y ",
"sXsXsXsXsXsXsXo.1X6XwXM.b.!.9XaX~. .-. .&.pXu.R F z S.aXaXaX}.i ",
"sXsXsXsXsXsXsXsXP b $.,.D A.eXaXr.-.-.-.;.pXeX^.B./.uXaXaXaX`.sX",
"sXsXsXsXsXsXsXsXsXd e H.OXR.Z.rX[ &.-.-.;.pXaXaXaXaXaXaXaXaXS.sX",
"sXsXsXsXsXsXsXsXsX8 : Q XX;X&XtX{ H `  .*.pXaXaXaXaXaXaXaXaX=.sX",
"sXsXsXsXsXsXsXsXsX, 9 sXU #XpXaXN.v n n ` pX=Xr.&.s.tXaXaX>Xa sX",
"sXsXsXsXsXsXsXsXsX# a 3 O m L.iX>XH v p &.pX;.} L z (.aX}.E sXsX",
"sXsXsXsXsXsXsXsXsXw.V.+.F.sX- 4.[.*X:.v  .pX^.[ L T C.>.= sXsXsX",
"sXsXsXsXsXsXsXsXsXw._.g.t.sXsXsX1 W y.d.a.D.B.e.E l sXsXsXsXsXsX",
"sXsXsXsXsXsXsXsXsX] s.#.u sXsXsXsXsXsXsXsXsXsXsXsXsXsXsXsXsXsXsX",
"sX  sXsXsXsXsXsXsXG | %.A sXsXsXsXsXsXsXsXsXsXsXsXsXsXsXsXsXsXsX",
"sX% o sXsXsXsXsXsXsX> s sXsXsXsXsXsXsXsXsXsXsXsXsXsXsXsXsXsXsXsX",
"sX2 x < sXsXsXsXsXsXsXd sXsXsXsXsXsXsXsXsXsXsXsXsXsXsXsXsXsXsXsX",
"sXsXI _ Z + sXsXsXsX. f sXsXsXsXsXsXsXsXsXsXsXsXsXsXsXsXsXsXsXsX",
"sXsX< O.z._ I ) C c q & X sXsXsXsXsXsXsXsXsXsXsXsXsXsXsXsXsXsXsX",
"sXsXsX5 0.n.q.h.7._ D x ; sXsXsXsXsXsXsXsXsXsXsXsXsXsXsXsXsXsXsX",
"sXsXsXsXsXY 6.j.b.8.M @ g sXsXsXsXsXsXsXsXsXsXsXsXsXsXsXsXsXsXsX",
"sXsXsXsXsXsXsXsX0 4 sXX s sXsXsXsXsXsXsXsXsXsXsXsXsXsXsXsXsXsXsX",
"sXsXsXsXsXsXsXsXsXsXsXsXsXsXsXsXsXsXsXsXsXsXsXsXsXsXsXsXsXsXsXsX"
};
