/* XPM */
static char *result[] = {
/* columns rows colors chars-per-pixel */
"32 32 114 2 ",
"   c #000001",
".  c #000302",
"X  c gray1",
"o  c #040100",
"O  c #000605",
"+  c #0E0702",
"@  c #000905",
"#  c #020805",
"$  c #060C07",
"%  c #0D0906",
"&  c #000D08",
"*  c #070F09",
"=  c #120801",
"-  c #160C04",
";  c #1C0E04",
":  c #02130B",
">  c #07120B",
",  c #0A1009",
"<  c #0A130A",
"1  c #0D130A",
"2  c #1C1008",
"3  c #201107",
"4  c #261407",
"5  c #2B1407",
"6  c #26160B",
"7  c #2A170A",
"8  c #341D0D",
"9  c #391D0D",
"0  c #6C713A",
"q  c #6F743B",
"w  c #72773D",
"e  c #767B3F",
"r  c #797E40",
"t  c #9D5829",
"y  c #9D5A2D",
"u  c #9D5C31",
"i  c #9C5E35",
"p  c #A15928",
"a  c #A55C2B",
"s  c #A15B2C",
"d  c #A55E2F",
"f  c #AB5F2B",
"g  c #A15D30",
"h  c #A9602E",
"j  c #AF622E",
"k  c #A56133",
"l  c #A16034",
"z  c #A96232",
"x  c #AD6331",
"c  c #AF6432",
"v  c #AF6736",
"b  c #B36835",
"n  c #B76934",
"m  c #B96831",
"M  c #BF6831",
"N  c #B96A35",
"B  c #BD6B34",
"V  c #BD6E38",
"C  c #DF6C1E",
"Z  c #E06816",
"A  c #E06A1A",
"S  c #E46B19",
"D  c #E46E1D",
"F  c #F0711C",
"G  c #DF6F22",
"H  c #DF7126",
"J  c #C16F37",
"K  c #CA7137",
"L  c #C7733B",
"P  c #CA743B",
"I  c #DB7B3D",
"U  c #E37225",
"Y  c #E77324",
"T  c #E87120",
"R  c #EC7523",
"E  c #ED7828",
"W  c #F07622",
"Q  c #F67822",
"!  c #F17927",
"~  c #FC7A22",
"^  c #FF7E25",
"/  c #FB7F2A",
"(  c #7E8242",
")  c #818544",
"_  c #959D4D",
"`  c #98A14E",
"'  c #9CA550",
"]  c #9FA852",
"[  c #A4AC54",
"{  c #A7AF55",
"}  c #AAB257",
"|  c #AEB659",
" . c #DC8C55",
".. c #DC8E59",
"X. c #E08F58",
"o. c #E4935B",
"O. c #E0925C",
"+. c #E4955F",
"@. c #EA955B",
"#. c #EA985F",
"$. c #EE995E",
"%. c #F1995E",
"&. c #DB9361",
"*. c #DF9460",
"=. c #DB9565",
"-. c #DF9664",
";. c #E39763",
":. c #E99A63",
">. c #EC9A61",
",. c #EE9B62",
"<. c #ED9D66",
"1. c #F8A165",
"2. c #FFAA6B",
"3. c None",
/* pixels */
"3.3.3.3.3.3.3.3.3.3.3.3.3.3.3.3.3.3.3.3.3.3.3.3.3.3.3.3.3.3.3.3.",
"3.3.3.3.3.3.3.3.3.3.3.3., , , , 3.3.3.3.3.3.3.3.3.3.3.3.3.3.3.3.",
"3.3.3.3.3.3.3.3.3.3.3., | [ [ { # 3.3.3.3.3.3.3.3.3.3.3.3.3.3.3.",
"3.3.3.3.3.3.3.3.3.3.3.3., , # q r 1 3.3.3.3.3.3.3.3.3.3.3.3.3.3.",
"3.3.3.3.3.3.3.3.3.3.3.3.3.3.1 q w 1 3.3.3.3.3.3.3.3.3.3.3.3.3.3.",
"3.3.3.3.3.3.3.3.3.3.3.3.7 9 * ] q < 9 8 4 6 7 3.3.3.3.3.3.3.3.3.",
"3.3.3.3.3.3.7 4 4 7 8 3 I & , ' q 1 > 5 2.^ L 3 7 3.3.3.3.3.3.3.",
"3.3.3.3.3.3 m ,.$.N - I   ( # ' q $ ) > 5 2 = B V 3 3.3.3.3.3.3.",
"3.3.3.3.7 m ;.Z &.Q P O ( }   ' 0 O ) < : K $.*.T V 7 3.3.3.3.3.",
"3.3.3.3.; ,.Z =.~ % ; 5 @ . ( _ ` ( O 5 5 = 1.C U v 3 3.3.3.3.3.",
"3.3.3.7 B X.&.~ X m $.@.%.M   e e   M $.$.m o / H Y V 7 3.3.3.3.",
"3.3.3.7 j *.F X m +. ... .+.M O . B o... .+.m % E U b 7 3.3.3.3.",
"3.3.3.4 ,.Z <.f ;.Z &.Z &.Z -.F <.S &.Z &.Z <.+ / U b 7 3.3.3.3.",
"3.3.3.4 @.:.  ,.Z =.Z =.Z =.Z =.A =.A =.A =.S N X ! v 3 3.3.3.3.",
"3.3.3.4 #.S c X.&.Z =.Z =.A =.C H G H G H C &.o.N U Y V 7 3.3.3.",
"3.3.3.4 @.*.a O.Z =.A =.C H G H H H H H H H C #.o E U b 7 3.3.3.",
"3.3.3.4 ,.D d X.&.C H G H H H H H H H H H H G O.c Y U b 7 3.3.3.",
"3.3.3.7 N R d O.C H H H H H H H H H H H H H G O.h l R b 7 3.3.3.",
"3.3.3.3.3 b h O.G H H H H H H H H H H H H H G O.d W l n 7 3.3.3.",
"3.3.3.3.7 n h O.G H H H H H H H H H H H H H G O.h l W b 7 3.3.3.",
"3.3.3.3.7 J h +.C H H H H H H H H H H H H H G +.d W k J 7 3.3.3.",
"3.3.3.3.3.3 n a ;.C H H H H H H H H H H H H Y s x k n 3 3.3.3.3.",
"3.3.3.3.3.7 n x p ;.G H H H H H H H H H H Y u >.d W b 7 3.3.3.3.",
"3.3.3.3.3.7 J h >.t Y H U H H H H H U H Y i W d x k n 7 3.3.3.3.",
"3.3.3.3.3.3.3 n a >.u R i Y H U H Y i R i W g x k W b 7 3.3.3.3.",
"3.3.3.3.3.3.7 J x d W i W i R i R i W i W y >.g W k J 7 3.3.3.3.",
"3.3.3.3.3.3.3.3 J x g W i W i W i W i W u >.s W v J 3 3.3.3.3.3.",
"3.3.3.3.3.3.3.3.3 B >.g W l W l W l W l W d x V 3 7 3.3.3.3.3.3.",
"3.3.3.3.3.3.3.3.3.3 B x z x z x z x z x z x J 3 3.3.3.3.3.3.3.3.",
"3.3.3.3.3.3.3.3.3.3.3 J n n n n n n n n n J 3 3.3.3.3.3.3.3.3.3.",
"3.3.3.3.3.3.3.3.3.3.3.7 7 7 7 7 7 7 7 7 7 7 3.3.3.3.3.3.3.3.3.3.",
"3.3.3.3.3.3.3.3.3.3.3.3.3.3.3.3.3.3.3.3.3.3.3.3.3.3.3.3.3.3.3.3."
};
