/* XPM */
static char *result[] = {
/* columns rows colors chars-per-pixel */
"32 32 222 2 ",
"   c gray78",
".  c #CBCBCB",
"X  c #C3C3C3",
"o  c gray80",
"O  c #DDDDDD",
"+  c gray79",
"@  c gray83",
"#  c gray86",
"$  c #C5C5C5",
"%  c #CDCDCD",
"&  c gray81",
"*  c #C8C8C8",
"=  c #D8D8D8",
"-  c #DADADA",
";  c #CACACA",
":  c #CECECE",
">  c #C6C6C6",
",  c gray73",
"<  c gray85",
"1  c gray74",
"2  c gray77",
"3  c #D7D7D7",
"4  c gray72",
"5  c LightGray",
"6  c gray76",
"7  c #CACBCB",
"8  c #DFDFDF",
"9  c #D0D0D0",
"0  c #C1C1C1",
"q  c gray64",
"w  c #787979",
"e  c #C8D0D0",
"r  c gainsboro",
"t  c #B7B7B7",
"y  c #B9B9B9",
"u  c #D2D2D2",
"i  c #B1B1B1",
"p  c gray48",
"a  c gray75",
"s  c gray84",
"d  c gray82",
"f  c gray87",
"g  c gray",
"h  c #A5A5A5",
"j  c #BBBBBB",
"k  c #C0C0C0",
"l  c #E6E6E6",
"z  c #9B9B9B",
"x  c gray91",
"c  c #A7A8A8",
"v  c #A0A0A0",
"b  c #BCBCBC",
"n  c #AFAFAF",
"m  c #D0D8D8",
"M  c #7E7E7E",
"N  c #9D9D9D",
"B  c #E4E4E3",
"V  c #D5D5D5",
"C  c #717171",
"Z  c #BDC7C7",
"A  c gray42",
"S  c #656564",
"D  c #ABABAA",
"F  c #959595",
"G  c #767676",
"H  c #747474",
"J  c #C9D2D2",
"K  c gray36",
"L  c #EFF0F0",
"P  c #A9A9A9",
"I  c #9FA0A0",
"U  c #8F9090",
"Y  c #F2F3F3",
"T  c #757675",
"R  c gray39",
"E  c #ECECEC",
"W  c #C7CFCF",
"Q  c #E2E5E5",
"!  c #CCD5D5",
"~  c gray88",
"^  c #C7D2D2",
"/  c #CED5D5",
"(  c gray61",
")  c #CAD5D5",
"_  c #727272",
"`  c #E2E2E2",
"'  c gray49",
"]  c gray44",
"[  c #686868",
"{  c #ACACAC",
"}  c #828383",
"|  c gray70",
" . c #BABCBC",
".. c gray65",
"X. c #C3C4C4",
"o. c #BFC9C8",
"O. c #888D8D",
"+. c #6F6F6F",
"@. c gray45",
"#. c #949391",
"$. c #7C7C7C",
"%. c #6C6C6C",
"&. c #CDD3D3",
"*. c #C6C8C8",
"=. c #C7CBCB",
"-. c #D8DCDC",
";. c #979694",
":. c #848585",
">. c #B2B2B2",
",. c #7E7A72",
"<. c #D2D7D7",
"1. c #5D5D5D",
"2. c #C4CCCC",
"3. c #808180",
"4. c #E0E1E1",
"5. c #C1CBCB",
"6. c #9A9B99",
"7. c #666766",
"8. c #8D9494",
"9. c #A5A5A3",
"0. c #E3E7E7",
"q. c #BCC6C6",
"w. c #DCDDDD",
"e. c #797773",
"r. c #A3A4A4",
"t. c #817B72",
"y. c #AEAEAE",
"u. c #EEEEEE",
"i. c #DBDDDD",
"p. c #7A756E",
"a. c gray43",
"s. c #848484",
"d. c #CDCFCF",
"f. c #BEC8C8",
"g. c #646666",
"h. c #C8CACA",
"j. c #616262",
"k. c gray32",
"l. c gray55",
"z. c #78746F",
"x. c #969999",
"c. c gray38",
"v. c #C4CDCD",
"b. c #BBC4C4",
"n. c #878888",
"m. c #B3BDBD",
"M. c #C8CCCC",
"N. c #939896",
"B. c #777572",
"V. c #EBEDED",
"C. c #75726C",
"Z. c #9B9C95",
"A. c #AAA8A5",
"S. c #999F9F",
"D. c #8E887F",
"F. c #A4A5A4",
"G. c #8E8E8E",
"H. c #C8D3D3",
"J. c #827F7A",
"K. c #DDDFDF",
"L. c #A09F9C",
"P. c #A1A29D",
"I. c #96958F",
"U. c #898988",
"Y. c #5A5A5A",
"T. c #5E5F5F",
"R. c #848787",
"E. c #CCD2D2",
"W. c #8E8E8D",
"Q. c #929999",
"!. c #D5D6D6",
"~. c #A2A6A6",
"^. c #909191",
"/. c #979B9B",
"(. c #8F9595",
"). c #77736D",
"_. c #DDE4E4",
"`. c #857E74",
"'. c #E8E9E9",
"]. c #919292",
"[. c #766F64",
"{. c #7C7974",
"}. c #A39D96",
"|. c #D4D8D8",
" X c #878684",
".X c #6A6763",
"XX c #B1B8B8",
"oX c gray34",
"OX c #756D63",
"+X c #938C82",
"@X c #ACAEAE",
"#X c #D6DADA",
"$X c #CAD0D0",
"%X c #D8DFDF",
"&X c #ADB5B5",
"*X c #938F89",
"=X c #726F6A",
"-X c #B7B4B0",
";X c #555555",
":X c #A7AEAF",
">X c #8D9292",
",X c gray71",
"<X c #F4F5F5",
"1X c #D7DCDC",
"2X c #B7BDBD",
"3X c #A2A1A1",
"4X c #DCE2E2",
"5X c #8B9090",
"6X c #B2B0AD",
"7X c #9BA09E",
"8X c #7D7B78",
"9X c #858A8A",
"0X c #A9B1B2",
"qX c #A8A6A2",
"wX c #949692",
"eX c #E1E3E3",
"rX c #D3DCDC",
"tX c #CBCDCD",
"yX c gray54",
"uX c #ACA8A3",
"iX c #837F77",
"pX c #7F7C75",
/* pixels */
"! ) L <XrXH.^ Q _.) ) m y ] J H.! L Y Y m ^ 0.Y 4X^ %XY u.g A W ",
"h.7 f ` f & + 7 @ r w.!.6XD.l 7 tXf & X g  .*.: 7 * ; o . n %.5.",
"0 3 f 8 8 r r * j o 3 $ qX+Xx % - O o 3 < ; 5 # 9 9 & , , A.iX5.",
", + o r $ 1 @ r * 0 $ y r.3.J + . o < 8 > j > X j . O : t A.D.4.",
"V = ; . V k 1   * 2 % 3 j n.eX* k 3 f $ y k > d > + 8 O 5 i  Xx ",
"~ 8 . * %   X > d - O 9 F p x k , X o $ X @ : s # - 4.# a yX' ! ",
"q { ( ..P N q c h v ..h w R h h 3XF h ( 9.n 3X..i D v q q s.7./.",
"j.A +.w p p.,.8XH +.B.z.K k.j.A a.).t.S H w @.T w e.C._ T S k.c.",
"O.(.@Xi >.9.P.7Xc i D 6.8.8.(.G.1.;.P.F.n i ~.S.S.c -Xi P 8.N.q ",
"o.J ~ E l $Xo.2.#Xx 0.m e e $XX ] Z e '.u.l <.W W |.B l x m &.~ ",
"f.*.& O . a 2 > . s # d $ 0 6 4 $.E.7 5 s ; o 9 o   ; @ 8 - *   ",
"E.7 s @ > . - d & = d $ a 4 j 4 M B : % * o - # % 6 + V = @ + % ",
"K.. X , t @ < . $ + . $ 6 6 X 4 w -.5 O o @ < : g b 6 $ .   . - ",
"5.*.1 y , & X , 0 u = u O < @ y.g.f.w.8 o . % + X : O < V + & < ",
"m.g g | 4 >.i t b   u 9 + b t G.c.XXo : 6 o u X X % * a a 0 o > ",
"$.#.#.#.s.3.l.U.n.^.].l.M :.W.G oXw M 3.U ;.;.U.M M :.U U W.} s.",
"7.t.`.e.H G w {.=X1.Y.j.g.B.,.S 1.c.S H T ,.t.e.A R 1.K g.7.G H ",
"o.~ B 2.q.-.l &.=.F p q.b.W B i.Z q.K.l v.Z Z Z / - N $.i.2.i.o.",
"h.% d.=.1 * : 7 7 z O.) d.w.# X *.7 8 ` $  . .X.o % z } V.h.% + ",
"= +   1 4 6 @ r d z 6.V.r = a ,   < 8 8 # . 2 u 9   v R./   . 3 ",
"O ;   , t 6 + = 5 z N E 9 s y 1 = f & 6 0 b & O r # y.R.e   . O ",
"X $ 1 4 k $ u O @ L.I.-.- < 2 2 o X 1 4 t a ; = s & I } Q . < # ",
"& + X X   @ O 3 a *XI.! @ # * * + d u 5 5 . u O 5 b U :.1X; 5 - ",
">.{ v N ( n t c F e.T ~.y.| P N v | t t D I 9.n i ( J.pXr.{ D h ",
"p p [ ).p.C w G A Y.;X[ @.' p C p.J.' _ [ S S _ ' C .X[.)._ p C ",
"F.r.p OX}.L.x.Q.x.z z F O./.c P uXZ.N.^.K w 9X>XI q 6.Z.wX5Xq Q.",
"B ` c C.# E |.v.<.` x 0.e m u.L E &.e 7 a.0XJ / Q L Q e e / 4.J ",
"0 X q a.& d   0 , b : - % . = f O 9   h C 2Xd.9 = 3 @ : : : o $ ",
"1 2 D ] m.=.. ; 0 + # O @   ; 3 - O & ,X+.: = > ; % @ O = 8 #   ",
"+   2 ] b.7 3 & X 2 o @ > 2 2 $ + = - # %.X.!.; s # 3 % 6 O 3 + ",
"o   1 R @ @ @ . k 1 g > 2 j y j 2     6 @.&XM.u < ; y , X s + % ",
"# > I %.- V   @ O o 4 g   X y 4 , $ $ q 1.:XM.* 0 y 4 1   * . r "
};
